SplineFontDB: 3.0
FontName: Thabit-Bold
FullName: Thabit Bold
FamilyName: Bold
Weight: Bold
Copyright: Typeface and data (C) 2008-2010, Khaled Hosny.\nThis font is distributed under the terms of OFL license.
Version: 0.02
ItalicAngle: 0
UnderlinePosition: -108
UnderlineWidth: 119
Ascent: 819
Descent: 205
LayerCount: 2
Layer: 0 1 "Back"  1
Layer: 1 1 "Fore"  0
XUID: [1021 117 962472906 11231565]
FSType: 0
OS2Version: 0
OS2_WeightWidthSlopeOnly: 0
OS2_UseTypoMetrics: 0
CreationTime: 25200
ModificationTime: 1276640219
PfmFamily: 49
TTFWeight: 700
TTFWidth: 5
LineGap: 100
VLineGap: 0
OS2TypoAscent: 819
OS2TypoAOffset: 0
OS2TypoDescent: 0
OS2TypoDOffset: 0
OS2TypoLinegap: 900
OS2WinAscent: 1010
OS2WinAOffset: 0
OS2WinDescent: 528
OS2WinDOffset: 0
HheadAscent: 1010
HheadAOffset: 0
HheadDescent: -244
HheadDOffset: 0
OS2Vendor: 'AE  '
Lookup: 260 1 0 "'mark' Mark to base in Arabic lookup 0"  {"'mark' Mark to base in Arabic lookup 0 subtable"  } ['mark' ('arab' <'dflt' > ) ]
Lookup: 261 1 0 "'mark' Mark to ligature in Arabic lookup 1"  {"'mark' Mark to ligature in Arabic lookup 1 subtable"  } ['mark' ('arab' <'dflt' > ) ]
DEI: 91125
TtTable: prep
PUSHW_1
 7
CALL
PUSHW_1
 640
NPUSHB
 228
 207
 254
 3
 206
 75
 3
 205
 254
 3
 204
 10
 3
 201
 14
 3
 200
 50
 3
 199
 187
 3
 198
 187
 3
 197
 250
 3
 196
 150
 3
 194
 254
 3
 193
 254
 3
 192
 191
 71
 5
 192
 125
 3
 191
 71
 3
 190
 48
 3
 189
 125
 3
 188
 11
 3
 187
 254
 3
 186
 254
 3
 185
 254
 3
 184
 15
 3
 182
 10
 3
 181
 21
 3
 180
 38
 3
 179
 10
 3
 179
 64
 4
 178
 177
 26
 5
 177
 26
 3
 176
 175
 26
 5
 176
 30
 3
 175
 26
 3
 174
 159
 13
 5
 174
 55
 3
 173
 159
 13
 5
 173
 33
 3
 172
 55
 3
 171
 11
 3
 170
 169
 17
 5
 170
 50
 3
 169
 17
 3
 169
 128
 4
 168
 46
 3
 167
 154
 30
 5
 167
 254
 3
 166
 165
 18
 5
 166
 29
 3
 165
 18
 3
 164
 163
 43
 5
 164
 187
 3
 163
 116
 29
 5
 163
 43
 3
 162
 116
 29
 5
 162
 187
 3
 161
 160
 26
 5
 161
 254
 3
 160
 26
 3
 159
 13
 3
 158
 157
 187
 5
 158
 254

StartChar: arabiccomma
Encoding: 1548 1548 2
Width: 637
GlyphClass: 2
Flags: W
LayerCount: 2
Fore
SplineSet
384.177 44.4629 m 128,-1,1
 364.354 24 364.354 24 335 24 c 0,2,3
 290.894 24 290.894 24 262.727 56.1055 c 0,4,5
 233 89.9883 233 89.9883 233 147 c 0,6,7
 233 199.831 233 199.831 261.27 251.571 c 128,-1,8
 289.54 303.311 289.54 303.311 331.462 332.333 c 2,9,-1
 342.218 339.779 l 1,10,-1
 371.917 307.379 l 1,11,-1
 361.437 297.227 l 2,12,13
 331.239 267.973 331.239 267.973 316.12 238.191 c 128,-1,14
 301 208.41 301 208.41 301 177 c 0,15,16
 301 165.846 301 165.846 303.75 156.026 c 2,17,-1
 304.355 153.908 l 1,18,19
 319.611 163 319.611 163 336 163 c 0,20,21
 364.489 163 364.489 163 384.245 141.97 c 128,-1,22
 404 120.94 404 120.94 404 93 c 128,-1,0
 404 64.9258 404 64.9258 384.177 44.4629 c 128,-1,1
EndSplineSet
EndChar

StartChar: arabicsemicolon
Encoding: 1563 1563 3
Width: 637
GlyphClass: 2
Flags: W
LayerCount: 2
Fore
SplineSet
371.106 20.8936 m 128,-1,1
 352.213 2 352.213 2 325 2 c 128,-1,2
 297.787 2 297.787 2 278.894 20.8936 c 128,-1,3
 260 39.7871 260 39.7871 260 67 c 128,-1,4
 260 94.2129 260 94.2129 278.894 113.106 c 128,-1,5
 297.787 132 297.787 132 325 132 c 128,-1,6
 352.213 132 352.213 132 371.106 113.106 c 128,-1,7
 390 94.2129 390 94.2129 390 67 c 128,-1,0
 390 39.7871 390 39.7871 371.106 20.8936 c 128,-1,1
384.177 216.463 m 128,-1,9
 364.354 196 364.354 196 335 196 c 0,10,11
 291.768 196 291.768 196 262.722 229.112 c 0,12,13
 233 262.994 233 262.994 233 320 c 0,14,15
 233 371.733 233 371.733 260.785 424.098 c 128,-1,16
 288.566 476.455 288.566 476.455 331.825 504.576 c 2,17,-1
 342.475 511.499 l 1,18,-1
 372.08 479.202 l 1,19,-1
 361.259 469.057 l 2,20,21
 331.18 440.856 331.18 440.856 316.091 411.135 c 128,-1,22
 301 381.41 301 381.41 301 349 c 0,23,24
 301 337.78 301 337.78 303.759 328.412 c 2,25,-1
 304.25 326.744 l 1,26,27
 319.101 336 319.101 336 336 336 c 0,28,29
 363.481 336 363.481 336 383.74 314.475 c 128,-1,30
 404 292.948 404 292.948 404 265 c 128,-1,8
 404 236.926 404 236.926 384.177 216.463 c 128,-1,9
EndSplineSet
EndChar

StartChar: arabicquestionmark
Encoding: 1567 1567 4
Width: 614
GlyphClass: 2
Flags: MW
LayerCount: 2
Fore
SplineSet
502 430 m 1,0,-1
 413 430 l 1,35,-1
 413 500 l 1,34,-1
 393 507 l 2,33,-1
 366 517 366 517 312 517 c 0,31,32
 269 517 269 517 236 492.5 c 128,-1,30
 203 468 203 468 203 426 c 0,28,29
 203 404 203 404 213 386.5 c 128,-1,27
 223 369 223 369 234 359 c 128,-1,26
 245 349 245 349 269 339.5 c 128,-1,25
 293 330 293 330 305 326.5 c 128,-1,24
 317 323 317 323 345 316 c 0,22,23
 351 315 351 315 372 310 c 0,20,21
 373 310 373 310 377 309 c 2,18,19
 381 308 l 1,17,-1
 381 183 l 1,16,-1
 293 183 l 1,15,-1
 293 241 l 1,14,-1
 267 248 267 248 250.5 254 c 128,-1,13
 234 260 234 260 205 275.5 c 128,-1,12
 176 291 176 291 158 308.5 c 128,-1,11
 140 326 140 326 126 356.5 c 128,-1,10
 112 387 112 387 112 424 c 0,8,9
 112 500 112 500 168.5 553 c 128,-1,7
 225 606 225 606 323 606 c 0,5,6
 383 606 383 606 473 577 c 0,3,4
 497 568 497 568 502 566 c 1,1,2
 502 430 l 1,0,-1
339 145 m 128,-1,37
 377 145 377 145 402 121.5 c 128,-1,36
 427 98 427 98 427 65 c 0,44,45
 427 31 427 31 401.5 7.5 c 128,-1,43
 376 -16 376 -16 339 -16 c 0,41,42
 301 -16 301 -16 275.5 7.5 c 128,-1,40
 250 31 250 31 250 65 c 128,-1,39
 250 99 250 99 275.5 122 c 128,-1,38
 301 145 301 145 339 145 c 128,-1,37
EndSplineSet
EndChar

StartChar: hamza
Encoding: 1569 1569 5
Width: 637
GlyphClass: 2
Flags: W
AnchorPoint: "ArabicBelow" 317 -123 basechar 0
AnchorPoint: "ArabicAbove" 310 369 basechar 0
LayerCount: 2
Fore
SplineSet
252 99 m 1,0,1
 266 87 266 87 290 80 c 128,-1,2
 314 73 314 73 349 73 c 0,3,4
 366 73 366 73 415 85 c 0,5,6
 431 89 431 89 461 98 c 1,7,-1
 411 2 l 1,8,9
 385 -5 385 -5 369 -8 c 0,10,11
 323 -19 323 -19 295 -30 c 0,12,13
 278 -36 278 -36 252.5 -48 c 128,-1,14
 227 -60 227 -60 201 -73 c 0,15,16
 176 -86 l 1,17,-1
 180 -50 l 1,18,19
 185 -32 185 -32 210 -7 c 0,20,21
 218 2 218 2 233 15 c 1,22,23
 220 22 220 22 214 27 c 0,24,25
 195 44 195 44 195 68 c 0,26,27
 195 114 195 114 239 171 c 0,28,29
 286 230 286 230 336 230 c 0,30,31
 362 230 362 230 389 213 c 0,32,33
 397 207 397 207 410 195 c 1,34,-1
 368 125 l 1,35,36
 355 130 355 130 346 131 c 0,37,38
 320 138 320 138 300 138 c 0,39,40
 294 138 294 138 279 126 c 0,41,42
 275 122 275 122 252 99 c 1,0,1
EndSplineSet
EndChar

StartChar: alefwithmaddaabove
Encoding: 1570 1570 6
Width: 637
GlyphClass: 2
Flags: W
AnchorPoint: "ArabicBelow" 345 -137 basechar 0
AnchorPoint: "ArabicAbove" 331 826 basechar 0
LayerCount: 2
Fore
SplineSet
447 741 m 1,0,1
 445 737 445 737 428 673 c 0,2,3
 410 609 410 609 410 608 c 1,4,5
 410 617 410 617 407 639 c 0,6,7
 405 662 405 662 402 671 c 1,8,9
 364 642 364 642 312 630 c 0,10,11
 281 623 281 623 241 623 c 2,12,-1
 227 623 l 1,13,-1
 222 623 l 1,14,15
 219 618 219 618 211 599 c 0,16,17
 208 593 208 593 203 580 c 1,18,19
 201 580 201 580 199 581 c 0,20,21
 196 581 196 581 195 581 c 0,22,23
 191 581 191 581 190 580 c 1,24,-1
 190 713 l 1,25,26
 207 701 207 701 232 695 c 0,27,28
 256 689 256 689 282 689 c 0,29,30
 317 689 317 689 361 704 c 0,31,32
 404 722 404 722 447 741 c 1,0,1
EndSplineSet
Refer: 11 1575 S 1 0 0 1 1 0 2
EndChar

StartChar: alefwithhamzaabove
Encoding: 1571 1571 7
Width: 637
GlyphClass: 2
Flags: W
AnchorPoint: "ArabicBelow" 362 -123 basechar 0
AnchorPoint: "ArabicAbove" 308 853 basechar 0
LayerCount: 2
Fore
SplineSet
402 2 m 1,0,-1
 354 -49 l 1,1,2
 354 -13 354 -13 346 68 c 0,3,4
 335 171 335 171 319 261 c 0,5,6
 300 373 300 373 275 443 c 1,7,-1
 336 556 l 1,8,9
 365 509 365 509 382 376 c 0,10,11
 394 280 394 280 399 142 c 0,12,13
 402 62 402 62 402 2 c 1,0,-1
376 602 m 1,14,15
 375 602 375 602 348 588 c 0,16,17
 309 567 309 567 290 555 c 0,18,19
 255 534 255 534 241 519 c 1,20,-1
 241 536 l 2,21,22
 241 545 241 545 251 567 c 0,23,24
 254 575 254 575 261 588 c 1,25,26
 250 593 250 593 245 602 c 0,27,28
 235 615 235 615 235 634 c 0,29,30
 235 669 235 669 266 715 c 0,31,32
 300 765 300 765 334 765 c 0,33,34
 349 765 349 765 356 755 c 128,-1,35
 363 745 363 745 363 730 c 0,36,37
 363 717 363 717 358 704 c 128,-1,38
 353 691 353 691 348 688 c 1,39,40
 344 693 344 693 340 695 c 0,41,42
 332 702 332 702 321 702 c 0,43,44
 307 702 307 702 284 685 c 128,-1,45
 261 668 261 668 261 654 c 0,46,47
 261 646 261 646 280.5 640 c 128,-1,48
 300 634 300 634 317 634 c 0,49,50
 332 634 332 634 362 650 c 0,51,52
 380 660 380 660 398 671 c 1,53,-1
 376 602 l 1,14,15
EndSplineSet
EndChar

StartChar: wawwithhamzaabove
Encoding: 1572 1572 8
Width: 637
GlyphClass: 2
Flags: W
AnchorPoint: "ArabicBelow" 313 -299 basechar 0
AnchorPoint: "ArabicAbove" 263 669 basechar 0
LayerCount: 2
Fore
SplineSet
352 391 m 1,0,-1
 324 377 l 0,1,2
 286 356 286 356 266 344 c 0,3,4
 231 323 231 323 217 308 c 1,5,-1
 217 325 l 2,6,7
 217 334 217 334 227 356 c 0,8,9
 230 364 230 364 237 378 c 1,10,11
 226 382 226 382 221 391 c 0,12,13
 211 404 211 404 211 423 c 0,14,15
 211 458 211 458 242 504 c 0,16,17
 276 554 276 554 310 554 c 0,18,19
 325 554 325 554 332 544 c 0,20,21
 339 535 339 535 339 519 c 0,22,23
 339 506 339 506 334 493 c 0,24,25
 329 480 329 480 324 477 c 1,26,27
 320 482 320 482 316 484 c 0,28,29
 308 491 308 491 298 491 c 0,30,31
 283 491 283 491 260 474 c 0,32,33
 237 457 237 457 237 443 c 0,34,35
 237 436 237 436 257 430 c 0,36,37
 276 423 276 423 294 423 c 0,38,39
 308 423 308 423 338 440 c 0,40,41
 356 449 356 449 374 460 c 1,42,-1
 352 391 l 1,0,-1
EndSplineSet
Refer: 39 1608 S 1 0 0 1 0 0 2
EndChar

StartChar: alefwithhamzabelow
Encoding: 1573 1573 9
Width: 637
GlyphClass: 2
Flags: W
AnchorPoint: "ArabicBelow" 323 -348 basechar 0
AnchorPoint: "ArabicAbove" 288 689 basechar 0
LayerCount: 2
Fore
SplineSet
379 -246 m 1,0,1
 378 -246 378 -246 351 -261 c 0,2,3
 312 -282 312 -282 292 -294 c 0,4,5
 258 -315 258 -315 243 -329 c 1,6,-1
 243 -312 l 2,7,8
 245 -303 245 -303 254 -282 c 0,9,10
 257 -274 257 -274 264 -260 c 1,11,12
 254 -255 254 -255 247 -246 c 0,13,14
 238 -233 238 -233 238 -214 c 0,15,16
 238 -180 238 -180 270 -134 c 0,17,18
 304 -84 304 -84 337 -84 c 0,19,20
 352 -84 352 -84 359 -93 c 0,21,22
 366 -103 366 -103 366 -118 c 0,23,24
 366 -131 366 -131 361 -144 c 0,25,26
 357 -158 357 -158 350 -160 c 1,27,28
 346 -155 346 -155 344 -154 c 0,29,30
 335 -147 335 -147 324 -147 c 0,31,32
 309 -147 309 -147 287 -164 c 0,33,34
 264 -180 264 -180 264 -195 c 0,35,36
 264 -202 264 -202 284 -208 c 0,37,38
 304 -214 304 -214 320 -214 c 0,39,40
 336 -214 336 -214 365 -198 c 0,41,42
 383 -188 383 -188 401 -177 c 1,43,-1
 379 -246 l 1,0,1
EndSplineSet
Refer: 11 1575 S 1 0 0 1 -19 0 2
EndChar

StartChar: yehwithhamzaabove
Encoding: 1574 1574 10
Width: 637
GlyphClass: 2
Flags: W
AnchorPoint: "ArabicBelow" 255 -205 basechar 0
AnchorPoint: "ArabicAbove" 145 601 basechar 0
LayerCount: 2
Fore
SplineSet
228 340 m 1,0,-1
 200 325 l 0,1,2
 162 304 162 304 141 292 c 0,3,4
 107 271 107 271 92 257 c 1,5,-1
 92 274 l 2,6,7
 94 283 94 283 103 304 c 0,8,9
 106 312 106 312 113 326 c 1,10,11
 103 331 103 331 96 340 c 0,12,13
 87 353 87 353 87 372 c 0,14,15
 87 407 87 407 119 452 c 0,16,17
 153 502 153 502 186 502 c 0,18,19
 201 502 201 502 208 493 c 0,20,21
 215 483 215 483 215 468 c 0,22,23
 215 455 215 455 210 441 c 0,24,25
 206 428 206 428 199 426 c 1,26,27
 195 431 195 431 193 432 c 0,28,29
 183 440 183 440 174 440 c 0,30,31
 158 440 158 440 136 423 c 0,32,33
 113 406 113 406 113 391 c 0,34,35
 113 384 113 384 133 378 c 0,36,37
 153 372 153 372 170 372 c 0,38,39
 185 372 185 372 214 388 c 0,40,-1
 250 408 l 1,41,-1
 228 340 l 1,0,-1
EndSplineSet
Refer: 40 1609 S 1 0 0 1 0 0 2
EndChar

StartChar: arabicalef
Encoding: 1575 1575 11
Width: 637
GlyphClass: 2
Flags: W
AnchorPoint: "ArabicBelow" 348 -116 basechar 0
AnchorPoint: "ArabicAbove" 294 710 basechar 0
LayerCount: 2
Fore
SplineSet
382 2 m 1,0,-1
 335 -49 l 1,1,2
 335 -11 335 -11 326 75 c 0,3,4
 315 185 315 185 299 279 c 0,5,6
 279 398 279 398 255 468 c 1,7,-1
 315 581 l 1,8,9
 345 534 345 534 362 394 c 0,10,11
 374 294 374 294 379 150 c 0,12,13
 382 64 382 64 382 2 c 1,0,-1
EndSplineSet
EndChar

StartChar: beh
Encoding: 1576 1576 12
Width: 637
GlyphClass: 2
Flags: W
AnchorPoint: "ArabicBelow" 358 -246 basechar 0
AnchorPoint: "ArabicAbove" 324 457 basechar 0
LayerCount: 2
Fore
SplineSet
415 -112 m 1,0,-1
 358 -168 l 1,1,-1
 296 -107 l 1,2,-1
 353 -50 l 1,3,-1
 415 -112 l 1,0,-1
EndSplineSet
Refer: 204 1646 S 1 0 0 1 0 0 2
EndChar

StartChar: tehmarbuta
Encoding: 1577 1577 13
Width: 637
GlyphClass: 2
Flags: W
AnchorPoint: "ArabicBelow" 334 -143 basechar 0
AnchorPoint: "ArabicAbove" 313 628 basechar 0
LayerCount: 2
Fore
SplineSet
311 452 m 1,0,-1
 254 395 l 1,1,-1
 193 456 l 1,2,-1
 249 514 l 1,3,-1
 311 452 l 1,0,-1
441 457 m 1,4,-1
 384 400 l 1,5,-1
 322 461 l 1,6,-1
 379 518 l 1,7,-1
 441 457 l 1,4,-1
445 113 m 0,8,9
 445 31 445 31 421 3 c 128,-1,10
 397 -25 397 -25 332 -25 c 0,11,12
 284 -25 284 -25 256 -7 c 0,13,14
 223 14 223 14 223 55 c 0,15,16
 223 91 223 91 241 131 c 0,17,18
 257 164 257 164 285 200 c 0,19,20
 304 225 304 225 329 250 c 1,21,-1
 299 280 l 1,22,-1
 368 350 l 1,23,24
 380 328 380 328 396 292 c 0,25,26
 416 246 416 246 429 203 c 0,27,28
 445 148 445 148 445 113 c 0,8,9
409 118 m 1,29,30
 409 135 409 135 390.5 150.5 c 128,-1,31
 372 166 372 166 361 166 c 0,32,33
 328 166 328 166 306 148 c 0,34,35
 291 138 291 138 274 112 c 1,36,37
 288 101 288 101 305.5 93.5 c 128,-1,38
 323 86 323 86 347 86 c 0,39,40
 369 86 369 86 387 95.5 c 128,-1,41
 405 105 405 105 409 118 c 1,29,30
EndSplineSet
EndChar

StartChar: teh
Encoding: 1578 1578 14
Width: 637
GlyphClass: 2
Flags: W
AnchorPoint: "ArabicBelow" 324 -102 basechar 0
AnchorPoint: "ArabicAbove" 344 505 basechar 0
LayerCount: 2
Fore
SplineSet
347 307 m 5,0,-1
 290 250 l 5,1,-1
 229 312 l 5,2,-1
 286 369 l 5,3,-1
 347 307 l 5,0,-1
477 312 m 5,4,-1
 420 255 l 5,5,-1
 358 316 l 5,6,-1
 415 374 l 5,7,-1
 477 312 l 5,4,-1
EndSplineSet
Refer: 204 1646 N 1 0 0 1 0 0 2
EndChar

StartChar: theh
Encoding: 1579 1579 15
Width: 637
GlyphClass: 2
Flags: W
AnchorPoint: "ArabicBelow" 324 -109 basechar 0
AnchorPoint: "ArabicAbove" 317 573 basechar 0
LayerCount: 2
Fore
SplineSet
325 307 m 5,0,-1
 268 250 l 5,1,-1
 207 312 l 5,2,-1
 264 369 l 5,3,-1
 325 307 l 5,0,-1
455 312 m 5,4,-1
 398 255 l 5,5,-1
 336 316 l 5,6,-1
 393 374 l 5,7,-1
 455 312 l 5,4,-1
383 395 m 5,8,-1
 327 338 l 5,9,-1
 265 400 l 5,10,-1
 322 457 l 5,11,-1
 383 395 l 5,8,-1
EndSplineSet
Refer: 204 1646 S 1 0 0 1 0 0 2
EndChar

StartChar: jeem
Encoding: 1580 1580 16
Width: 637
GlyphClass: 2
Flags: W
AnchorPoint: "ArabicBelow" 250 -451 basechar 0
AnchorPoint: "ArabicAbove" 209 437 basechar 0
LayerCount: 2
Fore
SplineSet
368 -112 m 1,0,-1
 311 -168 l 1,1,-1
 250 -107 l 1,2,-1
 307 -50 l 1,3,-1
 368 -112 l 1,0,-1
EndSplineSet
Refer: 17 1581 S 1 0 0 1 0 0 2
EndChar

StartChar: hah
Encoding: 1581 1581 17
Width: 637
GlyphClass: 2
Flags: W
AnchorPoint: "ArabicBelow" 257 -437 basechar 0
AnchorPoint: "ArabicAbove" 168 437 basechar 0
LayerCount: 2
Fore
SplineSet
291 136 m 1,0,1
 260 164 260 164 234 180 c 0,2,3
 199 203 199 203 174 203 c 0,4,5
 160 203 160 203 143.5 192.5 c 128,-1,6
 127 182 127 182 110 164 c 1,7,-1
 105 171 l 1,8,9
 114 203 114 203 125 235 c 0,10,11
 154 312 154 312 201 312 c 0,12,13
 234 312 234 312 280 271 c 0,14,15
 320 233 320 233 360 196 c 0,16,17
 409 155 409 155 449 155 c 2,18,-1
 534 155 l 1,19,-1
 478 47 l 1,20,-1
 338 47 l 2,21,22
 260 47 260 47 195.5 0.5 c 128,-1,23
 131 -46 131 -46 131 -100 c 0,24,25
 131 -155 131 -155 211.5 -202.5 c 128,-1,26
 292 -250 292 -250 394 -250 c 2,27,-1
 549 -250 l 1,28,29
 490 -303 490 -303 448.5 -332.5 c 128,-1,30
 407 -362 407 -362 384 -362 c 0,31,32
 260 -362 260 -362 179 -306 c 0,33,34
 88 -243 88 -243 88 -130 c 0,35,36
 88 -73 88 -73 120 -8 c 128,-1,37
 152 57 152 57 201 93 c 0,38,39
 212 101 212 101 233 111 c 0,40,41
 258 123 258 123 291 136 c 1,0,1
EndSplineSet
EndChar

StartChar: khah
Encoding: 1582 1582 18
Width: 637
GlyphClass: 2
Flags: W
AnchorPoint: "ArabicBelow" 236 -423 basechar 0
AnchorPoint: "ArabicAbove" 168 614 basechar 0
LayerCount: 2
Fore
SplineSet
238 457 m 1,0,-1
 181 400 l 1,1,-1
 120 461 l 1,2,-1
 177 518 l 1,3,-1
 238 457 l 1,0,-1
EndSplineSet
Refer: 17 1581 S 1 0 0 1 0 0 2
EndChar

StartChar: dal
Encoding: 1583 1583 19
Width: 637
GlyphClass: 2
Flags: W
AnchorPoint: "ArabicBelow" 303 -82 basechar 0
AnchorPoint: "ArabicAbove" 310 526 basechar 0
LayerCount: 2
Fore
SplineSet
468 77 m 0,0,1
 468 42 468 42 461 25 c 0,2,3
 451 0 451 0 422 0 c 2,4,-1
 213 0 l 2,5,6
 189 0 189 0 178 27 c 0,7,8
 169 50 169 50 169 92 c 0,9,10
 169 110 169 110 174.5 132.5 c 128,-1,11
 180 155 180 155 187 172 c 1,12,13
 196 152 196 152 204 142 c 0,14,15
 228 113 228 113 257 113 c 2,16,-1
 392 113 l 2,17,18
 399 113 399 113 406.5 120 c 128,-1,19
 414 127 414 127 414 137 c 0,20,21
 414 165 414 165 381 207 c 0,22,23
 346 250 346 250 294 284 c 1,24,-1
 307 416 l 1,25,26
 308 416 308 416 327 400 c 0,27,28
 350 381 350 381 371 359 c 0,29,30
 400 328 400 328 419 299 c 0,31,32
 444 261 444 261 457 196 c 0,33,34
 468 139 468 139 468 77 c 0,0,1
EndSplineSet
EndChar

StartChar: thal
Encoding: 1584 1584 20
Width: 637
GlyphClass: 2
Flags: W
AnchorPoint: "ArabicBelow" 317 -96 basechar 0
AnchorPoint: "ArabicAbove" 269 655 basechar 0
LayerCount: 2
Fore
SplineSet
331 511 m 1,0,-1
 274 454 l 1,1,-1
 212 515 l 1,2,-1
 270 572 l 1,3,-1
 331 511 l 1,0,-1
EndSplineSet
Refer: 19 1583 S 1 0 0 1 0 0 2
EndChar

StartChar: reh
Encoding: 1585 1585 21
Width: 637
GlyphClass: 2
Flags: W
AnchorPoint: "ArabicBelow" 302 -299 basechar 0
AnchorPoint: "ArabicAbove" 389 416 basechar 0
LayerCount: 2
Fore
SplineSet
260 -249 m 0,0,1
 238 -249 238 -249 207.5 -231 c 128,-1,2
 177 -213 177 -213 159 -192 c 1,3,4
 262 -162 262 -162 348 -82 c 0,5,6
 431 -6 431 -6 431 50 c 0,7,8
 431 77 431 77 396 126 c 0,9,10
 385 142 385 142 362 170 c 1,11,-1
 400 307 l 1,12,13
 403 307 403 307 421 276 c 0,14,15
 443 237 443 237 458 191 c 0,16,17
 478 126 478 126 478 61 c 0,18,19
 478 -1 478 -1 453 -70 c 0,20,21
 425 -146 425 -146 379 -193 c 0,22,23
 326 -249 326 -249 260 -249 c 0,0,1
EndSplineSet
EndChar

StartChar: zain
Encoding: 1586 1586 22
Width: 637
GlyphClass: 2
Flags: W
AnchorPoint: "ArabicBelow" 302 -299 basechar 0
AnchorPoint: "ArabicAbove" 307 532 basechar 0
LayerCount: 2
Fore
SplineSet
373 385 m 1,0,-1
 326 338 l 1,1,-1
 271 394 l 1,2,-1
 318 440 l 1,3,-1
 373 385 l 1,0,-1
EndSplineSet
Refer: 21 1585 S 1 0 0 1 0 0 2
EndChar

StartChar: seen
Encoding: 1587 1587 23
Width: 637
GlyphClass: 2
Flags: W
AnchorPoint: "ArabicBelow" 476 -102 basechar 0
AnchorPoint: "ArabicAbove" 435 375 basechar 0
LayerCount: 2
Fore
SplineSet
370 127 m 4,0,1
 407 127 407 127 432 160 c 4,2,3
 454 188 454 188 469 242 c 5,4,-1
 477 242 l 5,5,6
 490 186 490 186 512 160 c 4,7,8
 536 130 536 130 561 130 c 4,9,10
 584 130 584 130 584 150 c 4,11,12
 584 161 584 161 566 184 c 4,13,14
 560 192 560 192 548 205 c 5,15,-1
 582 299 l 5,16,17
 584 299 584 299 593 282 c 4,18,19
 608 257 608 257 616 224 c 4,20,21
 627 176 627 176 627 118 c 4,22,23
 627 73 627 73 609.5 47 c 132,-1,24
 592 21 592 21 568 21 c 6,25,-1
 560 21 l 6,26,27
 543 21 543 21 523 29 c 4,28,29
 490 43 490 43 470 77 c 5,30,31
 461 58 461 58 438 39 c 4,32,33
 411 16 411 16 387 16 c 6,34,-1
 345 16 l 5,35,-1
 345 -5 l 6,36,37
 345 -74 345 -74 288 -146 c 4,38,39
 255 -188 255 -188 216 -204 c 4,40,41
 187 -215 187 -215 151 -217 c 4,42,43
 88 -219 88 -219 46 -168 c 4,44,45
 10 -126 10 -126 10 -40 c 4,46,47
 10 3 10 3 36 69 c 4,48,49
 58 125 58 125 73 142 c 5,50,-1
 86 142 l 5,51,52
 76 115 76 115 69 86 c 4,53,54
 57 38 57 38 57 13 c 4,55,56
 57 -45 57 -45 100 -81 c 4,57,58
 125 -103 125 -103 172 -104 c 260,59,60
 192 -104 192 -104 216 -96 c 4,61,62
 247 -86 247 -86 276 -59 c 4,63,64
 288 -49 288 -49 300 -23 c 5,65,66
 300 10 300 10 266 60 c 4,67,68
 255 76 255 76 232 102 c 5,69,-1
 282 225 l 5,70,71
 293 191 293 191 319 162 c 4,72,73
 350 127 350 127 370 127 c 4,0,1
EndSplineSet
EndChar

StartChar: sheen
Encoding: 1588 1588 24
Width: 637
GlyphClass: 2
Flags: W
AnchorPoint: "ArabicBelow" 489 -135 basechar 0
AnchorPoint: "ArabicAbove" 428 631 basechar 0
LayerCount: 2
Fore
SplineSet
453 351 m 5,0,-1
 396 294 l 5,1,-1
 335 356 l 5,2,-1
 391 412 l 5,3,-1
 453 351 l 5,0,-1
583 356 m 5,4,-1
 526 299 l 5,5,-1
 464 360 l 5,6,-1
 521 418 l 5,7,-1
 583 356 l 5,4,-1
511 439 m 5,8,-1
 455 382 l 5,9,-1
 393 444 l 5,10,-1
 449 501 l 5,11,-1
 511 439 l 5,8,-1
EndSplineSet
Refer: 23 1587 N 1 0 0 1 0 0 2
EndChar

StartChar: sad
Encoding: 1589 1589 25
Width: 637
GlyphClass: 2
Flags: W
AnchorPoint: "ArabicBelow" 463 -156 basechar 0
AnchorPoint: "ArabicAbove" 405 412 basechar 0
LayerCount: 2
Fore
SplineSet
347 -15 m 21,0,1
 347 -84 347 -84 290 -155 c 4,2,3
 257 -197 257 -197 218 -213 c 4,4,5
 189 -225 189 -225 153 -226 c 4,6,7
 90 -229 90 -229 48 -178 c 4,8,9
 12 -135 12 -135 12 -50 c 4,10,11
 12 -6 12 -6 38 60 c 4,12,13
 60 115 60 115 75 133 c 5,14,-1
 88 133 l 5,15,16
 78 105 78 105 71 76 c 4,17,18
 59 28 59 28 59 3 c 4,19,20
 59 -55 59 -55 102 -91 c 4,21,22
 127 -113 127 -113 174 -113 c 260,23,24
 194 -113 194 -113 219 -105 c 4,25,26
 249 -95 249 -95 278 -69 c 4,27,28
 290 -59 290 -59 302 -33 c 5,29,30
 302 0 302 0 267 51 c 4,31,32
 257 67 257 67 234 92 c 5,33,-1
 284 215 l 5,34,35
 292 189 292 189 321 152 c 4,36,37
 347 118 347 118 372 118 c 4,38,39
 378 117 378 117 405 170 c 4,40,41
 432 221 432 221 468 268 c 4,42,43
 506 320 506 320 534 321 c 4,44,45
 555 323 555 323 570 309 c 4,46,47
 597 283 597 283 608 257 c 4,48,49
 625 212 625 212 625 143 c 4,50,51
 625 90 625 90 619 54 c 4,52,53
 611 -0 611 -0 591 -0 c 6,54,-1
 347 0 l 5,55,-1
 347 -15 l 21,0,1
593 131 m 4,57,58
 593 159 593 159 568 186 c 4,59,60
 545 212 545 212 526 212 c 4,61,62
 501 212 501 212 473 191 c 4,63,64
 439 165 439 165 402 110 c 5,65,-1
 573 110 l 6,66,67
 580 110 580 110 586 115 c 4,68,69
 593 122 593 122 593 131 c 4,57,58
EndSplineSet
EndChar

StartChar: dad
Encoding: 1590 1590 26
Width: 637
GlyphClass: 2
Flags: W
AnchorPoint: "ArabicBelow" 463 -156 basechar 0
AnchorPoint: "ArabicAbove" 384 517 basechar 0
LayerCount: 2
Fore
SplineSet
347 -15 m 21,0,1
 347 -84 347 -84 290 -155 c 4,2,3
 257 -197 257 -197 218 -213 c 4,4,5
 189 -225 189 -225 153 -226 c 4,6,7
 90 -229 90 -229 48 -178 c 4,8,9
 12 -135 12 -135 12 -50 c 4,10,11
 12 -6 12 -6 38 60 c 4,12,13
 60 115 60 115 75 133 c 5,14,-1
 88 133 l 5,15,16
 78 105 78 105 71 76 c 4,17,18
 59 28 59 28 59 3 c 4,19,20
 59 -55 59 -55 102 -91 c 4,21,22
 127 -113 127 -113 174 -113 c 260,23,24
 194 -113 194 -113 219 -105 c 4,25,26
 249 -95 249 -95 278 -69 c 4,27,28
 290 -59 290 -59 302 -33 c 5,29,30
 302 0 302 0 267 51 c 4,31,32
 257 67 257 67 234 92 c 5,33,-1
 284 215 l 5,34,35
 292 189 292 189 321 152 c 4,36,37
 347 118 347 118 372 118 c 4,38,39
 378 117 378 117 405 170 c 4,40,41
 432 221 432 221 468 268 c 4,42,43
 506 320 506 320 534 321 c 4,44,45
 555 323 555 323 570 309 c 4,46,47
 597 283 597 283 608 257 c 4,48,49
 625 212 625 212 625 143 c 4,50,51
 625 90 625 90 619 54 c 4,52,53
 611 -0 611 -0 591 -0 c 6,54,-1
 347 0 l 5,55,-1
 347 -15 l 21,0,1
593 131 m 4,56,57
 593 159 593 159 568 186 c 4,58,59
 545 212 545 212 526 212 c 4,60,61
 501 212 501 212 473 191 c 4,62,63
 439 165 439 165 402 110 c 5,64,-1
 573 110 l 6,65,66
 580 110 580 110 586 115 c 4,67,68
 593 122 593 122 593 131 c 4,56,57
448 376 m 1,69,-1
 391 319 l 1,70,-1
 329 381 l 1,71,-1
 386 437 l 1,72,-1
 448 376 l 1,69,-1
EndSplineSet
EndChar

StartChar: tah
Encoding: 1591 1591 27
Width: 637
GlyphClass: 2
Flags: W
AnchorPoint: "ArabicBelow" 390 -123 basechar 0
AnchorPoint: "ArabicAbove" 445 505 basechar 0
LayerCount: 2
Fore
SplineSet
579 175 m 4,0,1
 579 96 579 96 567 57 c 4,2,3
 549 0 549 0 502 0 c 6,4,-1
 154 0 l 6,5,6
 118 0 118 0 93 38 c 4,7,8
 76 64 76 64 65 107 c 4,9,10
 58 145 l 5,11,12
 72 134 72 134 80 129 c 4,13,14
 109 113 109 113 131 113 c 6,15,-1
 176 113 l 6,16,17
 196 113 196 113 214 126 c 4,18,19
 227 136 227 136 241 155 c 5,20,21
 233 241 233 241 215 344 c 4,22,23
 195 461 195 461 178 493 c 5,24,-1
 233 630 l 5,25,26
 252 593 252 593 268 498 c 4,27,28
 280 424 280 424 288 324 c 4,29,30
 295 241 295 241 295 201 c 5,31,32
 307 217 307 217 320 234 c 4,33,34
 351 272 351 272 379 295 c 4,35,36
 420 328 420 328 452 328 c 4,37,38
 496 328 496 328 535 286 c 4,39,40
 579 238 579 238 579 175 c 4,0,1
536 138 m 5,41,42
 523 168 523 168 489 191 c 4,43,44
 459 212 459 212 432 212 c 4,45,46
 408 212 408 212 377 195 c 4,47,48
 331 170 331 170 275 113 c 5,49,-1
 486 113 l 6,50,51
 502 113 502 113 515 119.5 c 132,-1,52
 528 126 528 126 536 138 c 5,41,42
EndSplineSet
EndChar

StartChar: zah
Encoding: 1592 1592 28
Width: 637
GlyphClass: 2
Flags: W
AnchorPoint: "ArabicBelow" 329 -89 basechar 0
AnchorPoint: "ArabicAbove" 418 573 basechar 0
LayerCount: 2
Fore
SplineSet
450 427 m 1,0,-1
 393 370 l 1,1,-1
 332 432 l 1,2,-1
 389 489 l 1,3,-1
 450 427 l 1,0,-1
EndSplineSet
Refer: 27 1591 S 1 0 0 1 0 0 2
EndChar

StartChar: ain
Encoding: 1593 1593 29
Width: 637
GlyphClass: 2
Flags: W
AnchorPoint: "ArabicBelow" 223 -430 basechar 0
AnchorPoint: "ArabicAbove" 182 471 basechar 0
LayerCount: 2
Fore
SplineSet
168 89 m 5,0,1
 136 115 136 115 121 135 c 4,2,3
 94 168 94 168 94 204 c 4,4,5
 94 263 94 263 140 317 c 4,6,7
 181 367 181 367 222 367 c 4,8,9
 259 367 259 367 292 345 c 132,-1,10
 325 323 325 323 356 274 c 5,11,-1
 354 265 l 5,12,13
 320 275 l 4,14,15
 284 284 284 284 269 284 c 4,16,17
 228 284 228 284 187 262 c 4,18,19
 155 243 155 243 135 220 c 5,20,21
 158 199 158 199 193 180 c 4,22,23
 237 158 237 158 267 158 c 4,24,25
 279 158 279 158 288 162 c 6,26,-1
 445 220 l 5,27,-1
 412 105 l 5,28,29
 411 105 411 105 382 95 c 4,30,31
 344 82 344 82 314 70 c 4,32,33
 271 52 271 52 243 37 c 4,34,35
 205 16 205 16 171 -22 c 4,36,37
 131 -67 131 -67 131 -101 c 4,38,39
 131 -150 131 -150 214 -199 c 4,40,41
 299 -250 299 -250 393 -250 c 6,42,-1
 548 -250 l 5,43,44
 488 -302 488 -302 448 -331 c 4,45,46
 404 -361 404 -361 383 -361 c 4,47,48
 316 -361 316 -361 251 -333 c 4,49,50
 179 -303 179 -303 137 -250 c 4,51,52
 89 -192 89 -192 89 -116 c 4,53,54
 89 -64 89 -64 113 -5 c 4,55,56
 135 49 135 49 168 89 c 5,0,1
EndSplineSet
EndChar

StartChar: ghain
Encoding: 1594 1594 30
Width: 637
GlyphClass: 2
Flags: W
AnchorPoint: "ArabicBelow" 237 -430 basechar 0
AnchorPoint: "ArabicAbove" 175 608 basechar 0
LayerCount: 2
Fore
SplineSet
242 482 m 1,0,-1
 185 426 l 1,1,-1
 123 487 l 1,2,-1
 180 544 l 1,3,-1
 242 482 l 1,0,-1
EndSplineSet
Refer: 29 1593 S 1 0 0 1 0 0 2
EndChar

StartChar: tatweel
Encoding: 1600 1600 31
Width: 637
GlyphClass: 2
Flags: W
LayerCount: 2
Fore
SplineSet
645 1 m 1,0,-1
 -9 0 l 1,1,-1
 -9 113 l 1,2,-1
 645 113 l 1,3,-1
 645 1 l 1,0,-1
EndSplineSet
EndChar

StartChar: feh
Encoding: 1601 1601 32
Width: 637
GlyphClass: 2
Flags: W
AnchorPoint: "ArabicBelow" 311 -96 basechar 0
AnchorPoint: "ArabicAbove" 399 573 basechar 0
LayerCount: 2
Fore
SplineSet
469 436 m 1,0,-1
 412 378 l 1,1,-1
 350 440 l 1,2,-1
 407 497 l 1,3,-1
 469 436 l 1,0,-1
571 174 m 1,4,5
 558 208 558 208 536 231 c 128,-1,6
 514 254 514 254 496 254 c 0,7,8
 489 254 489 254 479 246 c 128,-1,9
 469 238 469 238 461 225 c 1,10,11
 475 217 475 217 525 194 c 0,12,13
 557 180 557 180 571 174 c 1,4,5
138 0 m 2,14,15
 75 0 75 0 44 28 c 0,16,17
 9 59 9 59 9 126 c 0,18,19
 9 162 9 162 36 222.5 c 128,-1,20
 63 283 63 283 89 306 c 1,21,-1
 112 306 l 1,22,23
 97 280 97 280 90 265 c 0,24,25
 68 216 68 216 68 187 c 0,26,27
 68 153 68 153 85 136 c 0,28,29
 109 113 109 113 167 113 c 2,30,-1
 504 113 l 1,31,32
 485 121 485 121 465 129 c 0,33,34
 422 150 422 150 422 170 c 0,35,36
 422 186 422 186 429 230 c 0,37,38
 439 288 439 288 455 323 c 0,39,40
 477 370 477 370 507 370 c 0,41,42
 549 370 549 370 587 298 c 0,43,44
 628 221 628 221 628 122 c 2,45,-1
 628 40 l 2,46,47
 628 19 628 19 616.5 9.5 c 128,-1,48
 605 0 605 0 578 0 c 2,49,-1
 138 0 l 2,14,15
EndSplineSet
EndChar

StartChar: qaf
Encoding: 1602 1602 33
Width: 637
GlyphClass: 2
Flags: W
AnchorPoint: "ArabicBelow" 228 -299 basechar 0
AnchorPoint: "ArabicAbove" 301 553 basechar 0
LayerCount: 2
Fore
SplineSet
431 400 m 1,0,-1
 374 344 l 1,1,-1
 313 405 l 1,2,-1
 369 462 l 1,3,-1
 431 400 l 1,0,-1
301 395 m 1,4,-1
 244 338 l 1,5,-1
 183 400 l 1,6,-1
 240 457 l 1,7,-1
 301 395 l 1,4,-1
553 -5 m 0,8,9
 553 -64 553 -64 495 -114 c 0,10,11
 446 -156 446 -156 369 -184 c 0,12,13
 301 -208 301 -208 253 -208 c 0,14,15
 163 -208 163 -208 120 -157 c 0,16,17
 84 -114 84 -114 84 -36 c 0,18,19
 84 7 84 7 111 76 c 0,20,21
 133 134 133 134 148 151 c 1,22,-1
 161 151 l 1,23,24
 155 135 155 135 146 95 c 0,25,26
 136 47 136 47 136 22 c 0,27,28
 136 -45 136 -45 177 -72 c 0,29,30
 210 -94 210 -94 273 -94 c 0,31,32
 350 -94 350 -94 425 -55 c 0,33,34
 482 -24 482 -24 514 14 c 1,35,36
 503 30 503 30 494.5 34 c 128,-1,37
 486 38 486 38 474 38 c 2,38,-1
 362 38 l 2,39,40
 343 38 343 38 330 64 c 0,41,42
 319 87 319 87 319 111 c 0,43,44
 319 163 319 163 342 228 c 0,45,46
 372 309 372 309 413 309 c 0,47,48
 428 309 428 309 441 303 c 0,49,50
 465 291 465 291 484 266 c 0,51,52
 509 233 509 233 528 175 c 0,53,54
 540 139 540 139 547 78 c 0,55,56
 553 28 553 28 553 -5 c 0,8,9
455 150 m 1,57,58
 443 168 443 168 430 180 c 0,59,60
 416 193 416 193 404 193 c 0,61,62
 393 193 393 193 382.5 182.5 c 128,-1,63
 372 172 372 172 363 156 c 1,64,65
 374 150 374 150 388 150 c 2,66,-1
 455 150 l 1,57,58
EndSplineSet
EndChar

StartChar: arabickaf
Encoding: 1603 1603 34
Width: 637
GlyphClass: 2
Flags: W
AnchorPoint: "ArabicBelow" 311 -89 basechar 0
AnchorPoint: "ArabicAbove" 311 567 basechar 0
LayerCount: 2
Fore
SplineSet
528 113 m 1,0,1
 518 200 518 200 495 317 c 0,2,3
 468 448 468 448 447 500 c 1,4,-1
 512 617 l 1,5,6
 530 591 530 591 549 490 c 0,7,8
 566 404 566 404 578 290.5 c 128,-1,9
 590 177 590 177 590 106 c 2,10,-1
 590 0 l 1,11,-1
 148 0 l 2,12,13
 107 0 107 0 81 22 c 0,14,15
 48 49 48 49 48 112 c 0,16,17
 48 163 48 163 63 210 c 128,-1,18
 78 257 78 257 106 295 c 1,19,-1
 130 295 l 1,20,21
 119 274 119 274 114 259 c 0,22,23
 98 217 98 217 98 184 c 0,24,25
 98 154 98 154 117 134 c 0,26,27
 139 113 139 113 181 113 c 2,28,-1
 528 113 l 1,0,1
335 287 m 1,29,30
 329 287 329 287 321 285.5 c 128,-1,31
 313 284 313 284 309 284 c 0,32,33
 288 284 288 284 275 296 c 128,-1,34
 262 308 262 308 262 325 c 0,35,36
 262 338 262 338 264.5 347.5 c 128,-1,37
 267 357 267 357 278 377 c 0,38,39
 293 403 293 403 320 425 c 0,40,41
 351 452 351 452 376 452 c 1,42,-1
 362 391 l 1,43,44
 338 385 338 385 326 381 c 0,45,46
 292 367 292 367 292 353 c 0,47,48
 292 345 292 345 303 341 c 0,49,50
 309 340 309 340 315 340 c 0,51,52
 319 340 319 340 329.5 340.5 c 128,-1,53
 340 341 340 341 346 341 c 0,54,55
 362 341 362 341 370.5 337.5 c 128,-1,56
 379 334 379 334 379 323 c 0,57,58
 379 288 379 288 365 261 c 0,59,60
 345 221 345 221 305 221 c 2,61,-1
 232 221 l 1,62,63
 271 240 271 240 280 245 c 0,64,65
 322 268 322 268 335 287 c 1,29,30
EndSplineSet
EndChar

StartChar: lam
Encoding: 1604 1604 35
Width: 637
GlyphClass: 2
Flags: W
AnchorPoint: "ArabicBelow" 253 -299 basechar 0
AnchorPoint: "ArabicAbove" 429 730 basechar 0
LayerCount: 2
Fore
SplineSet
483 -27 m 1,0,1
 483 29 483 29 466.5 128.5 c 128,-1,2
 450 228 450 228 429 324 c 0,3,4
 409 407 409 407 392 466 c 1,5,-1
 450 591 l 1,6,7
 470 547 470 547 488 443 c 0,8,9
 504 350 504 350 515.5 233.5 c 128,-1,10
 527 117 527 117 527 36 c 2,11,-1
 527 -31 l 2,12,13
 527 -105 527 -105 443 -160.5 c 128,-1,14
 359 -216 359 -216 252 -216 c 0,15,16
 189 -216 189 -216 151 -179 c 0,17,18
 110 -138 110 -138 110 -62 c 0,19,20
 110 -19 110 -19 123.5 34.5 c 128,-1,21
 137 88 137 88 161 122 c 1,22,-1
 176 122 l 1,23,24
 166 89 166 89 160.5 62 c 128,-1,25
 155 35 155 35 155 13 c 0,26,27
 155 -56 155 -56 199 -84 c 0,28,29
 231 -104 231 -104 287 -104 c 0,30,31
 332 -104 332 -104 394.5 -79.5 c 128,-1,32
 457 -55 457 -55 483 -27 c 1,0,1
EndSplineSet
EndChar

StartChar: meem
Encoding: 1605 1605 36
Width: 637
GlyphClass: 2
Flags: W
AnchorPoint: "ArabicBelow" 249 -369 basechar 0
AnchorPoint: "ArabicAbove" 276 478 basechar 0
LayerCount: 2
Fore
SplineSet
238 45 m 5,0,1
 255 -34 l 4,2,3
 267 -92 267 -92 274 -135 c 4,4,5
 283 -197 283 -197 283 -236 c 4,6,7
 283 -255 283 -255 269 -286 c 4,8,9
 265 -295 265 -295 255 -312 c 5,10,-1
 241 -312 l 5,11,12
 241 -237 241 -237 221 -158 c 4,13,14
 214 -131 214 -131 183 -36 c 4,15,16
 163 27 163 27 163 55 c 4,17,18
 163 88 163 88 185 124 c 4,19,20
 210 163 210 163 247 181 c 4,21,22
 266 190 266 190 289 196 c 4,23,24
 306 199 306 199 323 203 c 5,25,26
 309 215 309 215 304 218 c 4,27,28
 292 226 292 226 283 226 c 4,29,30
 259 226 259 226 231 211 c 4,31,32
 222 206 222 206 208 196 c 5,33,-1
 203 211 l 5,34,35
 208 229 208 229 214 247 c 4,36,37
 228 290 228 290 245 316 c 4,38,39
 270 353 270 353 296 353 c 4,40,41
 320 353 320 353 354 321 c 4,42,43
 383 290 383 290 413 259 c 4,44,45
 449 225 449 225 474 220 c 5,46,-1
 429 101 l 5,47,48
 404 101 404 101 357 95 c 132,-1,49
 310 89 310 89 287 80 c 4,50,51
 259 69 259 69 249 61.5 c 132,-1,52
 239 54 239 54 238 45 c 5,0,1
EndSplineSet
EndChar

StartChar: noon
Encoding: 1606 1606 37
Width: 637
GlyphClass: 2
Flags: W
AnchorPoint: "ArabicBelow" 288 -225 basechar 0
AnchorPoint: "ArabicAbove" 288 485 basechar 0
LayerCount: 2
Fore
SplineSet
371 307 m 1,0,-1
 314 250 l 1,1,-1
 253 312 l 1,2,-1
 309 369 l 1,3,-1
 371 307 l 1,0,-1
517 69 m 1,4,5
 505 101 505 101 484.5 137 c 128,-1,6
 464 173 464 173 451 187 c 1,7,-1
 485 299 l 1,8,9
 486 299 486 299 502 267 c 0,10,11
 522 228 522 228 534 191 c 0,12,13
 551 137 551 137 551 94 c 2,14,-1
 551 50 l 2,15,16
 551 1 551 1 495 -40 c 0,17,18
 447 -74 447 -74 373 -95 c 0,19,20
 310 -113 310 -113 259 -113 c 0,21,22
 169 -113 169 -113 125 -69 c 0,23,24
 86 -31 86 -31 86 33 c 0,25,26
 86 103 86 103 110 174 c 0,27,28
 128 226 128 226 144 246 c 1,29,-1
 158 246 l 1,30,31
 150 233 150 233 141.5 188 c 128,-1,32
 133 143 133 143 133 116 c 0,33,34
 133 50 133 50 178 22 c 0,35,36
 214 0 214 0 280 0 c 0,37,38
 355 0 355 0 425 23 c 0,39,40
 484 42 484 42 517 69 c 1,4,5
EndSplineSet
EndChar

StartChar: heh
Encoding: 1607 1607 38
Width: 637
GlyphClass: 2
Flags: W
AnchorPoint: "ArabicBelow" 315 -102 basechar 0
AnchorPoint: "ArabicAbove" 335 471 basechar 0
LayerCount: 2
Fore
SplineSet
430 113 m 0,0,1
 430 31 430 31 406 3 c 128,-1,2
 382 -25 382 -25 317 -25 c 0,3,4
 269 -25 269 -25 241 -7 c 0,5,6
 208 14 208 14 208 55 c 0,7,8
 208 91 208 91 226 131 c 0,9,10
 242 164 242 164 270 200 c 0,11,12
 288 225 288 225 314 250 c 1,13,-1
 284 280 l 1,14,-1
 354 350 l 1,15,16
 366 328 366 328 381 292 c 0,17,18
 401 246 401 246 414 203 c 0,19,20
 430 148 430 148 430 113 c 0,0,1
395 118 m 1,21,22
 395 135 395 135 376.5 150.5 c 128,-1,23
 358 166 358 166 346 166 c 0,24,25
 313 166 313 166 291 148 c 0,26,27
 276 138 276 138 259 112 c 1,28,29
 272 101 272 101 290 93.5 c 128,-1,30
 308 86 308 86 333 86 c 0,31,32
 354 86 354 86 372 95.5 c 128,-1,33
 390 105 390 105 395 118 c 1,21,22
EndSplineSet
EndChar

StartChar: waw
Encoding: 1608 1608 39
Width: 637
GlyphClass: 2
Flags: W
AnchorPoint: "ArabicBelow" 313 -299 basechar 0
AnchorPoint: "ArabicAbove" 345 457 basechar 0
LayerCount: 2
Fore
SplineSet
426 35 m 1,0,-1
 312 35 l 2,1,2
 257 35 257 35 257 127 c 0,3,4
 257 183 257 183 278 242 c 0,5,6
 308 322 308 322 357 322 c 0,7,8
 403 322 403 322 436 249 c 0,9,10
 467 181 467 181 467 105 c 2,11,-1
 467 55 l 2,12,13
 467 -60 467 -60 417 -141 c 0,14,15
 360 -234 360 -234 263 -234 c 0,16,17
 242 -234 242 -234 215 -217.5 c 128,-1,18
 188 -201 188 -201 170 -179 c 1,19,20
 263 -151 263 -151 338 -91 c 0,21,22
 418 -27 418 -27 426 35 c 1,0,-1
408 147 m 1,23,24
 396 172 396 172 379 189 c 0,25,26
 361 209 361 209 345 209 c 0,27,28
 328 209 328 209 313 193 c 0,29,30
 302 180 302 180 292 157 c 1,31,32
 293 154 293 154 298 150.5 c 128,-1,33
 303 147 303 147 311 147 c 2,34,-1
 408 147 l 1,23,24
EndSplineSet
EndChar

StartChar: alefmaksura
Encoding: 1609 1609 40
Width: 637
GlyphClass: 2
Flags: W
AnchorPoint: "ArabicBelow" 255 -184 basechar 0
AnchorPoint: "ArabicAbove" 255 451 basechar 0
LayerCount: 2
Fore
SplineSet
371 189 m 1,0,1
 385 181 385 181 439 167 c 0,2,3
 525 145 525 145 525 106 c 2,4,-1
 525 60 l 2,5,6
 525 -6 525 -6 468 -50 c 0,7,8
 424 -86 424 -86 348 -105 c 0,9,10
 288 -120 288 -120 234 -120 c 0,11,12
 140 -120 140 -120 102 -82 c 0,13,14
 66 -47 66 -47 66 36 c 0,15,16
 66 77 66 77 84.5 143 c 128,-1,17
 103 209 103 209 124 239 c 1,18,-1
 137 239 l 1,19,20
 132 223 132 223 123 183 c 0,21,22
 113 135 113 135 113 109 c 0,23,24
 113 43 113 43 156 15 c 0,25,26
 190 -6 190 -6 255 -6 c 0,27,28
 322 -6 322 -6 385 11 c 0,29,30
 432 25 432 25 471 47 c 1,31,32
 454 55 454 55 399 68 c 0,33,34
 315 90 315 90 315 113 c 0,35,36
 315 155 315 155 327 201 c 0,37,38
 339 243 339 243 361.5 291.5 c 128,-1,39
 384 340 384 340 422 382 c 0,40,41
 469 435 469 435 508 435 c 0,42,43
 538 435 538 435 554 423 c 0,44,45
 571 408 571 408 571 378 c 0,46,47
 571 357 571 357 562 315 c 0,48,49
 550 267 550 267 540 259 c 1,50,51
 534 277 534 277 530 295 c 0,52,53
 520 320 520 320 496 320 c 256,54,55
 472 320 472 320 442.5 295 c 128,-1,56
 413 270 413 270 395 240 c 0,57,58
 385 224 385 224 382 217 c 0,59,60
 375 202 375 202 371 189 c 1,0,1
EndSplineSet
EndChar

StartChar: yeh
Encoding: 1610 1610 41
Width: 637
GlyphClass: 2
Flags: W
AnchorPoint: "ArabicBelow" 270 -337 basechar 0
AnchorPoint: "ArabicAbove" 255 430 basechar 0
LayerCount: 2
Fore
SplineSet
255 -217 m 1,0,-1
 198 -274 l 1,1,-1
 136 -212 l 1,2,-1
 193 -155 l 1,3,-1
 255 -217 l 1,0,-1
384 -212 m 1,4,-1
 327 -269 l 1,5,-1
 265 -207 l 1,6,-1
 322 -150 l 1,7,-1
 384 -212 l 1,4,-1
EndSplineSet
Refer: 40 1609 N 1 0 0 1 0 0 2
EndChar

StartChar: fathatan
Encoding: 1611 1611 42
Width: 0
VWidth: 1120
GlyphClass: 4
Flags: W
AnchorPoint: "ArabicAboveLigature" 117 697 mark 0
AnchorPoint: "ArabicAbove" 117 697 mark 0
LayerCount: 2
Fore
SplineSet
241 965 m 1,0,1
 226 933 226 933 220 923 c 0,2,3
 205 903 205 903 182 893 c 2,4,-1
 -13 807 l 1,5,6
 -1 837 -1 837 9 850 c 0,7,8
 23 871 23 871 46 882 c 2,9,-1
 241 965 l 1,0,1
236 855 m 1,10,11
 224 826 224 826 214 814 c 0,12,13
 200 793 200 793 176 783 c 2,14,-1
 -17 696 l 1,15,16
 -6 725 -6 725 4 739 c 0,17,18
 19 760 19 760 42 771 c 2,19,-1
 236 855 l 1,10,11
EndSplineSet
EndChar

StartChar: dammatan
Encoding: 1612 1612 43
Width: 0
VWidth: 1398
GlyphClass: 4
Flags: W
AnchorPoint: "ArabicAboveLigature" 140.567 673.356 mark 0
AnchorPoint: "ArabicAbove" 140.567 673.356 mark 0
LayerCount: 2
Fore
SplineSet
230 764 m 0,0,1
 230 751 230 751 227 743 c 128,-1,2
 224 735 224 735 216 735 c 0,3,4
 213 735 213 735 206.5 738.5 c 128,-1,5
 200 742 200 742 193 748 c 2,6,-1
 180 759 l 1,7,-1
 168 768 l 1,8,9
 146 747 146 747 124.5 729 c 128,-1,10
 103 711 103 711 84 699 c 128,-1,11
 65 687 65 687 48.5 680.5 c 128,-1,12
 32 674 32 674 20 674 c 0,13,14
 14 674 14 674 11 676 c 128,-1,15
 8 678 8 678 8 680.5 c 128,-1,16
 8 683 8 683 12 691 c 128,-1,17
 16 699 16 699 21 709.5 c 128,-1,18
 26 720 26 720 30 732.5 c 128,-1,19
 34 745 34 745 34 755 c 0,20,21
 34 760 34 760 33 767 c 128,-1,22
 32 774 32 774 29 779.5 c 128,-1,23
 26 785 26 785 20.5 788 c 128,-1,24
 15 791 15 791 7 791 c 0,25,26
 -4 791 -4 791 -9.5 784.5 c 128,-1,27
 -15 778 -15 778 -18.5 769.5 c 128,-1,28
 -22 761 -22 761 -23 754 c 128,-1,29
 -24 747 -24 747 -26 747 c 0,30,31
 -30 747 -30 747 -32 750 c 128,-1,32
 -34 753 -34 753 -34 759 c 0,33,34
 -34 770 -34 770 -31.5 786 c 128,-1,35
 -29 802 -29 802 -24 817 c 128,-1,36
 -19 832 -19 832 -9.5 843 c 128,-1,37
 -0 854 -0 854 14 854 c 0,38,39
 36 854 36 854 47 843 c 128,-1,40
 58 832 58 832 63 808 c 0,41,42
 65 794 65 794 64.5 771 c 128,-1,43
 64 748 64 748 63 731 c 1,44,45
 84 738 84 738 104 754 c 128,-1,46
 124 770 124 770 140 787 c 1,47,48
 133 793 133 793 125.5 797.5 c 128,-1,49
 118 802 118 802 111 808.5 c 128,-1,50
 104 815 104 815 100 824 c 128,-1,51
 96 833 96 833 96 847 c 0,52,53
 96 864 96 864 102 881.5 c 128,-1,54
 108 899 108 899 119 913 c 128,-1,55
 130 927 130 927 145 936 c 128,-1,56
 160 945 160 945 178 945 c 0,57,58
 189 945 189 945 197.5 939.5 c 128,-1,59
 206 934 206 934 212 926.5 c 128,-1,60
 218 919 218 919 221 909 c 128,-1,61
 224 899 224 899 224 890 c 0,62,63
 224 882 224 882 222 873 c 128,-1,64
 220 864 220 864 216.5 855 c 128,-1,65
 213 846 213 846 209 836.5 c 128,-1,66
 205 827 205 827 202 820 c 1,67,68
 215 808 215 808 222.5 796 c 128,-1,69
 230 784 230 784 230 764 c 0,0,1
172 842 m 1,70,71
 177 851 177 851 177.5 861 c 128,-1,72
 178 871 178 871 174.5 879 c 128,-1,73
 171 887 171 887 164 892.5 c 128,-1,74
 157 898 157 898 147 898 c 0,75,76
 142 898 142 898 138 894 c 128,-1,77
 134 890 134 890 134 884 c 0,78,79
 134 875 134 875 142.5 865.5 c 128,-1,80
 151 856 151 856 172 842 c 1,70,71
EndSplineSet
EndChar

StartChar: kasratan
Encoding: 1613 1613 44
Width: 0
VWidth: 1732
GlyphClass: 4
Flags: W
AnchorPoint: "ArabicBelowLigature" 117 -313 mark 0
AnchorPoint: "ArabicBelow" 117 -313 mark 0
LayerCount: 2
Fore
SplineSet
240 -259 m 1,0,1
 225 -291 225 -291 218 -302 c 0,2,3
 204 -321 204 -321 181 -332 c 2,4,-1
 -15 -417 l 1,5,6
 2 -380 2 -380 14 -365.5 c 128,-1,7
 26 -351 26 -351 45 -344 c 2,8,-1
 240 -259 l 1,0,1
235 -370 m 1,9,10
 223 -398 223 -398 214 -411 c 0,11,12
 199 -432 199 -432 176 -442 c 2,13,-1
 -18 -528 l 1,14,15
 -7 -500 -7 -500 3 -486 c 0,16,17
 18 -464 18 -464 41 -454 c 2,18,-1
 235 -370 l 1,9,10
EndSplineSet
EndChar

StartChar: fathah
Encoding: 1614 1614 45
Width: 0
VWidth: 1144
GlyphClass: 4
Flags: W
AnchorPoint: "ArabicAboveLigature" 149.818 724.273 mark 0
AnchorPoint: "ArabicAbove" 149.727 724.455 mark 0
LayerCount: 2
Fore
SplineSet
262 862 m 1,0,1
 246 826 246 826 233.5 812 c 128,-1,2
 221 798 221 798 203 790 c 2,3,-1
 9 705 l 1,4,5
 21 734 21 734 29 747 c 0,6,7
 45 769 45 769 68 779 c 2,8,-1
 262 862 l 1,0,1
EndSplineSet
EndChar

StartChar: dammah
Encoding: 1615 1615 46
Width: 0
VWidth: 1398
GlyphClass: 4
Flags: W
AnchorPoint: "ArabicAboveLigature" 123 676 mark 0
AnchorPoint: "ArabicAbove" 123 676 mark 0
LayerCount: 2
Fore
SplineSet
194 800 m 0,0,1
 194 796 194 796 192.5 788.5 c 128,-1,2
 191 781 191 781 188 772 c 0,3,4
 187 760 187 760 186 751 c 128,-1,5
 185 742 185 742 183 742 c 0,6,7
 172 742 172 742 158 752 c 128,-1,8
 144 762 144 762 130 775 c 1,9,10
 94 727 94 727 63.5 703.5 c 128,-1,11
 33 680 33 680 10 680 c 0,12,13
 0 680 0 680 -12.5 683.5 c 128,-1,14
 -25 687 -25 687 -34 691 c 1,15,16
 -18 699 -18 699 0.5 711 c 128,-1,17
 19 723 19 723 37 736.5 c 128,-1,18
 55 750 55 750 71.5 764.5 c 128,-1,19
 88 779 88 779 99 796 c 1,20,21
 81 808 81 808 71.5 821 c 128,-1,22
 62 834 62 834 62 852 c 0,23,24
 62 867 62 867 68.5 886.5 c 128,-1,25
 75 906 75 906 85.5 923 c 128,-1,26
 96 940 96 940 110 952 c 128,-1,27
 124 964 124 964 138 964 c 0,28,29
 151 964 151 964 159.5 959 c 128,-1,30
 168 954 168 954 173.5 945.5 c 128,-1,31
 179 937 179 937 181.5 925.5 c 128,-1,32
 184 914 184 914 184 902 c 0,33,34
 184 880 184 880 178 861.5 c 128,-1,35
 172 843 172 843 164 826 c 1,36,37
 167 823 167 823 172.5 819 c 128,-1,38
 178 815 178 815 183 811 c 2,39,-1
 191 804 l 2,40,41
 194 802 194 802 194 800 c 0,0,1
142 871 m 0,42,43
 142 884 142 884 132 893.5 c 128,-1,44
 122 903 122 903 109 903 c 0,45,46
 105 903 105 903 102 900 c 128,-1,47
 99 897 99 897 99 894 c 0,48,49
 99 888 99 888 107.5 875 c 128,-1,50
 116 862 116 862 133 848 c 1,51,52
 136 854 136 854 139 859 c 128,-1,53
 142 864 142 864 142 871 c 0,42,43
EndSplineSet
EndChar

StartChar: kasrah
Encoding: 1616 1616 47
Width: 0
VWidth: 1746
GlyphClass: 4
Flags: W
AnchorPoint: "ArabicBelowLigature" 131 -389 mark 0
AnchorPoint: "ArabicBelow" 131 -389 mark 0
LayerCount: 2
Fore
SplineSet
241 -342 m 1,0,1
 225 -379 225 -379 212.5 -392.5 c 128,-1,2
 200 -406 200 -406 181 -415 c 2,3,-1
 -13 -499 l 1,4,5
 -1 -470 -1 -470 8 -458 c 0,6,7
 23 -436 23 -436 46 -426 c 2,8,-1
 241 -342 l 1,0,1
EndSplineSet
EndChar

StartChar: shaddah
Encoding: 1617 1617 48
Width: 0
VWidth: 1130
GlyphClass: 4
Flags: W
AnchorPoint: "ArabicAboveLigature" 134.25 695.5 mark 0
AnchorPoint: "ArabicAbove" 134.25 695.5 mark 0
LayerCount: 2
Fore
SplineSet
247 859 m 0,0,1
 247 750 247 750 173 750 c 0,2,3
 158 750 158 750 149 752.5 c 128,-1,4
 140 755 140 755 126 764 c 1,5,6
 121 740 121 740 98 720.5 c 128,-1,7
 75 701 75 701 48 701 c 256,8,9
 20 701 20 701 6 717 c 128,-1,10
 -8 733 -8 733 -8 770 c 0,11,12
 -8 784 -8 784 -4.5 804.5 c 128,-1,13
 -1 825 -1 825 4 841 c 1,14,-1
 21 843 l 1,15,16
 21 803 21 803 30 785.5 c 128,-1,17
 39 768 39 768 56 768 c 0,18,19
 81 768 81 768 96 796.5 c 128,-1,20
 111 825 111 825 116 882 c 1,21,-1
 129 886 l 1,22,23
 134 864 134 864 139 843 c 0,24,25
 148 817 148 817 173 817 c 0,26,27
 209 817 209 817 216 861 c 0,28,29
 218 875 218 875 218 912 c 1,30,-1
 235 919 l 1,31,32
 238 907 238 907 242.5 891 c 128,-1,33
 247 875 247 875 247 859 c 0,0,1
EndSplineSet
EndChar

StartChar: sukun
Encoding: 1618 1618 49
Width: 0
VWidth: 1125
GlyphClass: 4
Flags: W
AnchorPoint: "ArabicAboveLigature" 98 662 mark 0
AnchorPoint: "ArabicAbove" 98 662 mark 0
LayerCount: 2
Fore
SplineSet
199 817 m 0,0,1
 199 709 199 709 97 709 c 0,2,3
 59 709 59 709 36.5 728.5 c 128,-1,4
 14 748 14 748 14 782 c 0,5,6
 14 837 14 837 44 884.5 c 128,-1,7
 74 932 74 932 118 932 c 0,8,9
 152 932 152 932 175.5 897.5 c 128,-1,10
 199 863 199 863 199 817 c 0,0,1
168 804 m 0,11,12
 168 825 168 825 148 849 c 0,13,14
 125 877 125 877 96 877 c 0,15,16
 78 877 78 877 60 859 c 128,-1,17
 42 841 42 841 42 818 c 0,18,19
 42 770 42 770 112 770 c 0,20,21
 137 770 137 770 152.5 779.5 c 128,-1,22
 168 789 168 789 168 804 c 0,11,12
EndSplineSet
EndChar

StartChar: arabicindicdigitzero
Encoding: 1632 1632 50
Width: 637
GlyphClass: 2
Flags: W
LayerCount: 2
Fore
SplineSet
388 218 m 5,0,1
 377 199 377 199 366 169 c 132,-1,2
 355 139 355 139 346 112 c 5,3,4
 317 127 317 127 291 147 c 4,5,6
 270 163 270 163 249 183 c 5,7,8
 254 203 254 203 265.5 232.5 c 132,-1,9
 277 262 277 262 293 291 c 5,10,11
 316 267 316 267 340 248.5 c 132,-1,12
 364 230 364 230 388 218 c 5,0,1
EndSplineSet
EndChar

StartChar: arabicindicdigitone
Encoding: 1633 1633 51
Width: 637
GlyphClass: 2
Flags: W
LayerCount: 2
Fore
SplineSet
395 128 m 0,0,1
 395 107 395 107 390 64.5 c 128,-1,2
 385 22 385 22 379 -8 c 1,3,-1
 362 -8 l 1,4,-1
 362 12 l 2,5,6
 362 64 362 64 356 103 c 0,7,8
 347 163 347 163 325 222 c 0,9,10
 310 257 310 257 291 292 c 0,11,12
 269 332 269 332 242 369 c 1,13,-1
 272 508 l 1,14,15
 302 467 302 467 311 453 c 0,16,17
 329 427 329 427 340.5 405 c 128,-1,18
 352 383 352 383 361 358 c 0,19,20
 378 307 378 307 386.5 245.5 c 128,-1,21
 395 184 395 184 395 128 c 0,0,1
EndSplineSet
EndChar

StartChar: arabicindicdigittwo
Encoding: 1634 1634 52
Width: 637
GlyphClass: 2
Flags: W
LayerCount: 2
Fore
SplineSet
475 502 m 1,0,1
 475 411 475 411 424 358 c 0,2,3
 379 312 379 312 318 312 c 1,4,5
 327 275 327 275 332 227 c 128,-1,6
 337 179 337 179 337 134 c 0,7,8
 337 115 337 115 328 67.5 c 128,-1,9
 319 20 319 20 312 -8 c 1,10,-1
 289 -8 l 1,11,12
 289 65 289 65 282.5 117.5 c 128,-1,13
 276 170 276 170 260.5 215.5 c 128,-1,14
 245 261 245 261 218 303 c 0,15,16
 194 340 194 340 162 373 c 1,17,-1
 195 508 l 1,18,19
 225 472 225 472 231 465 c 0,20,21
 254 440 254 440 275 428 c 0,22,23
 302 412 302 412 332 412 c 0,24,25
 364 412 364 412 402 436 c 0,26,27
 448 464 448 464 455 502 c 1,28,-1
 475 502 l 1,0,1
EndSplineSet
EndChar

StartChar: arabicindicdigitthree
Encoding: 1635 1635 53
Width: 637
GlyphClass: 2
Flags: W
LayerCount: 2
Fore
SplineSet
493 502 m 1,0,1
 493 415 493 415 476 366 c 0,2,3
 456 308 456 308 410 308 c 0,4,5
 392 308 392 308 376 318 c 0,6,7
 362 330 362 330 356 334 c 1,8,9
 350 316 350 316 329 307 c 0,10,11
 313 300 313 300 298 300 c 1,12,13
 305 268 305 268 308 221 c 128,-1,14
 311 174 311 174 311 123 c 0,15,16
 311 103 311 103 299.5 53 c 128,-1,17
 288 3 288 3 280 -8 c 1,18,-1
 263 -8 l 1,19,20
 263 60 263 60 255.5 113 c 128,-1,21
 248 166 248 166 232 214 c 0,22,23
 217 258 217 258 195.5 297 c 128,-1,24
 174 336 174 336 144 373 c 1,25,-1
 177 508 l 1,26,27
 198 468 198 468 222 440 c 0,28,29
 255 400 255 400 282 400 c 256,30,31
 309 400 309 400 329 431 c 0,32,33
 347 457 347 457 356 502 c 1,34,-1
 368 502 l 1,35,36
 373 462 373 462 383 439 c 0,37,38
 396 408 396 408 413 408 c 0,39,40
 437 408 437 408 456 436.5 c 128,-1,41
 475 465 475 465 480 502 c 1,42,-1
 493 502 l 1,0,1
EndSplineSet
EndChar

StartChar: arabicindicdigitfour
Encoding: 1636 1636 54
Width: 637
GlyphClass: 2
Flags: W
LayerCount: 2
Fore
SplineSet
454 98 m 1,0,1
 432 65 432 65 419 49 c 0,2,3
 380 0 380 0 359 0 c 0,4,5
 340 0 340 0 318 4 c 128,-1,6
 296 8 296 8 266 20 c 0,7,8
 235 34 235 34 216.5 54.5 c 128,-1,9
 198 75 198 75 198 90 c 0,10,11
 198 125 198 125 224 169 c 0,12,13
 244 202 244 202 271 231 c 1,14,15
 215 259 l 0,16,17
 183 278 183 278 183 292 c 0,18,19
 183 332 183 332 229 389 c 0,20,21
 282 454 282 454 373 508 c 1,22,-1
 330 381 l 1,23,24
 286 368 286 368 267 357 c 0,25,26
 249 349 249 349 249 343 c 0,27,28
 249 333 249 333 306 308 c 128,-1,29
 363 283 363 283 363 272 c 0,30,31
 363 266 363 266 355 249.5 c 128,-1,32
 347 233 347 233 340 224 c 0,33,34
 336 220 336 220 294 184 c 0,35,36
 265 159 265 159 265 150 c 0,37,38
 265 143 265 143 278 131 c 0,39,40
 293 116 293 116 312.5 110.5 c 128,-1,41
 332 105 332 105 369 101.5 c 128,-1,42
 406 98 406 98 454 98 c 1,0,1
EndSplineSet
EndChar

StartChar: arabicindicdigitfive
Encoding: 1637 1637 55
Width: 637
GlyphClass: 2
Flags: W
LayerCount: 2
Fore
SplineSet
461 237 m 4,0,1
 461 126 461 126 425 75 c 4,2,3
 387 20 387 20 299 20 c 4,4,5
 230 20 230 20 200 54 c 4,6,7
 177 81 177 81 177 133 c 4,8,9
 177 196 177 196 194.5 283 c 132,-1,10
 212 370 212 370 238 430 c 4,11,12
 266 498 266 498 292 498 c 4,13,14
 323 498 323 498 362 465 c 4,15,16
 404 428 404 428 430 374 c 4,17,18
 461 309 461 309 461 237 c 4,0,1
416 220 m 4,19,20
 416 258 416 258 364.5 315 c 132,-1,21
 313 372 313 372 280 372 c 4,22,23
 257 372 257 372 241 312 c 4,24,25
 228 262 228 262 228 220 c 4,26,27
 228 180 228 180 235 165 c 4,28,29
 250 133 250 133 298 133 c 4,30,31
 349 133 349 133 384 160 c 4,32,33
 416 187 416 187 416 220 c 4,19,20
EndSplineSet
EndChar

StartChar: arabicindicdigitsix
Encoding: 1638 1638 56
Width: 637
GlyphClass: 2
Flags: W
LayerCount: 2
Fore
SplineSet
480 117 m 1,0,-1
 460 0 l 1,1,2
 391 45 391 45 365 141 c 0,3,4
 342 220 342 220 342 365 c 1,5,6
 333 359 333 359 309.5 355.5 c 128,-1,7
 286 352 286 352 271 352 c 0,8,9
 241 352 241 352 218 359 c 128,-1,10
 195 366 195 366 181 379 c 0,11,12
 172 387 172 387 166 414 c 0,13,14
 158 449 158 449 158 508 c 1,15,-1
 173 508 l 1,16,17
 185 485 185 485 224 469 c 0,18,19
 258 455 258 455 290 455 c 0,20,21
 310 455 310 455 338 460 c 0,22,23
 373 467 373 467 393 480 c 1,24,-1
 407 472 l 1,25,26
 400 435 400 435 397.5 409 c 128,-1,27
 395 383 395 383 395 357 c 0,28,29
 395 299 395 299 419.5 226 c 128,-1,30
 444 153 444 153 480 117 c 1,0,-1
EndSplineSet
EndChar

StartChar: arabicindicdigitseven
Encoding: 1639 1639 57
Width: 637
GlyphClass: 2
Flags: W
LayerCount: 2
Fore
SplineSet
500 386 m 1,0,1
 474 370 474 370 451 333 c 0,2,3
 434 304 434 304 413 253 c 0,4,5
 395 207 395 207 378 140 c 128,-1,6
 361 73 361 73 352 0 c 1,7,-1
 335 0 l 1,8,9
 330 42 330 42 316 88.5 c 128,-1,10
 302 135 302 135 284 177 c 0,11,12
 272 207 272 207 251 251 c 128,-1,13
 230 295 230 295 200 328 c 128,-1,14
 170 361 170 361 137 377 c 1,15,-1
 160 504 l 1,16,17
 201 487 201 487 230 457 c 0,18,19
 256 430 256 430 282 382 c 0,20,21
 298 350 298 350 312.5 305.5 c 128,-1,22
 327 261 327 261 337 210 c 1,23,24
 345 250 345 250 355 285 c 128,-1,25
 365 320 365 320 377 349 c 0,26,27
 401 410 401 410 432.5 450 c 128,-1,28
 464 490 464 490 500 508 c 1,29,-1
 500 386 l 1,0,1
EndSplineSet
EndChar

StartChar: arabicindicdigiteight
Encoding: 1640 1640 58
Width: 637
GlyphClass: 2
Flags: W
LayerCount: 2
Fore
SplineSet
137 114 m 1,0,1
 164 130 164 130 186 167 c 0,2,3
 203 196 203 196 224 247 c 0,4,5
 243 293 243 293 259.5 360 c 128,-1,6
 276 427 276 427 285 500 c 1,7,-1
 302 500 l 1,8,9
 307 459 307 459 322 410 c 0,10,11
 335 365 335 365 353 323 c 0,12,13
 365 293 365 293 386 249 c 128,-1,14
 407 205 407 205 437 172 c 128,-1,15
 467 139 467 139 500 123 c 1,16,-1
 478 -4 l 1,17,18
 437 13 437 13 408 43 c 0,19,20
 381 70 381 70 355 118 c 0,21,22
 339 150 339 150 324.5 195 c 128,-1,23
 310 240 310 240 300 290 c 1,24,25
 292 250 292 250 282.5 215 c 128,-1,26
 273 180 273 180 260 151 c 0,27,28
 236 90 236 90 205 50 c 128,-1,29
 174 10 174 10 137 -8 c 1,30,-1
 137 114 l 1,0,1
EndSplineSet
EndChar

StartChar: arabicindicdigitnine
Encoding: 1641 1641 59
Width: 637
GlyphClass: 2
Flags: W
LayerCount: 2
Fore
SplineSet
462 117 m 1,0,-1
 443 0 l 1,1,2
 386 38 386 38 358 105 c 0,3,4
 333 167 333 167 333 250 c 1,5,6
 319 241 319 241 306 232 c 0,7,8
 287 221 287 221 274 221 c 0,9,10
 224 221 224 221 199.5 245.5 c 128,-1,11
 175 270 175 270 175 325 c 0,12,13
 175 389 175 389 206 445 c 0,14,15
 241 508 241 508 289 508 c 0,16,17
 323 508 323 508 345 473 c 0,18,19
 362 446 362 446 372 396 c 0,20,21
 378 365 378 365 382.5 314 c 128,-1,22
 387 263 387 263 407 209 c 0,23,24
 430 149 430 149 462 117 c 1,0,-1
314 351 m 0,25,26
 314 366 314 366 301 387 c 0,27,28
 285 412 285 412 265 412 c 0,29,30
 248 412 248 412 233 393 c 128,-1,31
 218 374 218 374 218 358 c 0,32,33
 218 340 218 340 235.5 326 c 128,-1,34
 253 312 253 312 277 312 c 0,35,36
 292 312 292 312 303 325 c 128,-1,37
 314 338 314 338 314 351 c 0,25,26
EndSplineSet
EndChar

StartChar: arabicpercentsign
Encoding: 1642 1642 60
Width: 637
GlyphClass: 2
Flags: W
LayerCount: 2
Fore
SplineSet
535 104 m 1,0,1
 524 85 524 85 513 55 c 128,-1,2
 502 25 502 25 493 -2 c 1,3,4
 464 13 464 13 438 33 c 0,5,6
 417 49 417 49 396 69 c 1,7,8
 401 89 401 89 412.5 118.5 c 128,-1,9
 424 148 424 148 440 177 c 1,10,11
 463 153 463 153 487 134.5 c 128,-1,12
 511 116 511 116 535 104 c 1,0,1
242 628 m 1,0,1
 231 609 231 609 220 579 c 128,-1,2
 209 549 209 549 200 522 c 1,3,4
 171 537 171 537 145 557 c 0,5,6
 124 573 124 573 103 593 c 1,7,8
 108 613 108 613 119.5 642.5 c 128,-1,9
 131 672 131 672 147 701 c 1,10,11
 170 677 170 677 194 658.5 c 128,-1,12
 218 640 218 640 242 628 c 1,0,1
535.252 704.5 m 1,10,-1
 181.715 -0.5 l 1,11,-1
 102.774 -0.5 l 1,12,-1
 455.274 704.5 l 1,13,-1
 535.252 704.5 l 1,10,-1
EndSplineSet
EndChar

StartChar: arabicfivepointedstar
Encoding: 1645 1645 61
Width: 637
GlyphClass: 2
Flags: W
LayerCount: 2
Fore
SplineSet
497 595 m 1,0,-1
 388 514 l 1,1,-1
 429 385 l 1,2,-1
 319 464 l 1,3,-1
 208 385 l 1,4,-1
 249 514 l 1,5,-1
 140 595 l 1,6,-1
 276 595 l 1,7,-1
 319 725 l 1,8,-1
 362 595 l 1,9,-1
 497 595 l 1,0,-1
EndSplineSet
EndChar

StartChar: ornateleftparenthesis
Encoding: 64830 64830 62
Width: 637
GlyphClass: 2
Flags: W
LayerCount: 2
Fore
SplineSet
511 -207 m 1,0,-1
 473 -207 l 1,1,-1
 272 85 l 1,2,3
 251 85 251 85 240 95.5 c 128,-1,4
 229 106 229 106 229 126 c 0,5,6
 227 142 227 142 240 167 c 0,7,8
 242 171 242 171 246 178 c 1,9,10
 220 178 220 178 202 192 c 0,11,12
 181 208 181 208 181 238 c 0,13,14
 181 250 181 250 191 271 c 0,15,16
 194 279 194 279 201 291 c 1,17,18
 188 291 188 291 156 324 c 0,19,20
 145 335 145 335 126 357 c 1,21,22
 144 379 144 379 155 390 c 0,23,24
 188 424 188 424 201 424 c 1,25,26
 195 436 195 436 192 443 c 0,27,28
 181 465 181 465 181 477 c 0,29,30
 181 507 181 507 202 523 c 0,31,32
 220 537 220 537 246 537 c 1,33,34
 239 548 239 548 237 555 c 0,35,36
 228 576 228 576 229 589 c 0,37,38
 229 630 229 630 272 630 c 1,39,-1
 473 922 l 1,40,-1
 511 922 l 1,41,-1
 370 518 l 1,42,43
 382 511 382 511 387 505 c 4,44,45
 406 487 406 487 406 463 c 4,46,47
 406 441 406 441 387 423 c 0,48,49
 373 409 373 409 366 399 c 0,50,51
 362 393 362 393 351 368 c 0,52,53
 350 364 350 364 346 357 c 1,54,55
 349 352 349 352 350 348 c 0,56,57
 360 327 360 327 366 316 c 0,58,59
 367 316 367 316 393 287 c 0,60,61
 406 272 406 272 406 253 c 0,62,63
 406 229 406 229 387 210 c 0,64,65
 382 204 382 204 370 197 c 1,66,-1
 511 -207 l 1,0,-1
477 -180 m 1,67,68
 469 -155 469 -155 435 -57 c 0,69,70
 418 -10 418 -10 373 116 c 0,71,72
 357 160 357 160 342 204 c 1,73,74
 356 213 356 213 362 218 c 0,75,76
 383 237 383 237 383 254 c 0,77,78
 383 263 383 263 375 271 c 0,79,80
 365 279 365 279 361 283 c 1,81,82
 358 287 358 287 339 322 c 0,83,84
 333 334 333 334 321 357 c 1,85,86
 333 381 333 381 339 393 c 0,87,88
 358 430 358 430 361 432 c 0,89,90
 368 437 368 437 375 443 c 0,91,92
 383 452 383 452 383 461 c 0,93,94
 383 478 383 478 362 497 c 0,95,96
 356 502 356 502 342 511 c 1,97,98
 373 598 l 0,99,100
 418 725 418 725 434 771 c 0,101,102
 472 880 472 880 477 895 c 1,103,-1
 284 607 l 1,104,105
 279 606 279 606 272.5 605.5 c 128,-1,106
 266 605 266 605 263 604 c 0,107,108
 250 598 250 598 250 583 c 0,109,110
 250 569 250 569 269 541 c 0,111,112
 276 531 276 531 289 515 c 1,113,114
 286 515 286 515 280 516 c 128,-1,115
 274 517 274 517 271 517 c 0,116,117
 243 517 243 517 226 509 c 0,118,119
 204 498 204 498 204 476 c 0,120,121
 204 458 204 458 221 436 c 0,122,123
 226 429 226 429 238 417 c 1,124,125
 213 412 213 412 181 385 c 0,126,127
 171 376 171 376 154 357 c 1,128,129
 171 340 171 340 181 331 c 0,130,131
 214 303 214 303 238 298 c 1,132,133
 226 287 226 287 221 279 c 0,134,135
 204 257 204 257 204 240 c 0,136,137
 204 217 204 217 226 207 c 0,138,139
 243 199 243 199 271 199 c 0,140,141
 282 199 282 199 284.5 199 c 128,-1,142
 287 199 287 199 289 200 c 1,143,144
 276 184 276 184 270 175 c 0,145,146
 250 146 250 146 250 133 c 0,147,148
 250 117 250 117 263 111 c 0,149,150
 266 109 266 109 273 109 c 128,-1,151
 280 109 280 109 284 108 c 1,152,-1
 477 -180 l 1,67,68
327 623 m 1,153,154
 335 623 335 623 338 618 c 128,-1,155
 341 613 341 613 341 602 c 0,156,157
 341 583 341 583 328 548 c 0,158,159
 324 537 324 537 315 518 c 1,160,161
 302 532 302 532 296 541 c 0,162,163
 276 568 276 568 276 583 c 1,164,165
 276 581 276 581 286 581 c 0,166,167
 291 581 291 581 294 581 c 128,-1,168
 297 581 297 581 300 582 c 1,169,170
 308 582 308 582 315 601.5 c 128,-1,171
 322 621 322 621 327 623 c 1,153,154
358 460 m 1,172,173
 357 456 357 456 344 447 c 0,174,175
 340 444 340 444 332 437 c 1,176,177
 329 426 329 426 328 420 c 0,178,179
 321 403 321 403 312 403 c 0,180,181
 288 403 288 403 257.5 428 c 128,-1,182
 227 453 227 453 227 474 c 0,183,184
 227 488 227 488 266 492 c 0,185,186
 281 493 281 493 299 493 c 0,187,188
 321 493 321 493 340 482.5 c 128,-1,189
 359 472 359 472 358 460 c 1,172,173
308 339 m 1,190,191
 298 333 298 333 291 331 c 0,192,193
 270 321 270 321 253 321 c 256,194,195
 236 321 236 321 210 340 c 0,196,197
 201 345 201 345 187 357 c 1,198,199
 201 370 201 370 209 375 c 0,200,201
 235 394 235 394 253 394 c 256,202,203
 271 394 271 394 291 385 c 0,204,205
 298 382 298 382 308 376 c 1,206,-1
 301 357 l 1,207,-1
 308 339 l 1,190,191
358 254 m 1,208,209
 359 243 359 243 340 232.5 c 128,-1,210
 321 222 321 222 299 222 c 0,211,212
 271 222 271 222 255 225 c 0,213,214
 227 229 227 229 227 241 c 0,215,216
 227 262 227 262 257.5 287 c 128,-1,217
 288 312 288 312 312 312 c 0,218,219
 321 312 321 312 327 295 c 0,220,221
 329 290 329 290 332 278 c 1,222,223
 340 271 340 271 344 269 c 0,224,225
 357 258 357 258 358 254 c 1,208,209
327 92 m 1,226,227
 323 94 323 94 315.5 113.5 c 128,-1,228
 308 133 308 133 300 133 c 0,229,230
 296 133 296 133 292.5 133 c 128,-1,231
 289 133 289 133 284 134 c 0,232,233
 280 134 280 134 278 134 c 128,-1,234
 276 134 276 134 276 133 c 1,235,236
 276 147 276 147 295 174 c 0,237,238
 301 182 301 182 315 197 c 1,239,240
 324 178 324 178 328 167 c 0,241,242
 341 130 341 130 341 112 c 0,243,244
 341 92 341 92 327 92 c 1,226,227
EndSplineSet
EndChar

StartChar: ornaterightparenthesis
Encoding: 64831 64831 63
Width: 637
GlyphClass: 2
Flags: W
LayerCount: 2
Fore
SplineSet
511 357 m 1,0,1
 492 336 492 336 482 324 c 0,2,3
 449 291 449 291 435 291 c 1,4,5
 442 279 442 279 445 272 c 0,6,7
 456 250 456 250 456 238 c 0,8,9
 456 208 456 208 435 192 c 0,10,11
 417 178 417 178 391 178 c 1,12,13
 398 167 398 167 400 160 c 0,14,15
 409 139 409 139 408 126 c 0,16,17
 408 85 408 85 365 85 c 1,18,-1
 164 -207 l 1,19,-1
 126 -207 l 1,20,-1
 267 197 l 1,21,22
 255 204 255 204 249 210 c 0,23,24
 231 228 231 228 231 253 c 0,25,26
 231 274 231 274 250 292 c 0,27,28
 264 306 264 306 271 316 c 0,29,30
 274 323 274 323 286 348 c 0,31,32
 287 351 287 351 290 357 c 1,33,34
 288 364 288 364 286 367 c 0,35,36
 276 389 276 389 271 399 c 0,37,38
 270 399 270 399 244 428 c 0,39,40
 231 443 231 443 231 463 c 0,41,42
 231 486 231 486 249 505 c 0,43,44
 255 510 255 510 267 518 c 1,45,-1
 126 922 l 1,46,-1
 164 922 l 1,47,-1
 365 630 l 1,48,49
 386 630 386 630 397 619.5 c 128,-1,50
 408 609 408 609 408 589 c 0,51,52
 410 573 410 573 397 548 c 0,53,54
 395 544 395 544 391 537 c 1,55,56
 416 537 416 537 435 523 c 0,57,58
 456 507 456 507 456 477 c 0,59,60
 456 465 456 465 445 444 c 0,61,62
 443 436 443 436 435 424 c 1,63,64
 449 424 449 424 481 391 c 0,65,66
 492 380 492 380 511 357 c 1,0,1
483 357 m 1,67,68
 466 375 466 375 456 385 c 0,69,70
 423 412 423 412 399 417 c 1,71,72
 410 428 410 428 416 436 c 0,73,74
 433 458 433 458 433 476 c 0,75,76
 433 498 433 498 411 509 c 0,77,78
 394 517 394 517 366 517 c 0,79,80
 354 517 354 517 352 516.5 c 128,-1,81
 350 516 350 516 348 515 c 1,82,83
 361 531 361 531 367 540 c 0,84,85
 387 569 387 569 387 583 c 0,86,87
 387 598 387 598 374 604 c 0,88,89
 371 605 371 605 364 605.5 c 128,-1,90
 357 606 357 606 353 607 c 1,91,-1
 160 895 l 1,92,93
 168 870 168 870 202 772 c 0,94,95
 218 725 218 725 263 599 c 0,96,97
 295 511 l 1,98,99
 281 502 281 502 275 497 c 0,100,101
 254 478 254 478 254 461 c 0,102,103
 254 452 254 452 262 444 c 0,104,105
 272 436 272 436 276 432 c 1,106,107
 279 428 279 428 298 393 c 0,108,109
 304 381 304 381 316 357 c 1,110,111
 304 335 304 335 298 323 c 0,112,113
 279 286 279 286 276 283 c 0,114,115
 269 277 269 277 262 272 c 0,116,117
 254 263 254 263 254 254 c 0,118,119
 254 237 254 237 274 218 c 0,120,121
 280 213 280 213 295 204 c 1,122,123
 280 160 280 160 264 117 c 0,124,125
 219 -10 219 -10 203 -56 c 0,126,127
 164 -164 164 -164 160 -180 c 1,128,-1
 353 108 l 1,129,130
 358 109 358 109 364.5 109 c 128,-1,131
 371 109 371 109 374 111 c 0,132,133
 387 117 387 117 387 133 c 0,134,135
 387 146 387 146 368 174 c 0,136,137
 361 184 361 184 348 200 c 1,138,139
 350 200 350 200 356 199.5 c 128,-1,140
 362 199 362 199 366 199 c 0,141,142
 394 199 394 199 411 207 c 0,143,144
 433 217 433 217 433 240 c 0,145,146
 433 257 433 257 416 279 c 0,147,148
 411 286 411 286 399 298 c 1,149,150
 424 303 424 303 456 330 c 0,151,152
 466 339 466 339 483 357 c 1,67,68
361 583 m 1,153,154
 361 568 361 568 342 542 c 0,155,156
 336 533 336 533 322 518 c 1,157,158
 313 537 313 537 309 548 c 0,159,160
 296 584 296 584 296 603 c 0,161,162
 296 623 296 623 310 623 c 1,163,164
 314 621 314 621 321.5 601.5 c 128,-1,165
 329 582 329 582 337 582 c 0,166,167
 340 582 340 582 344 581.5 c 128,-1,168
 348 581 348 581 353 581 c 0,169,170
 361 581 361 581 361 583 c 1,153,154
410 474 m 0,171,172
 410 453 410 453 379 428 c 128,-1,173
 348 403 348 403 325 403 c 0,174,175
 316 403 316 403 309 420 c 0,176,177
 308 426 308 426 305 437 c 1,178,179
 297 444 297 444 293 447 c 0,180,181
 280 457 280 457 279 460 c 1,182,183
 278 472 278 472 296.5 482.5 c 128,-1,184
 315 493 315 493 338 493 c 0,185,186
 366 493 366 493 382 490 c 0,187,188
 410 486 410 486 410 474 c 0,171,172
449 357 m 1,189,190
 436 345 436 345 428 340 c 0,191,192
 402 321 402 321 383 321 c 256,193,194
 366 321 366 321 346 330 c 0,195,196
 339 332 339 332 329 339 c 1,197,-1
 336 357 l 1,198,-1
 329 376 l 1,199,200
 339 382 339 382 346 385 c 0,201,202
 367 394 367 394 383 394 c 0,203,204
 401 394 401 394 427 375 c 0,205,206
 436 370 436 370 449 357 c 1,189,190
410 241 m 0,207,208
 410 228 410 228 371 224 c 0,209,210
 356 222 356 222 338 222 c 0,211,212
 316 222 316 222 297 232.5 c 128,-1,213
 278 243 278 243 279 254 c 1,214,215
 280 258 280 258 292 269 c 0,216,217
 296 271 296 271 305 278 c 1,218,219
 307 290 307 290 309 295 c 0,220,221
 315 312 315 312 325 312 c 0,222,223
 349 312 349 312 379.5 287 c 128,-1,224
 410 262 410 262 410 241 c 0,207,208
361 133 m 1,225,226
 361 134 361 134 350 134 c 0,227,228
 346 134 346 134 343 134 c 128,-1,229
 340 134 340 134 337 133 c 1,230,231
 329 133 329 133 322 113.5 c 128,-1,232
 315 94 315 94 310 92 c 1,233,234
 302 92 302 92 299 97 c 128,-1,235
 296 102 296 102 296 113 c 0,236,237
 296 132 296 132 309 167 c 0,238,239
 313 178 313 178 322 197 c 1,240,241
 335 183 335 183 341 174 c 0,242,243
 361 147 361 147 361 133 c 1,225,226
EndSplineSet
EndChar

StartChar: alefwithmaddaabovefinal
Encoding: 65154 65154 66
Width: 637
GlyphClass: 2
Flags: W
AnchorPoint: "ArabicBelow" 292 -102 basechar 0
AnchorPoint: "ArabicAbove" 265 853 basechar 0
LayerCount: 2
Fore
SplineSet
387 770 m 1,0,1
 386 767 386 767 368 703 c 0,2,-1
 350 638 l 1,3,4
 350 647 350 647 348 670 c 0,5,6
 345 692 345 692 342 701 c 1,7,8
 304 671 304 671 253 660 c 0,9,10
 221 653 221 653 181 653 c 2,11,-1
 167 653 l 1,12,-1
 162 653 l 1,13,14
 159 649 159 649 151 629 c 0,15,16
 148 622 148 622 143 609 c 1,17,18
 142 610 142 610 139 610 c 0,19,20
 136 611 136 611 135 611 c 0,21,22
 131 611 131 611 130 609 c 1,23,-1
 130 743 l 1,24,25
 147 731 147 731 172 725 c 0,26,27
 196 719 196 719 222 719 c 0,28,29
 258 719 258 719 302 734 c 0,30,31
 344 752 344 752 387 770 c 1,0,1
EndSplineSet
Refer: 78 65166 N 1 0 0 1 -1 -1 2
EndChar

StartChar: alefwithhamzaabovefinal
Encoding: 65156 65156 68
Width: 637
GlyphClass: 2
Flags: W
AnchorPoint: "ArabicBelow" 336 -116 basechar 0
AnchorPoint: "ArabicAbove" 261 874 basechar 0
LayerCount: 2
Fore
SplineSet
654 1 m 1,0,-1
 337 0 l 2,1,2
 320 -0 320 -0 311 10 c 0,3,4
 299 22 299 22 297 39 c 0,5,6
 288 119 288 119 281 173 c 0,7,8
 271 255 271 255 258 328 c 0,9,10
 245 407 245 407 235 429 c 1,11,12
 242 450 242 450 255 488 c 0,13,14
 278 550 278 550 287 560 c 1,15,16
 301 535 301 535 315 429 c 0,17,18
 328 323 328 323 333 245 c 0,19,20
 339 157 339 157 340 151 c 0,21,22
 342 129 342 129 353 119 c 0,23,24
 361 113 361 113 376 113 c 2,25,-1
 654 113 l 1,26,-1
 654 1 l 1,0,-1
329 614 m 1,27,28
 328 614 328 614 301 600 c 0,29,30
 262 579 262 579 242 567 c 0,31,32
 208 546 208 546 193 531 c 1,33,-1
 193 548 l 2,34,35
 194 557 194 557 204 579 c 0,36,37
 207 587 207 587 214 601 c 1,38,39
 203 605 203 605 197 614 c 0,40,41
 188 627 188 627 188 646 c 0,42,43
 188 681 188 681 219 727 c 0,44,45
 253 777 253 777 287 777 c 0,46,47
 302 777 302 777 309 767.5 c 128,-1,48
 316 758 316 758 316 742 c 0,49,50
 316 729 316 729 311 716 c 128,-1,51
 306 703 306 703 300 700 c 1,52,53
 296 705 296 705 293 707 c 0,54,55
 284 714 284 714 274 714 c 0,56,57
 259 714 259 714 236.5 697 c 128,-1,58
 214 680 214 680 214 666 c 0,59,60
 214 659 214 659 233.5 652.5 c 128,-1,61
 253 646 253 646 270 646 c 0,62,63
 285 646 285 646 315 663 c 0,64,65
 333 672 333 672 350 683 c 1,66,-1
 329 614 l 1,27,28
EndSplineSet
EndChar

StartChar: wawwithhamzaabovefinal
Encoding: 65158 65158 70
Width: 637
GlyphClass: 2
Flags: W
AnchorPoint: "ArabicBelow" 193 -299 basechar 0
AnchorPoint: "ArabicAbove" 171 601 basechar 0
LayerCount: 2
Fore
SplineSet
232 358 m 1,0,-1
 204 344 l 0,1,2
 166 324 166 324 146 312 c 0,3,4
 111 290 111 290 97 275 c 1,5,-1
 97 292 l 2,6,7
 97 302 97 302 107 324 c 0,8,9
 110 331 110 331 117 345 c 1,10,11
 106 350 106 350 101 358 c 0,12,13
 91 371 91 371 91 391 c 0,14,15
 91 426 91 426 122 472 c 0,16,17
 156 522 156 522 190 522 c 0,18,19
 205 522 205 522 212 512 c 0,20,21
 219 502 219 502 219 486 c 0,22,23
 219 473 219 473 214 461 c 0,24,25
 209 448 209 448 204 444 c 1,26,27
 200 449 200 449 196 452 c 0,28,29
 188 459 188 459 177 459 c 0,30,31
 163 459 163 459 140 441 c 0,32,33
 117 424 117 424 117 411 c 0,34,35
 117 403 117 403 137 397 c 0,36,37
 156 391 156 391 174 391 c 0,38,39
 188 391 188 391 218 407 c 0,40,-1
 254 427 l 1,41,-1
 232 358 l 1,0,-1
EndSplineSet
Refer: 174 65262 S 1 0 0 1 0 0 2
EndChar

StartChar: alefwithhamzabelowfinal
Encoding: 65160 65160 72
Width: 637
GlyphClass: 2
Flags: W
AnchorPoint: "ArabicBelow" 325 -348 basechar 0
AnchorPoint: "ArabicAbove" 257 710 basechar 0
LayerCount: 2
Fore
SplineSet
385 -219 m 1,26,27
 384 -219 384 -219 356 -233 c 0,28,29
 318 -254 318 -254 298 -266 c 0,30,31
 264 -287 264 -287 249 -302 c 1,32,-1
 249 -285 l 2,33,34
 250 -276 250 -276 260 -254 c 0,35,36
 263 -246 263 -246 270 -233 c 1,37,38
 259 -228 259 -228 253 -219 c 0,39,40
 244 -206 244 -206 244 -187 c 0,41,42
 244 -152 244 -152 275 -106 c 0,43,44
 309 -56 309 -56 343 -56 c 0,45,46
 358 -56 358 -56 365 -66 c 128,-1,47
 372 -76 372 -76 372 -91 c 0,48,49
 372 -104 372 -104 367 -117 c 128,-1,50
 362 -130 362 -130 356 -133 c 1,51,52
 352 -128 352 -128 349 -126 c 0,53,54
 340 -119 340 -119 330 -119 c 0,55,56
 315 -119 315 -119 292.5 -136 c 128,-1,57
 270 -153 270 -153 270 -167 c 0,58,59
 270 -175 270 -175 289.5 -181 c 128,-1,60
 309 -187 309 -187 326 -187 c 0,61,62
 341 -187 341 -187 371 -171 c 0,63,64
 389 -160 389 -160 406 -150 c 1,65,-1
 385 -219 l 1,26,27
EndSplineSet
Refer: 78 65166 S 1 0 0 1 0 0 2
EndChar

StartChar: yehwithhamzaabovefinal
Encoding: 65162 65162 74
Width: 637
GlyphClass: 2
Flags: W
AnchorPoint: "ArabicBelow" 200 -341 basechar 0
AnchorPoint: "ArabicAbove" 139 464 basechar 0
LayerCount: 2
Fore
SplineSet
207 195 m 5,0,1
 206 195 206 195 179 180 c 4,2,3
 140 159 140 159 120 147 c 4,4,5
 85 126 85 126 71 112 c 5,6,-1
 71 129 l 6,7,8
 72 138 72 138 81 159 c 4,9,10
 84 167 84 167 92 181 c 5,11,12
 81 186 81 186 75 195 c 4,13,14
 65 208 65 208 65 227 c 4,15,16
 65 262 65 262 97 308 c 4,17,18
 131 357 131 357 164 357 c 4,19,20
 179 357 179 357 186 348 c 4,21,22
 193 338 193 338 193 323 c 4,23,24
 193 309 193 309 189 296 c 4,25,26
 184 283 184 283 178 280 c 5,27,28
 174 286 174 286 171 287 c 4,29,30
 162 295 162 295 152 295 c 4,31,32
 137 295 137 295 114 278 c 4,33,34
 92 261 92 261 92 246 c 4,35,36
 92 239 92 239 111 233 c 4,37,38
 131 227 131 227 148 227 c 4,39,40
 163 227 163 227 192 243 c 4,41,-1
 229 263 l 5,42,-1
 207 195 l 5,0,1
EndSplineSet
Refer: 176 65264 S 1 0 0 1 -5 0 2
EndChar

StartChar: yehwithhamzaaboveinitial
Encoding: 65163 65163 75
Width: 637
GlyphClass: 2
Flags: W
AnchorPoint: "ArabicBelow" 362 -96 basechar 0
AnchorPoint: "ArabicAbove" 300 655 basechar 0
LayerCount: 2
Fore
SplineSet
419 97 m 2,0,-1
 419 0 l 1,1,-1
 -9 0 l 5,2,-1
 -9 113 l 5,3,-1
 357 113 l 1,4,5
 357 141 357 141 339 170 c 0,6,7
 333 180 333 180 310 210 c 1,8,-1
 348 320 l 1,9,10
 374 287 374 287 395 229 c 0,11,12
 419 161 419 161 419 97 c 2,0,-1
373 386 m 1,13,14
 372 386 372 386 344 371 c 0,15,16
 306 351 306 351 286 339 c 0,17,18
 251 317 251 317 237 303 c 1,19,-1
 237 320 l 2,20,21
 238 329 238 329 247 351 c 0,22,23
 250 358 250 358 258 373 c 1,24,25
 247 378 247 378 241 386 c 0,26,27
 232 399 232 399 232 419 c 0,28,29
 232 453 232 453 263 499 c 0,30,31
 297 549 297 549 331 549 c 0,32,33
 345 549 345 549 352.5 539.5 c 128,-1,34
 360 530 360 530 360 514 c 0,35,36
 360 501 360 501 355 488 c 128,-1,37
 350 475 350 475 344 472 c 1,38,39
 340 477 340 477 337 479 c 0,40,41
 328 486 328 486 318 486 c 0,42,43
 303 486 303 486 280.5 469 c 128,-1,44
 258 452 258 452 258 438 c 0,45,46
 258 431 258 431 277.5 425 c 128,-1,47
 297 419 297 419 314 419 c 0,48,49
 329 419 329 419 358 435 c 0,50,51
 377 444 377 444 394 455 c 1,52,-1
 373 386 l 1,13,14
EndSplineSet
EndChar

StartChar: yehwithhamzaabovemedial
Encoding: 65164 65164 76
Width: 637
GlyphClass: 2
Flags: W
AnchorPoint: "ArabicBelow" 342 -116 basechar 0
AnchorPoint: "ArabicAbove" 287 655 basechar 0
LayerCount: 2
Fore
SplineSet
359 381 m 1,0,1
 331 366 l 0,2,3
 293 345 293 345 273 333 c 0,4,5
 239 312 239 312 224 298 c 1,6,-1
 224 315 l 2,7,8
 225 324 225 324 235 345 c 0,9,10
 238 353 238 353 244 367 c 1,11,12
 234 372 234 372 228 381 c 0,13,14
 219 394 219 394 219 413 c 0,15,16
 219 448 219 448 250 493 c 0,17,18
 284 543 284 543 318 543 c 0,19,20
 333 543 333 543 340 533.5 c 128,-1,21
 347 524 347 524 347 509 c 0,22,23
 347 496 347 496 342 482.5 c 128,-1,24
 337 469 337 469 331 466 c 1,25,26
 327 472 327 472 324 473 c 0,27,28
 315 481 315 481 305 481 c 0,29,30
 290 481 290 481 267 464 c 128,-1,31
 244 447 244 447 244 432 c 0,32,33
 244 425 244 425 264 419 c 128,-1,34
 284 413 284 413 301 413 c 0,35,36
 316 413 316 413 346 429 c 0,37,38
 363 439 363 439 381 449 c 1,39,-1
 359 381 l 1,0,1
-9 0 m 1,40,-1
 -9 113 l 1,41,-1
 305 113 l 1,42,43
 305 139 305 139 284 175 c 0,44,45
 277 187 277 187 263 209 c 1,46,-1
 305 315 l 1,47,48
 314 301 314 301 330 268 c 0,49,50
 350 225 350 225 356.5 197.5 c 128,-1,51
 363 170 363 170 377 150 c 0,52,53
 405 112 405 112 458 113 c 2,54,-1
 647 113 l 1,55,-1
 647 1 l 1,56,-1
 438 0 l 2,57,58
 413 -0 413 -0 387 12 c 0,59,60
 362 24 362 24 348 40 c 1,61,-1
 348 0 l 1,62,-1
 -9 0 l 1,40,-1
EndSplineSet
EndChar

StartChar: aleffinal
Encoding: 65166 65166 78
Width: 637
GlyphClass: 2
Flags: W
AnchorPoint: "ArabicBelow" 302 -96 basechar 0
AnchorPoint: "ArabicAbove" 247 724 basechar 0
LayerCount: 2
Fore
SplineSet
649 0 m 5,0,-1
 315 0 l 6,1,2
 299 0 299 0 290 10 c 4,3,4
 278 22 278 22 276 39 c 4,5,6
 267 114 267 114 259 184 c 4,7,8
 248 275 248 275 234 361 c 4,9,10
 219 452 219 452 208 474 c 5,11,12
 222 513 222 513 229 533 c 4,13,14
 251 594 251 594 261 605 c 5,15,16
 274 582 274 582 290 462 c 4,17,18
 300 385 300 385 310 257 c 4,19,-1
 318 151 l 4,20,21
 322 127 322 127 332 119 c 4,22,23
 339 113 339 113 355 113 c 6,24,-1
 649 113 l 5,25,-1
 649 0 l 5,0,-1
EndSplineSet
EndChar

StartChar: behfinal
Encoding: 65168 65168 80
Width: 637
GlyphClass: 2
Flags: W
AnchorPoint: "ArabicBelow" 294 -212 basechar 0
AnchorPoint: "ArabicAbove" 287 464 basechar 0
LayerCount: 2
Fore
SplineSet
352 -112 m 1,0,-1
 296 -168 l 1,1,-1
 234 -107 l 1,2,-1
 291 -50 l 1,3,-1
 352 -112 l 1,0,-1
139 0 m 2,4,5
 75 0 75 0 44 28 c 0,6,7
 9 59 9 59 9 126 c 0,8,9
 9 162 9 162 36 222.5 c 128,-1,10
 63 283 63 283 90 306 c 1,11,-1
 112 306 l 1,12,13
 98 280 98 280 91 265 c 0,14,15
 69 216 69 216 69 187 c 0,16,17
 69 153 69 153 86 136 c 0,18,19
 110 113 110 113 167 113 c 2,20,-1
 504 113 l 1,21,22
 504 139 504 139 483 175 c 0,23,24
 476 187 476 187 462 209 c 1,25,-1
 504 315 l 1,26,27
 513 301 513 301 529 268 c 0,28,29
 549 225 549 225 555.5 197.5 c 128,-1,30
 562 170 562 170 577 150 c 0,31,32
 604 113 604 113 632 113 c 2,33,-1
 654 113 l 1,34,-1
 654 0 l 1,35,-1
 613 0 l 2,36,37
 587 0 587 0 574 12 c 128,-1,38
 561 24 561 24 548 40 c 1,39,-1
 548 0 l 1,40,-1
 139 0 l 2,4,5
EndSplineSet
EndChar

StartChar: behinitial
Encoding: 65169 65169 81
Width: 637
GlyphClass: 2
Flags: W
AnchorPoint: "ArabicBelow" 355 -225 basechar 0
AnchorPoint: "ArabicAbove" 335 444 basechar 0
LayerCount: 2
Fore
SplineSet
419 97 m 2,0,-1
 419 0 l 1,1,-1
 -9 0 l 5,2,-1
 -9 113 l 5,3,-1
 357 113 l 1,4,5
 357 141 357 141 339 170 c 0,6,7
 333 180 333 180 310 210 c 1,8,-1
 348 320 l 1,9,10
 374 287 374 287 395 229 c 0,11,12
 419 161 419 161 419 97 c 2,0,-1
413 -112 m 1,13,-1
 356 -168 l 1,14,-1
 295 -107 l 1,15,-1
 352 -50 l 1,16,-1
 413 -112 l 1,13,-1
EndSplineSet
EndChar

StartChar: behmedial
Encoding: 65170 65170 82
Width: 637
GlyphClass: 2
Flags: W
AnchorPoint: "ArabicBelow" 328 -212 basechar 0
AnchorPoint: "ArabicAbove" 301 444 basechar 0
LayerCount: 2
Fore
SplineSet
385 -112 m 1,0,-1
 329 -168 l 1,1,-1
 267 -107 l 1,2,-1
 324 -50 l 1,3,-1
 385 -112 l 1,0,-1
-9 0 m 1,4,-1
 -9 113 l 1,5,-1
 305 113 l 1,6,7
 305 139 305 139 284 175 c 0,8,9
 277 187 277 187 263 209 c 1,10,-1
 305 315 l 1,11,12
 314 301 314 301 330 268 c 0,13,14
 350 225 350 225 356.5 197.5 c 128,-1,15
 363 170 363 170 377 150 c 0,16,17
 405 113 405 113 458 113 c 2,18,-1
 649 113 l 1,19,-1
 649 0 l 1,20,-1
 438 0 l 2,21,22
 413 0 413 0 387.5 12 c 128,-1,23
 362 24 362 24 348 40 c 1,24,-1
 348 0 l 1,25,-1
 -9 0 l 1,4,-1
EndSplineSet
EndChar

StartChar: tehmarbutafinal
Encoding: 65172 65172 84
Width: 637
GlyphClass: 2
Flags: W
AnchorPoint: "ArabicBelow" 285 -96 basechar 0
AnchorPoint: "ArabicAbove" 230 642 basechar 0
LayerCount: 2
Fore
SplineSet
232 485 m 1,0,-1
 176 428 l 1,1,-1
 114 489 l 1,2,-1
 171 547 l 1,3,-1
 232 485 l 1,0,-1
362 490 m 1,4,-1
 305 433 l 1,5,-1
 244 494 l 1,6,-1
 301 551 l 1,7,-1
 362 490 l 1,4,-1
649 1 m 1,8,-1
 467 0 l 2,9,10
 422 -0 422 -0 395 39 c 0,11,12
 372 71 372 71 372 104 c 1,13,14
 363 82 363 82 340 63 c 0,15,16
 310 38 310 38 278 38 c 0,17,18
 239 38 239 38 204 74.5 c 128,-1,19
 169 111 169 111 169 151 c 0,20,21
 169 181 169 181 195 217 c 0,22,23
 216 246 216 246 252 276 c 0,24,25
 277 297 277 297 310 319 c 1,26,-1
 293 356 l 1,27,-1
 358 420 l 1,28,29
 371 397 371 397 386 339 c 0,30,31
 400 288 400 288 408 238 c 0,32,33
 419 171 419 171 435 146 c 0,34,35
 457 112 457 112 504 113 c 2,36,-1
 649 113 l 1,37,-1
 649 1 l 1,8,-1
358 185 m 1,38,39
 358 196 358 196 346 212.5 c 128,-1,40
 334 229 334 229 326 229 c 0,41,42
 302 229 302 229 272.5 212.5 c 128,-1,43
 243 196 243 196 234 182 c 1,44,45
 247 171 247 171 262 162 c 128,-1,46
 277 153 277 153 288 153 c 0,47,48
 311 153 311 153 331 163 c 0,49,50
 346 171 346 171 358 185 c 1,38,39
EndSplineSet
EndChar

StartChar: tehfinal
Encoding: 65174 65174 86
Width: 637
GlyphClass: 2
Flags: W
AnchorPoint: "ArabicBelow" 311 -137 basechar 0
AnchorPoint: "ArabicAbove" 304 463 basechar 0
LayerCount: 2
Fore
SplineSet
301 303 m 1,0,-1
 244 246 l 1,1,-1
 183 307 l 1,2,-1
 240 364 l 1,3,-1
 301 303 l 1,0,-1
431 308 m 1,4,-1
 374 251 l 1,5,-1
 312 312 l 1,6,-1
 369 369 l 1,7,-1
 431 308 l 1,4,-1
139 0 m 2,8,9
 75 0 75 0 44 28 c 0,10,11
 9 59 9 59 9 126 c 0,12,13
 9 162 9 162 36 222.5 c 128,-1,14
 63 283 63 283 90 306 c 1,15,-1
 112 306 l 1,16,17
 98 280 98 280 91 265 c 0,18,19
 69 216 69 216 69 187 c 0,20,21
 69 153 69 153 86 136 c 0,22,23
 110 113 110 113 167 113 c 2,24,-1
 504 113 l 1,25,26
 504 139 504 139 483 175 c 0,27,28
 476 187 476 187 462 209 c 1,29,-1
 504 315 l 1,30,31
 513 301 513 301 529 268 c 0,32,33
 549 225 549 225 555.5 197.5 c 128,-1,34
 562 170 562 170 577 150 c 0,35,36
 604 113 604 113 632 113 c 2,37,-1
 654 113 l 1,38,-1
 654 0 l 1,39,-1
 613 0 l 2,40,41
 587 0 587 0 574 12 c 128,-1,42
 561 24 561 24 548 40 c 1,43,-1
 548 0 l 1,44,-1
 139 0 l 2,8,9
EndSplineSet
EndChar

StartChar: tehinitial
Encoding: 65175 65175 87
Width: 637
GlyphClass: 2
Flags: W
AnchorPoint: "ArabicBelow" 358 -116 basechar 0
AnchorPoint: "ArabicAbove" 311 567 basechar 0
LayerCount: 2
Fore
SplineSet
313 395 m 1,0,-1
 256 338 l 1,1,-1
 195 400 l 1,2,-1
 251 457 l 1,3,-1
 313 395 l 1,0,-1
443 400 m 1,4,-1
 386 344 l 1,5,-1
 324 405 l 1,6,-1
 381 462 l 1,7,-1
 443 400 l 1,4,-1
395 97 m 2,8,-1
 395 0 l 1,9,-1
 -10 0 l 1,10,-1
 -10 113 l 1,11,-1
 333 113 l 1,12,13
 333 141 333 141 315 170 c 0,14,15
 309 180 309 180 286 210 c 1,16,-1
 324 320 l 1,17,18
 350 287 350 287 371 229 c 0,19,20
 395 161 395 161 395 97 c 2,8,-1
EndSplineSet
EndChar

StartChar: tehmedial
Encoding: 65176 65176 88
Width: 637
GlyphClass: 2
Flags: W
AnchorPoint: "ArabicBelow" 328 -116 basechar 0
AnchorPoint: "ArabicAbove" 267 553 basechar 0
LayerCount: 2
Fore
SplineSet
269 395 m 1,0,-1
 212 338 l 1,1,-1
 150 400 l 1,2,-1
 207 457 l 1,3,-1
 269 395 l 1,0,-1
399 400 m 1,4,-1
 342 344 l 1,5,-1
 280 405 l 1,6,-1
 337 462 l 1,7,-1
 399 400 l 1,4,-1
-7 1 m 1,8,-1
 -7 113 l 1,9,-1
 305 113 l 1,10,11
 305 139 305 139 284 175 c 0,12,13
 277 187 277 187 263 209 c 1,14,-1
 305 315 l 1,15,16
 314 301 314 301 330 268 c 0,17,18
 350 225 350 225 356.5 197.5 c 128,-1,19
 363 170 363 170 377 150 c 0,20,21
 405 113 405 113 458 113 c 2,22,-1
 645 113 l 1,23,-1
 645 0 l 1,24,-1
 438 0 l 2,25,26
 413 0 413 0 387.5 12 c 128,-1,27
 362 24 362 24 348 40 c 1,28,-1
 348 0 l 1,29,-1
 -7 1 l 1,8,-1
EndSplineSet
EndChar

StartChar: thehfinal
Encoding: 65178 65178 90
Width: 637
GlyphClass: 2
Flags: W
AnchorPoint: "ArabicBelow" 298 -123 basechar 0
AnchorPoint: "ArabicAbove" 296 551 basechar 0
LayerCount: 2
Fore
SplineSet
295 307 m 1,0,-1
 237 250 l 1,1,-1
 176 312 l 1,2,-1
 233 369 l 1,3,-1
 295 307 l 1,0,-1
424 312 m 1,4,-1
 367 255 l 1,5,-1
 305 316 l 1,6,-1
 362 374 l 1,7,-1
 424 312 l 1,4,-1
353 395 m 1,8,-1
 296 338 l 1,9,-1
 234 400 l 1,10,-1
 291 457 l 1,11,-1
 353 395 l 1,8,-1
139 0 m 2,12,13
 75 0 75 0 44 28 c 0,14,15
 9 59 9 59 9 126 c 0,16,17
 9 162 9 162 36 222.5 c 128,-1,18
 63 283 63 283 90 306 c 1,19,-1
 112 306 l 1,20,21
 98 280 98 280 91 265 c 0,22,23
 69 216 69 216 69 187 c 0,24,25
 69 153 69 153 86 136 c 0,26,27
 110 113 110 113 167 113 c 2,28,-1
 504 113 l 1,29,30
 504 139 504 139 483 175 c 0,31,32
 476 187 476 187 462 209 c 1,33,-1
 504 315 l 1,34,35
 513 301 513 301 529 268 c 0,36,37
 549 225 549 225 555.5 197.5 c 128,-1,38
 562 170 562 170 577 150 c 0,39,40
 604 113 604 113 632 113 c 2,41,-1
 654 113 l 1,42,-1
 654 0 l 1,43,-1
 613 0 l 2,44,45
 587 0 587 0 574 12 c 128,-1,46
 561 24 561 24 548 40 c 1,47,-1
 548 0 l 1,48,-1
 139 0 l 2,12,13
EndSplineSet
EndChar

StartChar: thehinitial
Encoding: 65179 65179 91
Width: 637
GlyphClass: 2
Flags: W
AnchorPoint: "ArabicBelow" 331 -123 basechar 0
AnchorPoint: "ArabicAbove" 317 628 basechar 0
LayerCount: 2
Fore
SplineSet
313 386 m 1,0,-1
 256 328 l 1,1,-1
 195 390 l 1,2,-1
 251 447 l 1,3,-1
 313 386 l 1,0,-1
443 390 m 1,4,-1
 386 333 l 1,5,-1
 324 395 l 1,6,-1
 381 452 l 1,7,-1
 443 390 l 1,4,-1
371 474 m 1,8,-1
 315 417 l 1,9,-1
 253 479 l 1,10,-1
 309 536 l 1,11,-1
 371 474 l 1,8,-1
395 97 m 2,12,-1
 395 0 l 1,13,-1
 -8 1 l 5,14,-1
 -8 113 l 5,15,-1
 333 113 l 1,16,17
 333 141 333 141 315 170 c 0,18,19
 309 180 309 180 286 210 c 1,20,-1
 324 320 l 1,21,22
 350 287 350 287 371 229 c 0,23,24
 395 161 395 161 395 97 c 2,12,-1
EndSplineSet
EndChar

StartChar: thehmedial
Encoding: 65180 65180 92
Width: 637
GlyphClass: 2
Flags: W
AnchorPoint: "ArabicBelow" 321 -130 basechar 0
AnchorPoint: "ArabicAbove" 280 621 basechar 0
LayerCount: 2
Fore
SplineSet
283 357 m 1,0,-1
 226 300 l 1,1,-1
 165 361 l 1,2,-1
 222 419 l 1,3,-1
 283 357 l 1,0,-1
413 362 m 1,4,-1
 355 305 l 1,5,-1
 294 366 l 1,6,-1
 351 423 l 1,7,-1
 413 362 l 1,4,-1
342 445 m 1,8,-1
 285 389 l 1,9,-1
 223 451 l 1,10,-1
 280 507 l 1,11,-1
 342 445 l 1,8,-1
-10 0 m 1,12,-1
 -10 113 l 1,13,-1
 305 113 l 1,14,15
 305 139 305 139 284 175 c 0,16,17
 277 187 277 187 263 209 c 1,18,-1
 305 315 l 1,19,20
 314 301 314 301 330 268 c 0,21,22
 350 225 350 225 356.5 197.5 c 128,-1,23
 363 170 363 170 377 150 c 0,24,25
 405 112 405 112 458 113 c 2,26,-1
 648 113 l 1,27,-1
 648 1 l 1,28,-1
 438 0 l 2,29,30
 413 -0 413 -0 387 12 c 0,31,32
 362 24 362 24 348 40 c 1,33,-1
 348 0 l 1,34,-1
 -10 0 l 1,12,-1
EndSplineSet
EndChar

StartChar: jeemfinal
Encoding: 65182 65182 94
Width: 637
GlyphClass: 2
Flags: W
AnchorPoint: "ArabicBelow" 198 -430 basechar 0
AnchorPoint: "ArabicAbove" 137 505 basechar 0
LayerCount: 2
Fore
SplineSet
324 -49 m 1,0,-1
 267 -106 l 1,1,-1
 205 -44 l 1,2,-1
 262 13 l 1,3,-1
 324 -49 l 1,0,-1
EndSplineSet
Refer: 98 65186 S 1 0 0 1 0 0 2
EndChar

StartChar: jeeminitial
Encoding: 65183 65183 95
Width: 637
GlyphClass: 2
Flags: W
AnchorPoint: "ArabicBelow" 307 -191 basechar 0
AnchorPoint: "ArabicAbove" 184 498 basechar 0
LayerCount: 2
Fore
SplineSet
361 -61 m 1,0,-1
 304 -118 l 1,1,-1
 243 -57 l 1,2,-1
 300 0 l 1,3,-1
 361 -61 l 1,0,-1
EndSplineSet
Refer: 99 65187 S 1 0 0 1 0 0 2
EndChar

StartChar: jeemmedial
Encoding: 65184 65184 96
Width: 637
GlyphClass: 2
Flags: W
AnchorPoint: "ArabicBelow" 307 -198 basechar 0
AnchorPoint: "ArabicAbove" 191 519 basechar 0
LayerCount: 2
Fore
SplineSet
361 -61 m 1,0,-1
 304 -118 l 1,1,-1
 243 -57 l 1,2,-1
 300 0 l 1,3,-1
 361 -61 l 1,0,-1
EndSplineSet
Refer: 100 65188 S 1 0 0 1 0 0 2
EndChar

StartChar: hahfinal
Encoding: 65186 65186 98
Width: 637
GlyphClass: 2
Flags: W
AnchorPoint: "ArabicBelow" 220 -368 basechar 0
AnchorPoint: "ArabicAbove" 181 492 basechar 0
LayerCount: 2
Fore
SplineSet
267 221 m 1,0,1
 240 249 240 249 219 263 c 0,2,3
 189 283 189 283 164 283 c 0,4,5
 150 283 150 283 133.5 272.5 c 128,-1,6
 117 262 117 262 101 245 c 1,7,-1
 95 251 l 1,8,9
 118 318 118 318 124 333 c 0,10,11
 147 390 147 390 192 390 c 0,12,13
 220 390 220 390 256 364 c 0,14,15
 278 348 278 348 319 306 c 0,16,17
 348 278 348 278 368 264 c 0,18,19
 396 246 396 246 420 246 c 2,20,-1
 500 246 l 1,21,-1
 464 138 l 1,22,-1
 407 138 l 1,23,24
 412 127 412 127 424 122 c 0,25,26
 446 113 446 113 501 113 c 2,27,-1
 650 113 l 1,28,-1
 650 0 l 1,29,-1
 484 0 l 2,30,31
 421 0 421 0 397 54 c 0,32,33
 383 85 383 85 383 138 c 1,34,-1
 329 138 l 2,35,36
 247 138 247 138 188 89 c 0,37,38
 127 37 127 37 127 -41 c 0,39,40
 127 -114 127 -114 208 -162 c 0,41,42
 285 -207 285 -207 387 -207 c 2,43,-1
 543 -207 l 1,44,45
 492 -251 492 -251 442 -287 c 0,46,47
 399 -318 399 -318 377 -318 c 0,48,49
 271 -318 271 -318 188 -258 c 0,50,51
 94 -191 94 -191 94 -80 c 0,52,53
 94 -27 94 -27 111 27 c 0,54,55
 130 93 130 93 166 141 c 0,56,57
 208 198 208 198 267 221 c 1,0,1
EndSplineSet
EndChar

StartChar: hahinitial
Encoding: 65187 65187 99
Width: 637
GlyphClass: 2
Flags: W
AnchorPoint: "ArabicBelow" 324 -89 basechar 0
AnchorPoint: "ArabicAbove" 255 471 basechar 0
LayerCount: 2
Fore
SplineSet
355 187 m 1,0,1
 319 217 319 217 286.5 232.5 c 128,-1,2
 254 248 254 248 228 248 c 0,3,4
 208 248 208 248 181 228 c 0,5,6
 163 213 163 213 154 201 c 1,7,-1
 145 210 l 1,8,9
 167 262 167 262 190 314 c 1,10,11
 218 357 218 357 250 357 c 0,12,13
 283 357 283 357 311 339 c 0,14,15
 344 319 344 319 409 258 c 0,16,17
 459 211 459 211 493 201 c 0,18,19
 513 195 513 195 580 195 c 1,20,-1
 553 88 l 1,21,-1
 398 88 l 2,22,23
 350 88 350 88 305 65 c 0,24,25
 236 30 236 30 221 23 c 0,26,27
 173 0 173 0 124 0 c 2,28,-1
 -10 0 l 5,29,-1
 -10 113 l 5,30,-1
 115 113 l 2,31,32
 157 113 157 113 203 127 c 0,33,34
 240 138 240 138 286 158 c 0,35,36
 348 184 348 184 355 187 c 1,0,1
EndSplineSet
EndChar

StartChar: hahmedial
Encoding: 65188 65188 100
Width: 637
GlyphClass: 2
Flags: W
AnchorPoint: "ArabicBelow" 330 -41 basechar 0
AnchorPoint: "ArabicAbove" 221 505 basechar 0
LayerCount: 2
Fore
SplineSet
338 222 m 1,0,1
 298 252 298 252 285 260 c 0,2,3
 253 279 253 279 226 279 c 0,4,5
 211 279 211 279 189 262 c 0,6,7
 162 242 162 242 146 221 c 1,8,-1
 137 230 l 1,9,10
 179 346 l 1,11,12
 206 396 206 396 236 396 c 0,13,14
 255 396 255 396 283 379 c 0,15,16
 293 374 293 374 335 339 c 0,17,18
 372 308 372 308 404 289 c 0,19,20
 438 267 438 267 483 257 c 128,-1,21
 528 247 528 247 582 247 c 1,22,-1
 556 140 l 1,23,-1
 516 140 l 1,24,25
 516 126 516 126 524 122 c 0,26,27
 537 113 537 113 566 113 c 2,28,-1
 648 113 l 1,29,-1
 648 0 l 1,30,-1
 554 0 l 2,31,32
 512 0 512 0 492 22 c 0,33,34
 476 39 476 39 476 68 c 0,35,36
 476 78 476 78 479.5 103.5 c 128,-1,37
 483 129 483 129 486 140 c 1,38,-1
 428 140 l 2,39,40
 372 140 372 140 315 104 c 0,41,42
 219 44 219 44 206 36 c 0,43,44
 144 0 144 0 79 0 c 2,45,-1
 -9 0 l 5,46,-1
 -9 113 l 5,47,-1
 66 113 l 2,48,49
 119 113 119 113 172 135 c 0,50,51
 202 148 202 148 260 183 c 0,52,53
 313 214 313 214 338 222 c 1,0,1
EndSplineSet
EndChar

StartChar: khahfinal
Encoding: 65190 65190 102
Width: 637
GlyphClass: 2
Flags: W
AnchorPoint: "ArabicBelow" 198 -362 basechar 0
AnchorPoint: "ArabicAbove" 187 640 basechar 0
LayerCount: 2
Fore
SplineSet
257 498 m 5,0,-1
 200 441 l 5,1,-1
 139 503 l 5,2,-1
 196 560 l 5,3,-1
 257 498 l 5,0,-1
EndSplineSet
Refer: 98 65186 N 1 0 0 1 0 0 2
EndChar

StartChar: khahinitial
Encoding: 65191 65191 103
Width: 637
GlyphClass: 2
Flags: W
AnchorPoint: "ArabicBelow" 253 -68 basechar 0
AnchorPoint: "ArabicAbove" 137 621 basechar 0
LayerCount: 2
Fore
SplineSet
200 466 m 1,0,-1
 143 409 l 1,1,-1
 81 470 l 1,2,-1
 138 527 l 1,3,-1
 200 466 l 1,0,-1
EndSplineSet
Refer: 99 65187 S 1 0 0 1 0 0 2
EndChar

StartChar: khahmedial
Encoding: 65192 65192 104
Width: 637
GlyphClass: 2
Flags: W
AnchorPoint: "ArabicBelow" 232 -55 basechar 0
AnchorPoint: "ArabicAbove" 137 676 basechar 0
LayerCount: 2
Fore
SplineSet
189 511 m 1,0,-1
 133 454 l 1,1,-1
 71 515 l 1,2,-1
 128 572 l 1,3,-1
 189 511 l 1,0,-1
EndSplineSet
Refer: 100 65188 S 1 0 0 1 0 0 2
EndChar

StartChar: dalfinal
Encoding: 65194 65194 106
Width: 637
GlyphClass: 2
Flags: W
AnchorPoint: "ArabicBelow" 261 -130 basechar 0
AnchorPoint: "ArabicAbove" 248 560 basechar 0
LayerCount: 2
Fore
SplineSet
390 42 m 1,0,1
 390 28 390 28 383 16 c 0,2,3
 373 0 373 0 358 0 c 2,4,-1
 154 0 l 2,5,6
 139 0 139 0 126 22.5 c 128,-1,7
 113 45 113 45 113 82 c 0,8,9
 113 101 113 101 116.5 121.5 c 128,-1,10
 120 142 120 142 127 165 c 1,11,12
 133 147 133 147 138 139 c 0,13,14
 154 113 154 113 177 113 c 2,15,-1
 317 113 l 2,16,17
 333 113 333 113 343 121 c 0,18,19
 349 126 349 126 349 133 c 0,20,21
 349 158 349 158 323 196 c 0,22,23
 292 245 292 245 232 288 c 1,24,-1
 247 417 l 1,25,26
 249 417 249 417 266 401 c 0,27,28
 289 379 289 379 311 353 c 0,29,30
 336 322 336 322 363 274 c 0,31,32
 373 255 373 255 388 223 c 0,33,34
 410 171 410 171 426 150 c 0,35,36
 438 134 438 134 456 123.5 c 128,-1,37
 474 113 474 113 487 113 c 2,38,-1
 648 113 l 1,39,-1
 648 0 l 1,40,-1
 471 0 l 2,41,42
 443 0 443 0 422.5 11 c 128,-1,43
 402 22 402 22 390 42 c 1,0,1
EndSplineSet
EndChar

StartChar: thalfinal
Encoding: 65196 65196 108
Width: 637
GlyphClass: 2
Flags: W
AnchorPoint: "ArabicBelow" 198 -123 basechar 0
AnchorPoint: "ArabicAbove" 150 669 basechar 0
LayerCount: 2
Fore
SplineSet
207 522 m 1,0,-1
 150 465 l 1,1,-1
 89 526 l 1,2,-1
 146 583 l 1,3,-1
 207 522 l 1,0,-1
EndSplineSet
Refer: 106 65194 S 1 0 0 1 0 0 2
EndChar

StartChar: rehfinal
Encoding: 65198 65198 110
Width: 637
GlyphClass: 2
Flags: W
AnchorPoint: "ArabicBelow" 248 -341 basechar 0
AnchorPoint: "ArabicAbove" 364 389 basechar 0
LayerCount: 2
Fore
SplineSet
650 0 m 1,0,-1
 484 0 l 2,1,2
 463 0 463 0 446 10 c 0,3,4
 441 13 441 13 433 19 c 1,5,6
 433 -47 433 -47 408 -114 c 0,7,8
 380 -190 380 -190 334 -237 c 0,9,10
 280 -291 280 -291 214 -291 c 0,11,12
 192 -291 192 -291 161.5 -273.5 c 128,-1,13
 131 -256 131 -256 114 -234 c 1,14,15
 224 -202 224 -202 306 -130 c 0,16,17
 392 -54 392 -54 392 18 c 0,18,19
 392 48 392 48 363 92 c 0,20,21
 354 106 354 106 334 130 c 1,22,-1
 386 264 l 1,23,24
 395 243 395 243 400 232 c 0,25,26
 415 197 415 197 424 183 c 0,27,28
 450 138 450 138 476 127 c 0,29,30
 521 108 521 108 650 113 c 1,31,-1
 650 0 l 1,0,-1
EndSplineSet
EndChar

StartChar: zainfinal
Encoding: 65200 65200 112
Width: 637
GlyphClass: 2
Flags: W
AnchorPoint: "ArabicBelow" 198 -348 basechar 0
AnchorPoint: "ArabicAbove" 253 498 basechar 0
LayerCount: 2
Fore
SplineSet
320 353 m 1,0,-1
 273 307 l 1,1,-1
 217 362 l 1,2,-1
 264 409 l 1,3,-1
 320 353 l 1,0,-1
EndSplineSet
Refer: 110 65198 S 1 0 0 1 0 0 2
EndChar

StartChar: seenfinal
Encoding: 65202 65202 114
Width: 637
GlyphClass: 2
Flags: W
AnchorPoint: "ArabicBelow" 469 -102 basechar 0
AnchorPoint: "ArabicAbove" 463 464 basechar 0
LayerCount: 2
Fore
SplineSet
594 55 m 0,0,1
 578 26 578 26 543 21 c 0,2,-1
 536 21 l 2,3,4
 519 21 519 21 499 29 c 0,5,6
 466 43 466 43 446 77 c 1,7,8
 436 58 436 58 414 39 c 0,9,10
 386 16 386 16 368 16 c 2,11,-1
 345 16 l 1,12,-1
 345 -5 l 2,13,14
 345 -74 345 -74 288 -146 c 0,15,16
 255 -188 255 -188 216 -204 c 0,17,18
 187 -215 187 -215 151 -217 c 0,19,20
 88 -219 88 -219 46 -168 c 0,21,22
 10 -126 10 -126 10 -40 c 0,23,24
 10 3 10 3 36 69 c 0,25,26
 58 125 58 125 73 142 c 1,27,-1
 86 142 l 1,28,29
 76 115 76 115 69 86 c 0,30,31
 57 38 57 38 57 13 c 0,32,33
 57 -45 57 -45 100 -81 c 0,34,35
 125 -103 125 -103 172 -104 c 256,36,37
 192 -104 192 -104 216 -96 c 0,38,39
 247 -86 247 -86 276 -59 c 0,40,41
 288 -49 288 -49 300 -23 c 1,42,43
 300 10 300 10 266 60 c 0,44,45
 255 76 255 76 232 102 c 1,46,-1
 282 225 l 1,47,48
 293 191 293 191 319 162 c 0,49,50
 350 127 350 127 366 127 c 128,-1,51
 382 127 382 127 407 160 c 0,52,53
 430 188 430 188 444 242 c 1,54,-1
 452 242 l 1,55,56
 466 186 466 186 488 160 c 0,57,58
 511 130 511 130 537 130 c 0,59,60
 559 130 559 130 559 150 c 0,61,62
 559 161 559 161 542 184 c 0,63,64
 535 192 535 192 523 205 c 1,65,-1
 558 299 l 1,66,67
 591 255 591 255 601 229 c 0,68,69
 615 191 615 191 618 151 c 0,70,71
 620 113 620 113 636 113 c 2,72,-1
 674 113 l 1,73,-1
 674 0 l 1,74,-1
 632 0 l 2,75,76
 623 0 623 0 610 23 c 0,77,78
 607 30 607 30 599 51 c 1,79,80
 597 60 597 60 594 55 c 0,0,1
EndSplineSet
EndChar

StartChar: seeninitial
Encoding: 65203 65203 115
Width: 637
GlyphClass: 2
Flags: W
AnchorPoint: "ArabicBelow" 401 -123 basechar 0
AnchorPoint: "ArabicAbove" 394 437 basechar 0
LayerCount: 2
Fore
SplineSet
582 117 m 4,0,1
 582 49 582 49 561 22 c 4,2,3
 545 0 545 0 515 0 c 4,4,5
 481 0 481 0 460.5 13.5 c 132,-1,6
 440 27 440 27 418 61 c 5,7,8
 403 39 403 39 383 24 c 4,9,10
 350 0 350 0 309 0 c 4,11,12
 262 0 262 0 238 24 c 4,13,14
 224 39 224 39 216 68 c 5,15,16
 189 43 189 43 151 23 c 4,17,18
 108 0 108 0 72 0 c 6,19,-1
 -14 0 l 5,20,-1
 -14 113 l 5,21,-1
 59 113 l 6,22,23
 102 113 102 113 149 140 c 132,-1,24
 196 167 196 167 240 218 c 5,25,-1
 254 218 l 5,26,-1
 254 167 l 6,27,28
 254 150 254 150 266 134 c 4,29,30
 283 113 283 113 313 113 c 4,31,32
 350 113 350 113 374 146 c 4,33,34
 393 171 393 171 407 224 c 5,35,-1
 419 224 l 5,36,37
 432 187 432 187 443 168 c 4,38,39
 474 112 474 112 510 112 c 4,40,41
 520 112 520 112 526 119.5 c 132,-1,42
 532 127 532 127 532 138 c 4,43,44
 532 152 532 152 516 175 c 4,45,46
 503 193 503 193 492 204 c 5,47,-1
 526 288 l 5,48,49
 546 266 546 266 566 207 c 4,50,51
 582 159 582 159 582 117 c 4,0,1
EndSplineSet
EndChar

StartChar: seenmedial
Encoding: 65204 65204 116
Width: 637
GlyphClass: 2
Flags: W
AnchorPoint: "ArabicBelow" 362 -96 basechar 0
AnchorPoint: "ArabicAbove" 341 444 basechar 0
LayerCount: 2
Fore
SplineSet
651 113 m 1,0,-1
 651 0 l 1,1,-1
 608 0 l 2,2,3
 587 0 587 0 565 10 c 0,4,5
 538 22 538 22 525 43 c 1,6,7
 519 28 519 28 515 22 c 0,8,9
 502 0 502 0 485 0 c 0,10,11
 450 0 450 0 425 14.5 c 128,-1,12
 400 29 400 29 379 61 c 1,13,14
 364 39 364 39 344 24 c 0,15,16
 311 0 311 0 270 0 c 0,17,18
 222 0 222 0 199 24 c 0,19,20
 184 39 184 39 176 68 c 1,21,22
 150 43 150 43 112 23 c 0,23,24
 68 0 68 0 32 0 c 2,25,-1
 -14 0 l 1,26,-1
 -14 113 l 1,27,-1
 19 113 l 2,28,29
 64 113 64 113 111.5 140 c 128,-1,30
 159 167 159 167 203 218 c 1,31,-1
 214 218 l 1,32,-1
 214 167 l 2,33,34
 214 150 214 150 226 134 c 0,35,36
 243 113 243 113 274 113 c 0,37,38
 311 113 311 113 337 146 c 0,39,40
 360 174 360 174 373 224 c 1,41,-1
 386 224 l 1,42,43
 397 187 397 187 406 168 c 0,44,45
 434 113 434 113 471 113 c 0,46,47
 481 113 481 113 487 120 c 128,-1,48
 493 127 493 127 493 138 c 0,49,50
 493 155 493 155 478 182 c 0,51,52
 473 191 473 191 463 207 c 1,53,-1
 506 287 l 1,54,55
 519 266 519 266 528 242 c 0,56,57
 535 222 535 222 542.5 191 c 128,-1,58
 550 160 550 160 567 139 c 0,59,60
 588 113 588 113 618 113 c 2,61,-1
 651 113 l 1,0,-1
EndSplineSet
EndChar

StartChar: sheenfinal
Encoding: 65206 65206 118
Width: 637
GlyphClass: 2
Flags: W
AnchorPoint: "ArabicBelow" 480 -133 basechar 0
AnchorPoint: "ArabicAbove" 416 608 basechar 0
LayerCount: 2
Fore
SplineSet
482 434 m 1,0,-1
 425 377 l 1,1,-1
 363 439 l 1,2,-1
 420 496 l 1,3,-1
 482 434 l 1,0,-1
553 351 m 1,4,-1
 496 293 l 1,5,-1
 435 355 l 1,6,-1
 492 412 l 1,7,-1
 553 351 l 1,4,-1
424 346 m 1,8,-1
 367 289 l 1,9,-1
 305 350 l 1,10,-1
 362 407 l 1,11,-1
 424 346 l 1,8,-1
EndSplineSet
Refer: 114 65202 N 1 0 0 1 0 0 2
EndChar

StartChar: sheeninitial
Encoding: 65207 65207 119
Width: 637
GlyphClass: 2
Flags: W
AnchorPoint: "ArabicBelow" 369 -102 basechar 0
AnchorPoint: "ArabicAbove" 341 594 basechar 0
LayerCount: 2
Fore
SplineSet
353 354 m 1,0,-1
 296 297 l 1,1,-1
 235 358 l 1,2,-1
 292 415 l 1,3,-1
 353 354 l 1,0,-1
483 359 m 1,4,-1
 426 302 l 1,5,-1
 365 364 l 1,6,-1
 422 420 l 1,7,-1
 483 359 l 1,4,-1
412 443 m 1,8,-1
 355 386 l 1,9,-1
 293 448 l 1,10,-1
 350 505 l 1,11,-1
 412 443 l 1,8,-1
EndSplineSet
Refer: 115 65203 S 1 0 0 1 0 0 2
EndChar

StartChar: sheenmedial
Encoding: 65208 65208 120
Width: 637
GlyphClass: 2
Flags: W
AnchorPoint: "ArabicBelow" 375 -102 basechar 0
AnchorPoint: "ArabicAbove" 348 573 basechar 0
LayerCount: 2
Fore
SplineSet
356 319 m 1,0,-1
 299 262 l 1,1,-1
 237 324 l 1,2,-1
 294 381 l 1,3,-1
 356 319 l 1,0,-1
485 324 m 1,4,-1
 428 267 l 1,5,-1
 366 328 l 1,6,-1
 423 386 l 1,7,-1
 485 324 l 1,4,-1
414 407 m 1,8,-1
 357 350 l 1,9,-1
 295 412 l 1,10,-1
 352 469 l 1,11,-1
 414 407 l 1,8,-1
EndSplineSet
Refer: 116 65204 S 1 0 0 1 0 0 2
EndChar

StartChar: sadisolated
Encoding: 65209 65209 121
Width: 637
GlyphClass: 2
Flags: W
AnchorPoint: "ArabicBelow" 463 -156 basechar 0
AnchorPoint: "ArabicAbove" 405 412 basechar 0
LayerCount: 2
Fore
SplineSet
347 -15 m 21,0,1
 347 -84 347 -84 290 -155 c 4,2,3
 257 -197 257 -197 218 -213 c 4,4,5
 189 -225 189 -225 153 -226 c 4,6,7
 90 -229 90 -229 48 -178 c 4,8,9
 12 -135 12 -135 12 -50 c 4,10,11
 12 -6 12 -6 38 60 c 4,12,13
 60 115 60 115 75 133 c 5,14,-1
 88 133 l 5,15,16
 78 105 78 105 71 76 c 4,17,18
 59 28 59 28 59 3 c 4,19,20
 59 -55 59 -55 102 -91 c 4,21,22
 127 -113 127 -113 174 -113 c 260,23,24
 194 -113 194 -113 219 -105 c 4,25,26
 249 -95 249 -95 278 -69 c 4,27,28
 290 -59 290 -59 302 -33 c 5,29,30
 302 0 302 0 267 51 c 4,31,32
 257 67 257 67 234 92 c 5,33,-1
 284 215 l 5,34,35
 292 189 292 189 321 152 c 4,36,37
 347 118 347 118 372 118 c 4,38,39
 378 117 378 117 405 170 c 4,40,41
 432 221 432 221 468 268 c 4,42,43
 506 320 506 320 534 321 c 4,44,45
 555 323 555 323 570 309 c 4,46,47
 597 283 597 283 608 257 c 4,48,49
 625 212 625 212 625 143 c 4,50,51
 625 90 625 90 619 54 c 4,52,53
 611 -0 611 -0 591 -0 c 6,54,-1
 347 0 l 5,55,-1
 347 -15 l 21,0,1
593 131 m 4,57,58
 593 159 593 159 568 186 c 4,59,60
 545 212 545 212 526 212 c 4,61,62
 501 212 501 212 473 191 c 4,63,64
 439 165 439 165 402 110 c 5,65,-1
 573 110 l 6,66,67
 580 110 580 110 586 115 c 4,68,69
 593 122 593 122 593 131 c 4,57,58
EndSplineSet
EndChar

StartChar: sadfinal
Encoding: 65210 65210 122
Width: 637
GlyphClass: 2
Flags: W
AnchorPoint: "ArabicBelow" 498 -155 basechar 0
AnchorPoint: "ArabicAbove" 357 433 basechar 0
LayerCount: 2
Fore
SplineSet
649 0 m 1,0,-1
 347 0 l 1,1,-1
 347 -15 l 17,2,3
 347 -84 347 -84 290 -155 c 0,4,5
 257 -197 257 -197 218 -213 c 0,6,7
 189 -225 189 -225 153 -226 c 0,8,9
 90 -229 90 -229 48 -178 c 0,10,11
 12 -135 12 -135 12 -50 c 0,12,13
 12 -6 12 -6 38 60 c 0,14,15
 60 115 60 115 75 133 c 1,16,-1
 88 133 l 1,17,18
 78 105 78 105 71 76 c 0,19,20
 59 28 59 28 59 3 c 0,21,22
 59 -55 59 -55 102 -91 c 0,23,24
 127 -113 127 -113 174 -113 c 256,25,26
 194 -113 194 -113 219 -105 c 0,27,28
 249 -95 249 -95 278 -69 c 0,29,30
 290 -59 290 -59 302 -33 c 1,31,32
 302 0 302 0 267 51 c 0,33,34
 257 67 257 67 234 92 c 1,35,-1
 284 215 l 1,36,37
 292 189 292 189 321 152 c 0,38,39
 347 118 347 118 372 118 c 0,40,41
 378 117 378 117 405 170 c 0,42,43
 432 221 432 221 468 268 c 0,44,45
 506 320 506 320 534 321 c 0,46,47
 555 323 555 323 570 309 c 0,48,49
 597 283 597 283 608 257 c 0,50,51
 625 212 625 212 625 143 c 0,52,53
 625 113 l 1,54,-1
 649 113 l 1,55,-1
 649 0 l 1,0,-1
593 131 m 0,56,57
 593 159 593 159 568 186 c 0,58,59
 545 212 545 212 526 212 c 0,60,61
 501 212 501 212 473 191 c 0,62,63
 439 165 439 165 402 110 c 1,64,-1
 573 110 l 2,65,66
 580 110 580 110 586 115 c 0,67,68
 593 122 593 122 593 131 c 0,56,57
EndSplineSet
EndChar

StartChar: sadinitial
Encoding: 65211 65211 123
Width: 637
GlyphClass: 2
Flags: W
AnchorPoint: "ArabicBelow" 423 -109 basechar 0
AnchorPoint: "ArabicAbove" 451 485 basechar 0
LayerCount: 2
Fore
SplineSet
614 143 m 0,0,1
 614 90 614 90 605 54 c 0,2,3
 592 0 592 0 561 0 c 2,4,-1
 313 0 l 2,5,6
 246 0 246 0 207 23 c 0,7,8
 171 43 171 43 150 88 c 1,9,10
 131 53 131 53 112 32 c 0,11,12
 81 0 81 0 50 0 c 2,13,-1
 -11 0 l 5,14,-1
 -11 113 l 5,15,-1
 31 113 l 2,16,17
 63 113 63 113 85 129 c 0,18,19
 105 142 105 142 126 174.5 c 128,-1,20
 147 207 147 207 170 241 c 1,21,22
 178 213 178 213 196 183 c 0,23,24
 217 143 217 143 236 135 c 1,25,26
 278 186 278 186 286 195 c 0,27,28
 334 249 334 249 375 280 c 0,29,30
 433 324 433 324 474 324 c 0,31,32
 502 324 502 324 528 311 c 0,33,34
 565 294 565 294 587 258 c 0,35,36
 614 213 614 213 614 143 c 0,0,1
572 133 m 0,37,38
 572 162 572 162 534 189 c 0,39,40
 498 215 498 215 470 215 c 0,41,42
 428 215 428 215 389 196 c 0,43,44
 336 171 336 171 280 113 c 1,45,-1
 542 113 l 2,46,47
 552 113 552 113 561 118 c 0,48,49
 572 124 572 124 572 133 c 0,37,38
EndSplineSet
EndChar

StartChar: sadmedial
Encoding: 65212 65212 124
Width: 637
GlyphClass: 2
Flags: W
AnchorPoint: "ArabicBelow" 410 -130 basechar 0
AnchorPoint: "ArabicAbove" 444 471 basechar 0
LayerCount: 2
Fore
SplineSet
572 133 m 0,0,1
 572 162 572 162 534 189 c 0,2,3
 498 215 498 215 470 215 c 0,4,5
 428 215 428 215 389 196 c 0,6,7
 336 171 336 171 280 113 c 1,8,-1
 542 113 l 2,9,10
 552 113 552 113 561 118 c 0,11,12
 572 124 572 124 572 133 c 0,0,1
613 113 m 1,13,-1
 650 113 l 1,14,-1
 650 0 l 1,15,-1
 313 0 l 2,16,17
 246 0 246 0 207 23 c 0,18,19
 171 43 171 43 150 88 c 1,20,21
 131 53 131 53 112 32 c 0,22,23
 81 0 81 0 50 0 c 2,24,-1
 -10 0 l 1,25,-1
 -10 113 l 1,26,-1
 31 113 l 2,27,28
 63 113 63 113 85 129 c 0,29,30
 105 142 105 142 126 174.5 c 128,-1,31
 147 207 147 207 170 241 c 1,32,33
 178 213 178 213 196 183 c 0,34,35
 217 143 217 143 236 135 c 1,36,37
 278 186 278 186 286 195 c 0,38,39
 334 249 334 249 375 280 c 0,40,41
 433 324 433 324 474 324 c 0,42,43
 505 324 505 324 528 315 c 0,44,45
 565 300 565 300 587 266 c 0,46,47
 613 221 613 221 613 143 c 2,48,-1
 613 113 l 1,13,-1
EndSplineSet
EndChar

StartChar: dadfinal
Encoding: 65214 65214 126
Width: 637
GlyphClass: 2
Flags: W
AnchorPoint: "ArabicBelow" 494 -127 basechar 0
AnchorPoint: "ArabicAbove" 364 521 basechar 0
LayerCount: 2
Fore
SplineSet
429 350 m 1,0,-1
 372 293 l 1,1,-1
 311 354 l 1,2,-1
 368 411 l 1,3,-1
 429 350 l 1,0,-1
EndSplineSet
Refer: 122 65210 N 1 0 0 1 0 0 2
EndChar

StartChar: dadinitial
Encoding: 65215 65215 127
Width: 637
GlyphClass: 2
Flags: W
AnchorPoint: "ArabicBelow" 362 -109 basechar 0
AnchorPoint: "ArabicAbove" 280 546 basechar 0
LayerCount: 2
Fore
SplineSet
352 395 m 1,0,-1
 295 338 l 1,1,-1
 233 400 l 1,2,-1
 290 457 l 1,3,-1
 352 395 l 1,0,-1
EndSplineSet
Refer: 123 65211 S 1 0 0 1 0 0 2
EndChar

StartChar: dadmedial
Encoding: 65216 65216 128
Width: 637
GlyphClass: 2
Flags: W
AnchorPoint: "ArabicBelow" 410 -96 basechar 0
AnchorPoint: "ArabicAbove" 280 553 basechar 0
LayerCount: 2
Fore
SplineSet
352 395 m 1,0,-1
 295 338 l 1,1,-1
 233 400 l 1,2,-1
 290 457 l 1,3,-1
 352 395 l 1,0,-1
EndSplineSet
Refer: 124 65212 S 1 0 0 1 0 0 2
EndChar

StartChar: tahfinal
Encoding: 65218 65218 130
Width: 637
GlyphClass: 2
Flags: W
AnchorPoint: "ArabicBelow" 327 -143 basechar 0
AnchorPoint: "ArabicAbove" 409 505 basechar 0
LayerCount: 2
Fore
SplineSet
646 0 m 1,0,-1
 125 0 l 2,1,2
 89 0 89 0 64 38 c 0,3,4
 47 64 47 64 36 107 c 0,5,6
 29 145 l 1,7,8
 43 134 43 134 51 129 c 0,9,10
 80 113 80 113 102 113 c 2,11,-1
 147 113 l 2,12,13
 167 113 167 113 185 126 c 0,14,15
 198 136 198 136 212 155 c 1,16,17
 205 234 205 234 186 344 c 0,18,19
 166 461 166 461 149 493 c 1,20,-1
 204 630 l 1,21,22
 223 593 223 593 239 498 c 0,23,24
 251 424 251 424 259 324 c 0,25,26
 266 241 266 241 266 201 c 1,27,28
 278 218 278 218 291 234 c 0,29,30
 322 272 322 272 350 295 c 0,31,32
 391 328 391 328 423 328 c 0,33,34
 467 328 467 328 506 286 c 0,35,36
 550 238 550 238 550 175 c 2,37,-1
 550 167 l 1,38,-1
 550 160 l 1,39,-1
 550 155 l 2,40,41
 550 144 550 144 549.5 133 c 128,-1,42
 549 122 549 122 547 113 c 1,43,-1
 646 113 l 1,44,-1
 646 0 l 1,0,-1
507 138 m 1,45,46
 494 168 494 168 460 191 c 0,47,48
 430 212 430 212 403 212 c 0,49,50
 379 212 379 212 348 195 c 0,51,52
 302 170 302 170 246 113 c 1,53,-1
 457 113 l 2,54,55
 473 113 473 113 486 119.5 c 128,-1,56
 499 126 499 126 507 138 c 1,45,46
EndSplineSet
EndChar

StartChar: tahinitial
Encoding: 65219 65219 131
Width: 637
GlyphClass: 2
Flags: W
AnchorPoint: "ArabicBelow" 297 -109 basechar 0
AnchorPoint: "ArabicAbove" 345 546 basechar 0
LayerCount: 2
Fore
SplineSet
492 175 m 0,0,1
 492 96 492 96 480 57 c 0,2,3
 462 0 462 0 416 0 c 2,4,-1
 -11 0 l 1,5,-1
 -11 113 l 1,6,-1
 89 113 l 2,7,8
 110 113 110 113 127 126 c 0,9,10
 140 136 140 136 154 155 c 1,11,12
 146 241 146 241 128 344 c 0,13,14
 108 461 108 461 91 493 c 1,15,-1
 146 630 l 1,16,17
 165 593 165 593 181 498 c 0,18,19
 193 424 193 424 201 324 c 0,20,21
 208 241 208 241 208 201 c 1,22,23
 231 232 231 232 232 234 c 0,24,25
 264 272 264 272 293 295 c 0,26,27
 334 328 334 328 366 328 c 0,28,29
 409 328 409 328 449 286 c 0,30,31
 492 238 492 238 492 175 c 0,0,1
450 138 m 1,32,33
 437 168 437 168 402 191 c 0,34,35
 372 212 372 212 346 212 c 0,36,37
 322 212 322 212 290 195 c 0,38,39
 244 170 244 170 188 113 c 1,40,-1
 399 113 l 2,41,42
 415 113 415 113 428 119.5 c 128,-1,43
 441 126 441 126 450 138 c 1,32,33
EndSplineSet
EndChar

StartChar: tahmedial
Encoding: 65220 65220 132
Width: 637
GlyphClass: 2
Flags: W
AnchorPoint: "ArabicBelow" 311 -109 basechar 0
AnchorPoint: "ArabicAbove" 366 526 basechar 0
LayerCount: 2
Fore
SplineSet
648 0 m 1,0,-1
 -15 0 l 1,1,-1
 -15 113 l 1,2,-1
 103 113 l 2,3,4
 123 113 123 113 141 126 c 0,5,6
 154 136 154 136 168 155 c 1,7,8
 160 241 160 241 142 344 c 0,9,10
 122 461 122 461 105 493 c 1,11,-1
 160 630 l 1,12,13
 179 593 179 593 195 498 c 0,14,15
 207 424 207 424 215 324 c 0,16,17
 222 241 222 241 222 201 c 1,18,19
 245 232 245 232 246 234 c 0,20,21
 278 272 278 272 306 295 c 0,22,23
 347 328 347 328 379 328 c 0,24,25
 423 328 423 328 462 286 c 0,26,27
 506 238 506 238 506 175 c 0,28,29
 506 159 506 159 505.5 143 c 128,-1,30
 505 127 505 127 503 113 c 1,31,-1
 648 113 l 1,32,-1
 648 0 l 1,0,-1
463 138 m 1,33,34
 450 168 450 168 416 191 c 0,35,36
 385 212 385 212 359 212 c 0,37,38
 335 212 335 212 304 195 c 0,39,40
 258 170 258 170 202 113 c 1,41,-1
 413 113 l 2,42,43
 429 113 429 113 442 119.5 c 128,-1,44
 455 126 455 126 463 138 c 1,33,34
EndSplineSet
EndChar

StartChar: zahfinal
Encoding: 65222 65222 134
Width: 637
GlyphClass: 2
Flags: W
AnchorPoint: "ArabicBelow" 341 -109 basechar 0
AnchorPoint: "ArabicAbove" 410 594 basechar 0
LayerCount: 2
Fore
SplineSet
442 427 m 1,0,-1
 385 370 l 1,1,-1
 324 432 l 1,2,-1
 381 489 l 1,3,-1
 442 427 l 1,0,-1
EndSplineSet
Refer: 130 65218 S 1 0 0 1 0 0 2
EndChar

StartChar: zahinitial
Encoding: 65223 65223 135
Width: 637
GlyphClass: 2
Flags: W
AnchorPoint: "ArabicBelow" 239 -96 basechar 0
AnchorPoint: "ArabicAbove" 360 612 basechar 0
LayerCount: 2
Fore
SplineSet
419 446 m 1,0,-1
 362 389 l 1,1,-1
 300 451 l 1,2,-1
 357 508 l 1,3,-1
 419 446 l 1,0,-1
EndSplineSet
Refer: 131 65219 N 1 0 0 1 0 0 2
EndChar

StartChar: zahmedial
Encoding: 65224 65224 136
Width: 637
GlyphClass: 2
Flags: W
AnchorPoint: "ArabicBelow" 253 -89 basechar 0
AnchorPoint: "ArabicAbove" 394 594 basechar 0
LayerCount: 2
Fore
SplineSet
453 441 m 1,0,-1
 396 385 l 1,1,-1
 335 446 l 1,2,-1
 391 503 l 1,3,-1
 453 441 l 1,0,-1
EndSplineSet
Refer: 132 65220 N 1 0 0 1 0 0 2
EndChar

StartChar: ainfinal
Encoding: 65226 65226 138
Width: 637
GlyphClass: 2
Flags: W
AnchorPoint: "ArabicBelow" 239 -403 basechar 0
AnchorPoint: "ArabicAbove" 280 471 basechar 0
LayerCount: 2
Fore
SplineSet
368 237 m 1,0,1
 351 246 351 246 335 251 c 0,2,3
 311 260 311 260 293 260 c 0,4,5
 271 260 271 260 232 251 c 0,6,7
 213 246 213 246 195 242 c 1,8,9
 230 231 230 231 240 228 c 0,10,11
 267 218 267 218 286 208 c 1,12,13
 307 218 307 218 328 225.5 c 128,-1,14
 349 233 349 233 368 237 c 1,0,1
196 141 m 1,15,16
 172 155 172 155 142.5 163.5 c 128,-1,17
 113 172 113 172 91 172 c 1,18,-1
 91 183 l 1,19,20
 98 200 98 200 112 235 c 0,21,22
 130 278 130 278 136 287 c 1,23,24
 165 305 165 305 195 316 c 0,25,26
 243 332 243 332 297 332 c 0,27,28
 339 332 339 332 397 312 c 0,29,30
 456 292 456 292 461 276 c 0,31,32
 462 275 462 275 462 270 c 0,33,34
 462 249 462 249 448.5 212 c 128,-1,35
 435 175 435 175 426 170 c 1,36,37
 417 166 417 166 411 164 c 0,38,39
 392 157 392 157 377 150 c 1,40,41
 404 132 404 132 425 124 c 0,42,43
 455 113 455 113 491 113 c 2,44,-1
 648 113 l 5,45,-1
 648 0 l 5,46,-1
 475 0 l 2,47,48
 424 0 424 0 357 35 c 0,49,50
 303 64 303 64 269 95 c 1,51,52
 229 72 229 72 193 39 c 0,53,54
 136 -11 136 -11 136 -50 c 0,55,56
 136 -115 136 -115 215 -159 c 0,57,58
 290 -200 290 -200 390 -200 c 2,59,-1
 546 -200 l 1,60,61
 486 -252 486 -252 446 -280 c 0,62,63
 402 -312 402 -312 381 -312 c 0,64,65
 274 -312 274 -312 189 -254 c 0,66,67
 93 -188 93 -188 93 -77 c 0,68,69
 93 -19 93 -19 119.5 36.5 c 128,-1,70
 146 92 146 92 196 141 c 1,15,16
EndSplineSet
EndChar

StartChar: aininitial
Encoding: 65227 65227 139
Width: 637
GlyphClass: 2
Flags: W
AnchorPoint: "ArabicBelow" 255 -82 basechar 0
AnchorPoint: "ArabicAbove" 235 553 basechar 0
LayerCount: 2
Fore
SplineSet
176 129 m 1,0,1
 163 146 163 146 154 161 c 0,2,3
 137 192 137 192 137 222 c 0,4,5
 137 286 137 286 174 337 c 0,6,7
 209 387 209 387 249 387 c 0,8,9
 306 387 306 387 353 345 c 0,10,11
 381 320 381 320 404 282 c 1,12,-1
 404 266 l 1,13,14
 374 279 374 279 348.5 283 c 128,-1,15
 323 287 323 287 280 287 c 0,16,17
 262 287 262 287 230 269 c 128,-1,18
 198 251 198 251 177 232 c 1,19,20
 208 197 208 197 249 179 c 0,21,22
 283 163 283 163 318 163 c 0,23,24
 354 163 354 163 432 187 c 0,25,26
 465 197 465 197 499 208 c 1,27,28
 484 171 484 171 476 152 c 0,29,30
 450 97 450 97 443 92 c 1,31,-1
 359 61 l 2,32,33
 330 51 330 51 286 38 c 0,34,35
 234 23 234 23 183 13 c 0,36,37
 121 0 121 0 80 0 c 2,38,-1
 -10 0 l 5,39,-1
 -10 113 l 5,40,-1
 71 113 l 2,41,42
 104 113 104 113 129.5 117.5 c 128,-1,43
 155 122 155 122 176 129 c 1,0,1
EndSplineSet
EndChar

StartChar: ainmedial
Encoding: 65228 65228 140
Width: 637
GlyphClass: 2
Flags: W
AnchorPoint: "ArabicBelow" 312 -102 basechar 0
AnchorPoint: "ArabicAbove" 298 526 basechar 0
LayerCount: 2
Fore
SplineSet
650 0 m 1,0,-1
 519 0 l 2,1,2
 476 0 476 0 407 39 c 0,3,4
 350 71 350 71 310 107 c 1,5,6
 274 67 274 67 217 35 c 0,7,8
 153 0 153 0 102 0 c 2,9,-1
 -10 0 l 5,10,-1
 -10 113 l 5,11,-1
 84 113 l 2,12,13
 130 113 130 113 158 123 c 0,14,15
 177 130 177 130 216 150 c 1,16,17
 192 164 192 164 164 172.5 c 128,-1,18
 136 181 136 181 105 181 c 1,19,-1
 105 192 l 1,20,21
 106 195 106 195 135 250 c 0,22,23
 146 270 146 270 152 282 c 1,24,25
 177 296 177 296 221 307 c 0,26,27
 275 320 275 320 332 320 c 0,28,29
 375 320 375 320 441 302 c 0,30,31
 509 284 509 284 514 269 c 0,32,33
 514 267 514 267 514 263 c 0,34,35
 514 245 514 245 497.5 207.5 c 128,-1,36
 481 170 481 170 472 165 c 1,37,-1
 416 150 l 1,38,39
 445 133 445 133 471 124 c 0,40,41
 503 113 503 113 536 113 c 2,42,-1
 650 113 l 1,43,-1
 650 0 l 1,0,-1
395 228 m 1,44,45
 386 235 386 235 363 242.5 c 128,-1,46
 340 250 340 250 323 250 c 0,47,48
 305 250 305 250 279.5 244 c 128,-1,49
 254 238 254 238 237 233 c 1,50,51
 270 221 270 221 280 218 c 0,52,53
 305 209 305 209 321 200 c 1,54,55
 334 207 334 207 356.5 215.5 c 128,-1,56
 379 224 379 224 395 228 c 1,44,45
EndSplineSet
EndChar

StartChar: ghainfinal
Encoding: 65230 65230 142
Width: 637
GlyphClass: 2
Flags: W
AnchorPoint: "ArabicBelow" 184 -396 basechar 0
AnchorPoint: "ArabicAbove" 225 573 basechar 0
LayerCount: 2
Fore
SplineSet
287 436 m 1,0,-1
 229 378 l 1,1,-1
 168 440 l 1,2,-1
 225 497 l 1,3,-1
 287 436 l 1,0,-1
EndSplineSet
Refer: 138 65226 S 1 0 0 1 0 0 2
EndChar

StartChar: ghaininitial
Encoding: 65231 65231 143
Width: 637
GlyphClass: 2
Flags: W
AnchorPoint: "ArabicBelow" 239 -82 basechar 0
AnchorPoint: "ArabicAbove" 150 635 basechar 0
LayerCount: 2
Fore
SplineSet
215 488 m 1,0,-1
 158 431 l 1,1,-1
 97 493 l 1,2,-1
 154 550 l 1,3,-1
 215 488 l 1,0,-1
EndSplineSet
Refer: 139 65227 S 1 0 0 1 0 0 2
EndChar

StartChar: ghainmedial
Encoding: 65232 65232 144
Width: 637
GlyphClass: 2
Flags: W
AnchorPoint: "ArabicBelow" 225 -75 basechar 0
AnchorPoint: "ArabicAbove" 218 567 basechar 0
LayerCount: 2
Fore
SplineSet
276 421 m 1,0,-1
 220 364 l 1,1,-1
 158 426 l 1,2,-1
 215 482 l 1,3,-1
 276 421 l 1,0,-1
EndSplineSet
Refer: 140 65228 S 1 0 0 1 0 0 2
EndChar

StartChar: fehfinal
Encoding: 65234 65234 146
Width: 637
GlyphClass: 2
Flags: W
AnchorPoint: "ArabicBelow" 256 -109 basechar 0
AnchorPoint: "ArabicAbove" 399 573 basechar 0
LayerCount: 2
Fore
SplineSet
478 410 m 1,0,-1
 421 353 l 1,1,-1
 359 414 l 1,2,-1
 416 471 l 1,3,-1
 478 410 l 1,0,-1
652 0 m 5,4,-1
 592 0 l 6,5,6
 570 0 570 0 543.5 6.5 c 132,-1,7
 517 13 517 13 498 22 c 5,8,9
 483 14 483 14 444.5 7 c 132,-1,10
 406 0 406 0 377 0 c 6,11,-1
 147 0 l 6,12,13
 84 0 84 0 53 28 c 4,14,15
 18 59 18 59 18 126 c 4,16,17
 18 162 18 162 44.5 222.5 c 132,-1,18
 71 283 71 283 98 306 c 5,19,-1
 121 306 l 5,20,21
 106 280 106 280 99 265 c 4,22,23
 77 216 77 216 77 187 c 4,24,25
 77 153 77 153 94 136 c 4,26,27
 118 113 118 113 176 113 c 6,28,-1
 401 113 l 5,29,30
 401 179 401 179 421 239 c 4,31,32
 446 313 446 313 487 313 c 4,33,34
 515 313 515 313 540 278 c 4,35,36
 560 249 560 249 576 197 c 4,37,38
 590 155 590 155 598 113 c 5,39,-1
 652 113 l 5,40,-1
 652 0 l 5,4,-1
541 134 m 5,41,42
 529 159 529 159 515 177 c 4,43,44
 497 199 497 199 486 199 c 4,45,46
 479 199 479 199 467 181.5 c 132,-1,47
 455 164 455 164 445 142 c 5,48,49
 484 117 484 117 498 117 c 4,50,51
 504 117 504 117 517.5 122 c 132,-1,52
 531 127 531 127 541 134 c 5,41,42
EndSplineSet
EndChar

StartChar: fehinitial
Encoding: 65235 65235 147
Width: 637
GlyphClass: 2
Flags: W
AnchorPoint: "ArabicBelow" 248 -102 basechar 0
AnchorPoint: "ArabicAbove" 159 580 basechar 0
LayerCount: 2
Fore
SplineSet
234 436 m 5,0,-1
 177 378 l 5,1,-1
 116 440 l 5,2,-1
 173 497 l 5,3,-1
 234 436 l 5,0,-1
393 40 m 6,4,5
 393 19 393 19 382 9.5 c 132,-1,6
 371 0 371 0 343 0 c 6,7,-1
 -10 0 l 5,8,-1
 -10 113 l 5,9,-1
 269 113 l 5,10,11
 231 129 l 4,12,13
 187 150 187 150 187 170 c 4,14,15
 187 186 187 186 194 230 c 4,16,17
 204 288 204 288 220 323 c 4,18,19
 242 370 242 370 273 370 c 4,20,21
 314 370 314 370 352 298 c 4,22,23
 393 221 393 221 393 122 c 6,24,-1
 393 40 l 6,4,5
336 174 m 5,25,26
 323 208 323 208 301 231 c 132,-1,27
 279 254 279 254 261 254 c 4,28,29
 255 254 255 254 245 246 c 132,-1,30
 235 238 235 238 226 225 c 5,31,32
 240 217 240 217 290 194 c 4,33,34
 322 180 322 180 336 174 c 5,25,26
EndSplineSet
EndChar

StartChar: fehmedial
Encoding: 65236 65236 148
Width: 637
GlyphClass: 2
Flags: W
AnchorPoint: "ArabicBelow" 337 -137 basechar 0
AnchorPoint: "ArabicAbove" 232 595 basechar 0
LayerCount: 2
Fore
SplineSet
303 410 m 1,0,-1
 246 353 l 1,1,-1
 185 414 l 1,2,-1
 242 471 l 1,3,-1
 303 410 l 1,0,-1
227 113 m 1,4,5
 227 179 227 179 247 239 c 0,6,7
 272 313 272 313 313 313 c 0,8,9
 341 313 341 313 365 278 c 0,10,11
 385 249 385 249 402 197 c 0,12,13
 415 155 415 155 423 113 c 1,14,-1
 649 113 l 1,15,-1
 649 0 l 1,16,-1
 417 0 l 2,17,18
 395 0 395 0 368.5 6.5 c 128,-1,19
 342 13 342 13 324 22 c 1,20,21
 308 14 308 14 270 7 c 128,-1,22
 232 0 232 0 203 0 c 2,23,-1
 -9 0 l 1,24,-1
 -9 113 l 1,25,-1
 227 113 l 1,4,5
367 134 m 1,26,27
 355 159 355 159 340 177 c 0,28,29
 323 199 323 199 311 199 c 0,30,31
 305 199 305 199 292.5 181.5 c 128,-1,32
 280 164 280 164 270 142 c 1,33,34
 309 117 309 117 324 117 c 0,35,36
 330 117 330 117 343.5 122 c 128,-1,37
 357 127 357 127 367 134 c 1,26,27
EndSplineSet
EndChar

StartChar: qaffinal
Encoding: 65238 65238 150
Width: 637
GlyphClass: 2
Flags: W
AnchorPoint: "ArabicBelow" 193 -299 basechar 0
AnchorPoint: "ArabicAbove" 259 505 basechar 0
LayerCount: 2
Fore
SplineSet
257 357 m 1,0,-1
 200 300 l 1,1,-1
 138 361 l 1,2,-1
 195 419 l 1,3,-1
 257 357 l 1,0,-1
386 362 m 1,4,-1
 329 305 l 1,5,-1
 267 366 l 1,6,-1
 324 423 l 1,7,-1
 386 362 l 1,4,-1
432 113 m 1,8,9
 420 130 420 130 403.5 143 c 128,-1,10
 387 156 387 156 375 156 c 0,11,12
 365 156 365 156 354 145.5 c 128,-1,13
 343 135 343 135 333 121 c 1,14,15
 345 113 345 113 358 113 c 2,16,-1
 432 113 l 1,8,9
479 -31 m 1,17,18
 479 -24 479 -24 476 -11 c 0,19,20
 475 -7 475 -7 473 0 c 1,21,-1
 342 0 l 2,22,23
 314 0 314 0 300 32 c 0,24,25
 290 55 290 55 290 84 c 0,26,27
 290 134 290 134 313 196 c 0,28,29
 342 272 342 272 384 272 c 0,30,31
 394 272 394 272 411 263 c 0,32,33
 437 249 437 249 460 218 c 0,34,35
 490 176 490 176 506 113 c 1,36,-1
 580 113 l 1,37,-1
 580 0 l 1,38,-1
 514 0 l 1,39,-1
 514 -47 l 2,40,41
 514 -108 514 -108 457 -157 c 0,42,43
 410 -197 410 -197 333 -223 c 0,44,45
 267 -245 267 -245 218 -245 c 0,46,47
 127 -245 127 -245 86 -197 c 0,48,49
 50 -155 50 -155 50 -79 c 0,50,51
 50 -22 50 -22 74 44 c 0,52,53
 93 96 93 96 109 114 c 1,54,-1
 123 114 l 1,55,56
 118 98 118 98 109 58 c 0,57,58
 97 8 97 8 97 -15 c 0,59,60
 97 -81 97 -81 141 -109 c 0,61,62
 175 -131 175 -131 239 -131 c 0,63,64
 317 -131 317 -131 391 -95 c 0,65,66
 448 -67 448 -67 479 -31 c 1,17,18
EndSplineSet
EndChar

StartChar: qafinitial
Encoding: 65239 65239 151
Width: 637
GlyphClass: 2
Flags: W
AnchorPoint: "ArabicBelow" 345 -96 basechar 0
AnchorPoint: "ArabicAbove" 258 640 basechar 0
LayerCount: 2
Fore
SplineSet
393 40 m 2,0,1
 393 19 393 19 382 9.5 c 128,-1,2
 371 0 371 0 343 0 c 2,3,-1
 -10 0 l 1,4,-1
 -10 113 l 1,5,-1
 269 113 l 1,6,7
 231 129 l 0,8,9
 187 150 187 150 187 170 c 0,10,11
 187 186 187 186 194 230 c 0,12,13
 204 288 204 288 220 323 c 0,14,15
 242 370 242 370 273 370 c 0,16,17
 314 370 314 370 352 298 c 0,18,19
 393 221 393 221 393 122 c 2,20,-1
 393 40 l 2,0,1
336 174 m 1,21,22
 323 208 323 208 301 231 c 128,-1,23
 279 254 279 254 261 254 c 0,24,25
 255 254 255 254 245 246 c 128,-1,26
 235 238 235 238 226 225 c 1,27,28
 240 217 240 217 290 194 c 0,29,30
 322 180 322 180 336 174 c 1,21,22
258 461 m 1,31,-1
 201 404 l 1,32,-1
 139 466 l 1,33,-1
 196 523 l 1,34,-1
 258 461 l 1,31,-1
387 466 m 1,35,-1
 330 409 l 1,36,-1
 269 470 l 1,37,-1
 325 528 l 1,38,-1
 387 466 l 1,35,-1
EndSplineSet
EndChar

StartChar: qafmedial
Encoding: 65240 65240 152
Width: 637
GlyphClass: 2
Flags: W
AnchorPoint: "ArabicBelow" 308 -96 basechar 0
AnchorPoint: "ArabicAbove" 303 593 basechar 0
LayerCount: 2
Fore
SplineSet
227 113 m 1,0,1
 227 179 227 179 247 239 c 0,2,3
 272 313 272 313 313 313 c 0,4,5
 341 313 341 313 365 278 c 0,6,7
 385 249 385 249 402 197 c 0,8,9
 415 155 415 155 423 113 c 1,10,-1
 649 113 l 1,11,-1
 649 0 l 1,12,-1
 417 0 l 2,13,14
 395 0 395 0 368.5 6.5 c 128,-1,15
 342 13 342 13 324 22 c 1,16,17
 308 14 308 14 270 7 c 128,-1,18
 232 0 232 0 203 0 c 2,19,-1
 -9 0 l 1,20,-1
 -9 113 l 1,21,-1
 227 113 l 1,0,1
367 134 m 1,22,23
 355 159 355 159 340 177 c 0,24,25
 323 199 323 199 311 199 c 0,26,27
 305 199 305 199 292.5 181.5 c 128,-1,28
 280 164 280 164 270 142 c 1,29,30
 309 117 309 117 324 117 c 0,31,32
 330 117 330 117 343.5 122 c 128,-1,33
 357 127 357 127 367 134 c 1,22,23
302 418 m 1,34,-1
 245 361 l 1,35,-1
 183 423 l 1,36,-1
 240 480 l 1,37,-1
 302 418 l 1,34,-1
431 423 m 1,38,-1
 374 366 l 1,39,-1
 312 428 l 1,40,-1
 370 485 l 1,41,-1
 431 423 l 1,38,-1
EndSplineSet
EndChar

StartChar: arabickaffinal
Encoding: 65242 65242 154
Width: 637
GlyphClass: 2
Flags: W
AnchorPoint: "ArabicBelow" 269 -130 basechar 0
AnchorPoint: "ArabicAbove" 276 573 basechar 0
LayerCount: 2
Fore
SplineSet
300 287 m 1,0,1
 293 287 293 287 285 285.5 c 128,-1,2
 277 284 277 284 273 284 c 0,3,4
 252 284 252 284 239 296 c 128,-1,5
 226 308 226 308 226 325 c 0,6,7
 226 338 226 338 228.5 347.5 c 128,-1,8
 231 357 231 357 243 377 c 0,9,10
 257 403 257 403 284 425 c 0,11,12
 315 452 315 452 340 452 c 1,13,-1
 326 391 l 1,14,15
 302 385 302 385 290 381 c 0,16,17
 256 367 256 367 256 353 c 0,18,19
 256 345 256 345 267 341 c 0,20,21
 273 340 273 340 280 340 c 0,22,23
 284 340 284 340 294 340.5 c 128,-1,24
 304 341 304 341 310 341 c 0,25,26
 326 341 326 341 334.5 337.5 c 128,-1,27
 343 334 343 334 343 323 c 0,28,29
 343 288 343 288 329 261 c 0,30,31
 309 221 309 221 269 221 c 2,32,-1
 196 221 l 1,33,34
 235 240 235 240 244 245 c 0,35,36
 286 268 286 268 300 287 c 1,0,1
551 181 m 1,37,38
 564 152 564 152 596 129 c 0,39,40
 625 113 l 2,41,-1
 648 113 l 1,42,-1
 648 0 l 1,43,-1
 618 0 l 2,44,45
 614 0 614 0 589 12 c 0,46,47
 569 22 569 22 554 40 c 1,48,-1
 554 0 l 1,49,-1
 112 0 l 6,50,51
 71 0 71 0 45 22 c 4,52,53
 12 49 12 49 12 112 c 4,54,55
 12 163 12 163 27 210 c 132,-1,56
 42 257 42 257 70 295 c 5,57,-1
 94 295 l 5,58,59
 83 274 83 274 78 259 c 4,60,61
 62 217 62 217 62 184 c 4,62,63
 62 154 62 154 81 134 c 4,64,65
 103 113 103 113 145 113 c 6,66,-1
 492 113 l 1,67,68
 482 200 482 200 459 317 c 0,69,70
 433 448 433 448 411 500 c 1,71,-1
 476 617 l 1,72,73
 500 581 500 581 525.5 436.5 c 128,-1,74
 551 292 551 292 551 181 c 1,37,38
EndSplineSet
EndChar

StartChar: kafinitial
Encoding: 65243 65243 155
Width: 637
GlyphClass: 2
Flags: W
AnchorPoint: "ArabicBelow" 324 -96 basechar 0
AnchorPoint: "ArabicAbove" 283 703 basechar 0
LayerCount: 2
Fore
SplineSet
191.031 361 m 5,0,1
 226.105 350.797 226.105 350.797 233.141 348 c 4,2,3
 260.812 337 260.812 337 280.062 325 c 4,4,5
 370.297 271 370.297 271 410 208 c 4,6,7
 444.891 151 444.891 151 444.891 84 c 4,8,9
 444.891 55.4167 444.891 55.4167 436.469 35 c 4,10,11
 422.031 0 422.031 0 396.766 0 c 6,12,-1
 -22.7188 0 l 5,13,-1
 -22.7188 113 l 5,14,-1
 384.734 113 l 5,15,16
 370.297 142 370.297 142 337.812 172.5 c 132,-1,17
 305.328 203 305.328 203 265.625 224 c 4,18,19
 243.969 236 243.969 236 225.32 240.5 c 132,-1,20
 206.672 245 206.672 245 189.828 245 c 4,21,22
 169.375 245 169.375 245 157.344 240 c 4,23,24
 146.516 236 146.516 236 134.484 233 c 5,25,26
 121.25 237 121.25 237 103.805 277.5 c 132,-1,27
 86.3594 318 86.3594 318 86.3594 337 c 5,28,29
 114.031 387 114.031 387 180.203 462 c 4,30,31
 252.391 544 252.391 544 335.406 609 c 4,32,33
 431.656 686 431.656 686 514.672 719 c 5,34,-1
 514.672 596 l 5,35,36
 454.372 576.509 454.372 576.509 382.328 531 c 4,37,38
 322.172 493 322.172 493 270.438 445 c 4,39,40
 228.328 407 228.328 407 191.031 361 c 5,0,1
EndSplineSet
EndChar

StartChar: kafmedial
Encoding: 65244 65244 156
Width: 637
GlyphClass: 2
Flags: W
AnchorPoint: "ArabicBelow" 275 -157 basechar 0
AnchorPoint: "ArabicAbove" 248 737 basechar 0
LayerCount: 2
Fore
SplineSet
356.148 104 m 5,0,-1
 356.148 78.4062 l 6,1,2
 356.148 41.9844 356.148 41.9844 346.453 22.7891 c 132,-1,3
 336.758 3.59375 336.758 3.59375 313.945 3.59375 c 6,4,-1
 -17.7578 3.59375 l 5,5,-1
 -17.7578 114.828 l 5,6,-1
 299.117 114.828 l 5,7,8
 292.273 143.375 292.273 143.375 270.602 170.938 c 4,9,10
 245.508 201.453 245.508 201.453 210.148 220.156 c 4,11,12
 186.195 232.953 186.195 232.953 167.375 237.875 c 132,-1,13
 148.555 242.797 148.555 242.797 133.727 242.797 c 4,14,15
 120.039 242.797 120.039 242.797 109.773 239.352 c 132,-1,16
 99.5078 235.906 99.5078 235.906 90.3828 232.953 c 5,17,18
 76.6953 236.891 76.6953 236.891 60.7266 276.758 c 132,-1,19
 44.7578 316.625 44.7578 316.625 44.7578 335.328 c 5,20,21
 70.9922 387.5 70.9922 387.5 129.164 458.375 c 4,22,23
 194.18 536.141 194.18 536.141 271.742 603.078 c 4,24,25
 360.711 678.875 360.711 678.875 441.695 711.359 c 5,26,-1
 441.695 586.344 l 5,27,28
 386.854 565.691 386.854 565.691 316.227 518.422 c 4,29,30
 260.336 481.016 260.336 481.016 211.289 435.734 c 4,31,32
 171.367 397.344 171.367 397.344 139.43 358.953 c 5,33,34
 171.367 347.141 171.367 347.141 195.32 336.312 c 4,35,36
 226.83 321.916 226.83 321.916 231.82 317.609 c 4,37,38
 236.383 313.672 236.383 313.672 312.805 254.609 c 4,39,40
 393.789 192.594 393.789 192.594 442.836 162.078 c 4,41,42
 518.117 114.828 518.117 114.828 553.477 114.828 c 6,43,-1
 656.633 114.828 l 5,44,-1
 656.633 3.59375 l 5,45,-1
 543.211 3.59375 l 6,46,47
 508.992 3.59375 508.992 3.59375 450.82 37.0625 c 4,48,49
 405.195 63.6406 405.195 63.6406 356.148 104 c 5,0,-1
EndSplineSet
EndChar

StartChar: lamfinal
Encoding: 65246 65246 158
Width: 637
GlyphClass: 2
Flags: W
AnchorPoint: "ArabicBelow" 197 -299 basechar 0
AnchorPoint: "ArabicAbove" 372 696 basechar 0
LayerCount: 2
Fore
SplineSet
464 139 m 1,0,1
 476 128 476 128 495 120.5 c 128,-1,2
 514 113 514 113 535 113 c 2,3,-1
 647 113 l 5,4,-1
 647 0 l 5,5,-1
 523 0 l 2,6,7
 511 0 511 0 497.5 4.5 c 128,-1,8
 484 9 484 9 470 17 c 1,9,-1
 470 -31 l 2,10,11
 471 -105 471 -105 387 -160 c 0,12,13
 303 -216 303 -216 196 -216 c 0,14,15
 132 -216 132 -216 94 -179 c 0,16,17
 53 -138 53 -138 53 -62 c 0,18,19
 53 -19 53 -19 67 34.5 c 128,-1,20
 81 88 81 88 105 122 c 1,21,-1
 119 122 l 1,22,23
 109 89 109 89 103.5 62 c 128,-1,24
 98 35 98 35 98 13 c 0,25,26
 98 -56 98 -56 143 -84 c 0,27,28
 175 -104 175 -104 230 -104 c 0,29,30
 275 -104 275 -104 335 -79.5 c 128,-1,31
 395 -55 395 -55 422 -27 c 1,32,33
 422 33 422 33 406 137 c 0,34,35
 395 205 395 205 370 325 c 0,36,37
 350 416 350 416 336 466 c 1,38,-1
 394 591 l 1,39,40
 418 535 418 535 441 393 c 128,-1,41
 464 251 464 251 464 139 c 1,0,1
EndSplineSet
EndChar

StartChar: laminitial
Encoding: 65247 65247 159
Width: 637
GlyphClass: 2
Flags: W
AnchorPoint: "ArabicBelow" 350 -123 basechar 0
AnchorPoint: "ArabicAbove" 323 717 basechar 0
LayerCount: 2
Fore
SplineSet
403 0 m 1,0,-1
 -14 0 l 1,1,-1
 -14 113 l 1,2,-1
 348 113 l 1,3,4
 348 166 348 166 333 250 c 0,5,6
 321 320 321 320 304 390 c 0,7,8
 290 451 290 451 278 484 c 1,9,-1
 338 602 l 1,10,11
 350 566 350 566 365 502 c 0,12,13
 382 425 382 425 391 351 c 0,14,15
 403 258 403 258 403 177 c 2,16,-1
 403 0 l 1,0,-1
EndSplineSet
EndChar

StartChar: lammedial
Encoding: 65248 65248 160
Width: 637
GlyphClass: 2
Flags: W
AnchorPoint: "ArabicBelow" 319 -137 basechar 0
AnchorPoint: "ArabicAbove" 264 717 basechar 0
LayerCount: 2
Fore
SplineSet
338 184 m 1,0,1
 349 150 349 150 389 129 c 0,2,3
 421 113 421 113 447 113 c 2,4,-1
 649 113 l 1,5,-1
 649 0 l 1,6,-1
 421 0 l 2,7,8
 398 0 398 0 375 16 c 0,9,10
 361 26 361 26 338 49 c 1,11,-1
 338 0 l 1,12,-1
 -10 0 l 5,13,-1
 -10 113 l 5,14,-1
 282 113 l 1,15,16
 282 166 282 166 268 250 c 0,17,18
 256 320 256 320 239 390 c 0,19,20
 224 451 224 451 213 484 c 1,21,-1
 273 602 l 1,22,23
 286 563 286 563 300 503 c 0,24,25
 316 430 316 430 326 356 c 0,26,27
 338 265 338 265 338 184 c 1,0,1
EndSplineSet
EndChar

StartChar: meemfinal
Encoding: 65250 65250 162
Width: 637
GlyphClass: 2
Flags: W
AnchorPoint: "ArabicBelow" 349 -130 basechar 0
AnchorPoint: "ArabicAbove" 315 437 basechar 0
LayerCount: 2
Fore
SplineSet
649 0 m 5,0,-1
 487 0 l 2,1,2
 470 0 470 0 456.5 7 c 128,-1,3
 443 14 443 14 429 29 c 1,4,5
 424 6 424 6 409 -6 c 0,6,7
 396 -16 396 -16 379 -16 c 0,8,9
 337 -16 337 -16 290 22 c 0,10,11
 234 68 234 68 234 134 c 2,12,-1
 234 148 l 1,13,14
 220 142 220 142 212 138 c 0,15,16
 185 122 185 122 167 102 c 1,17,18
 180 77 180 77 195 31 c 0,19,20
 213 -21 213 -21 223 -75 c 0,21,22
 236 -141 236 -141 236 -204 c 0,23,24
 236 -229 236 -229 221 -264 c 0,25,26
 216 -275 216 -275 206 -291 c 1,27,-1
 197 -291 l 1,28,29
 197 -278 197 -278 196 -263.5 c 128,-1,30
 195 -249 195 -249 192 -216 c 0,31,32
 185 -142 185 -142 164 -76 c 0,33,34
 151 -34 151 -34 127 20 c 128,-1,35
 103 74 103 74 99 93 c 1,36,37
 99 142 99 142 141 189 c 0,38,39
 179 231 179 231 235 258 c 0,40,41
 289 283 289 283 329 283 c 0,42,43
 370 283 370 283 391 241 c 0,44,45
 410 201 410 201 429 162 c 0,46,47
 440 140 440 140 458 126 c 0,48,49
 476 113 476 113 497 113 c 2,50,-1
 649 113 l 5,51,-1
 649 0 l 5,0,-1
381 118 m 1,52,53
 366 142 366 142 346 162 c 0,54,55
 325 183 325 183 315 181 c 0,56,57
 302 179 302 179 293 172.5 c 128,-1,58
 284 166 284 166 275 155 c 1,59,60
 293 130 293 130 315 114 c 0,61,62
 340 96 340 96 362 96 c 0,63,64
 367 96 367 96 372 103 c 0,65,66
 374 105 374 105 381 118 c 1,52,53
EndSplineSet
EndChar

StartChar: meeminitial
Encoding: 65251 65251 163
Width: 637
GlyphClass: 2
Flags: W
AnchorPoint: "ArabicBelow" 366 -123 basechar 0
AnchorPoint: "ArabicAbove" 366 416 basechar 0
LayerCount: 2
Fore
SplineSet
496 93 m 0,0,1
 496 55 496 55 486 23 c 0,2,3
 474 -19 474 -19 451 -19 c 0,4,5
 415 -19 415 -19 379 -6 c 0,6,7
 328 13 328 13 290 55 c 1,8,9
 271 35 271 35 246 21 c 0,10,11
 209 0 209 0 175 0 c 2,12,-1
 -12 0 l 5,13,-1
 -12 113 l 5,14,-1
 172 113 l 2,15,16
 207 113 207 113 230.5 125.5 c 128,-1,17
 254 138 254 138 278 168 c 1,18,19
 300 207 300 207 320 235 c 0,20,21
 357 289 357 289 382 289 c 0,22,23
 403 289 403 289 427 274 c 0,24,25
 457 253 457 253 474 214 c 0,26,27
 496 166 496 166 496 93 c 0,0,1
441 113 m 1,28,29
 430 142 430 142 407 159 c 0,30,31
 391 171 391 171 374 171 c 0,32,33
 366 171 366 171 354 155 c 0,34,35
 353 152 353 152 341 136 c 1,36,37
 361 121 361 121 387 108 c 128,-1,38
 413 95 413 95 425 95 c 0,39,40
 432 95 432 95 436.5 99.5 c 128,-1,41
 441 104 441 104 441 113 c 1,28,29
EndSplineSet
EndChar

StartChar: meemmedial
Encoding: 65252 65252 164
Width: 637
GlyphClass: 2
Flags: W
AnchorPoint: "ArabicBelow" 344 -143 basechar 0
AnchorPoint: "ArabicAbove" 310 416 basechar 0
LayerCount: 2
Fore
SplineSet
647 0 m 1,0,-1
 490 0 l 2,1,2
 450 0 450 0 424 27 c 1,3,4
 424 10 424 10 413 -8 c 0,5,6
 402 -29 402 -29 388 -29 c 0,7,8
 350 -29 350 -29 314 -11 c 0,9,10
 271 9 271 9 241 49 c 1,11,12
 210 0 210 0 143 0 c 2,13,-1
 -9 0 l 5,14,-1
 -9 113 l 5,15,-1
 136 113 l 2,16,17
 170 113 170 113 191 127 c 0,18,19
 218 147 218 147 234 177 c 0,20,21
 250 208 250 208 267 239 c 0,22,23
 292 283 292 283 325 283 c 0,24,25
 356 283 356 283 384 239 c 0,26,27
 430 165 430 165 435 157 c 0,28,29
 464 113 464 113 500 113 c 2,30,-1
 647 113 l 1,31,-1
 647 0 l 1,0,-1
385 105 m 1,32,33
 373 128 373 128 353.5 146 c 128,-1,34
 334 164 334 164 321 164 c 0,35,36
 311 164 311 164 302 154 c 0,37,38
 296 146 296 146 288 131 c 1,39,40
 304 117 304 117 329 104.5 c 128,-1,41
 354 92 354 92 363 92 c 0,42,43
 375 92 375 92 385 105 c 1,32,33
EndSplineSet
EndChar

StartChar: noonfinal
Encoding: 65254 65254 166
Width: 637
GlyphClass: 2
Flags: W
AnchorPoint: "ArabicBelow" 174 -299 basechar 0
AnchorPoint: "ArabicAbove" 240 410 basechar 0
LayerCount: 2
Fore
SplineSet
312 257 m 1,0,-1
 255 200 l 1,1,-1
 193 262 l 1,2,-1
 250 319 l 1,3,-1
 312 257 l 1,0,-1
EndSplineSet
Refer: 277 64415 S 1 0 0 1 0 0 2
EndChar

StartChar: nooninitial
Encoding: 65255 65255 167
Width: 637
GlyphClass: 2
Flags: W
AnchorPoint: "ArabicBelow" 341 -116 basechar 0
AnchorPoint: "ArabicAbove" 280 587 basechar 0
LayerCount: 2
Fore
SplineSet
356 422 m 1,0,-1
 299 365 l 1,1,-1
 237 427 l 1,2,-1
 294 484 l 1,3,-1
 356 422 l 1,0,-1
419 97 m 2,4,-1
 419 0 l 1,5,-1
 -9 0 l 5,6,-1
 -9 113 l 5,7,-1
 357 113 l 1,8,9
 357 141 357 141 339 170 c 0,10,11
 333 180 333 180 310 210 c 1,12,-1
 348 320 l 1,13,14
 374 287 374 287 395 229 c 0,15,16
 419 161 419 161 419 97 c 2,4,-1
EndSplineSet
EndChar

StartChar: noonmedial
Encoding: 65256 65256 168
Width: 637
GlyphClass: 2
Flags: W
AnchorPoint: "ArabicBelow" 369 -109 basechar 0
AnchorPoint: "ArabicAbove" 246 546 basechar 0
LayerCount: 2
Fore
SplineSet
307 389 m 1,0,-1
 251 332 l 1,1,-1
 189 394 l 1,2,-1
 246 451 l 1,3,-1
 307 389 l 1,0,-1
-8 0 m 5,4,-1
 -8 113 l 5,5,-1
 305 113 l 1,6,7
 305 139 305 139 284 175 c 0,8,9
 277 187 277 187 263 209 c 1,10,-1
 305 315 l 1,11,12
 314 301 314 301 330 268 c 0,13,14
 350 225 350 225 356.5 197.5 c 128,-1,15
 363 170 363 170 377 150 c 0,16,17
 405 113 405 113 458 113 c 2,18,-1
 647 113 l 1,19,-1
 647 0 l 1,20,-1
 438 0 l 2,21,22
 413 0 413 0 387.5 12 c 128,-1,23
 362 24 362 24 348 40 c 1,24,-1
 348 0 l 1,25,-1
 -8 0 l 5,4,-1
EndSplineSet
EndChar

StartChar: hehfinal
Encoding: 65258 65258 170
Width: 637
GlyphClass: 2
Flags: W
AnchorPoint: "ArabicBelow" 283 -68 basechar 0
AnchorPoint: "ArabicAbove" 283 532 basechar 0
LayerCount: 2
Fore
SplineSet
646 0 m 5,0,-1
 440 0 l 2,1,2
 394 0 394 0 367 39 c 0,3,4
 345 71 345 71 345 104 c 1,5,6
 336 82 336 82 312 63 c 0,7,8
 283 38 283 38 250 38 c 0,9,10
 212 38 212 38 177 74.5 c 128,-1,11
 142 111 142 111 142 151 c 0,12,13
 142 180 142 180 168 217 c 0,14,15
 189 246 189 246 225 276 c 0,16,17
 250 297 250 297 283 319 c 1,18,-1
 266 356 l 1,19,-1
 330 420 l 1,20,21
 343 397 343 397 358 339 c 0,22,23
 372 288 372 288 381 238 c 0,24,25
 391 171 391 171 407 146 c 0,26,27
 429 113 429 113 477 113 c 2,28,-1
 646 113 l 5,29,-1
 646 0 l 5,0,-1
331 185 m 1,30,31
 331 196 331 196 319 212.5 c 128,-1,32
 307 229 307 229 298 229 c 0,33,34
 275 229 275 229 245 212.5 c 128,-1,35
 215 196 215 196 206 182 c 1,36,37
 219 171 219 171 234.5 162 c 128,-1,38
 250 153 250 153 261 153 c 0,39,40
 284 153 284 153 303 163 c 0,41,42
 318 171 318 171 331 185 c 1,30,31
EndSplineSet
EndChar

StartChar: hehinitial
Encoding: 65259 65259 171
Width: 637
GlyphClass: 2
Flags: W
AnchorPoint: "ArabicBelow" 300 -166 basechar 0
AnchorPoint: "ArabicAbove" 310 616 basechar 0
LayerCount: 2
Fore
SplineSet
192 132 m 1,0,1
 177 153 177 153 170.5 167 c 128,-1,2
 164 181 164 181 164 205 c 0,3,4
 164 254 164 254 202 301 c 0,5,6
 228 334 228 334 273 368 c 1,7,-1
 234 398 l 1,8,-1
 303 504 l 1,9,10
 307 504 307 504 348 467 c 0,11,12
 399 422 399 422 438 382 c 0,13,14
 495 326 495 326 519 286 c 0,15,16
 542 250 542 250 560 205 c 0,17,18
 584 146 584 146 584 98 c 2,19,-1
 584 38 l 2,20,21
 584 9 584 9 558 -12 c 128,-1,22
 532 -33 532 -33 500 -33 c 0,23,24
 461 -33 461 -33 376 2 c 0,25,26
 311 28 311 28 284 45 c 1,27,28
 269 34 269 34 225 19 c 0,29,30
 169 -1 169 -1 122 -1 c 2,31,-1
 -11 -1 l 1,32,-1
 -11 117 l 1,33,-1
 93 117 l 2,34,35
 121 117 121 117 147.5 121 c 128,-1,36
 174 125 174 125 192 132 c 1,0,1
522 104 m 1,37,38
 512 136 512 136 488 174 c 0,39,40
 460 217 460 217 430 238 c 1,41,42
 430 212 430 212 420 180.5 c 128,-1,43
 410 149 410 149 392 130 c 1,44,45
 424 114 424 114 440 108 c 0,46,47
 471 96 471 96 491 96 c 0,48,49
 502 96 502 96 510.5 97.5 c 128,-1,50
 519 99 519 99 522 104 c 1,37,38
384 246 m 1,51,52
 374 265 374 265 357.5 279.5 c 128,-1,53
 341 294 341 294 325 294 c 256,54,55
 309 294 309 294 276 274 c 0,56,57
 245 254 245 254 222 232 c 1,58,59
 239 213 239 213 275 192 c 0,60,61
 286 184 286 184 307 174 c 1,62,63
 322 179 322 179 344 198 c 0,64,65
 369 220 369 220 384 246 c 1,51,52
EndSplineSet
EndChar

StartChar: hehmedial
Encoding: 65260 65260 172
Width: 637
GlyphClass: 2
Flags: W
AnchorPoint: "ArabicBelow" 238 -137 basechar 0
AnchorPoint: "ArabicAbove" 240 578 basechar 0
LayerCount: 2
Fore
SplineSet
444 102 m 1,0,1
 435 133 435 133 411 171 c 0,2,3
 385 213 385 213 358 234 c 1,4,5
 358 208 358 208 348.5 177 c 128,-1,6
 339 146 339 146 322 127 c 1,7,8
 357 107 357 107 365 103 c 0,9,10
 397 89 397 89 415 89 c 0,11,12
 423 89 423 89 432 93 c 128,-1,13
 441 97 441 97 444 102 c 1,0,1
315 241 m 1,14,15
 305 260 305 260 290 274 c 128,-1,16
 275 288 275 288 260 288 c 256,17,18
 245 288 245 288 213 268 c 0,19,20
 185 249 185 249 164 227 c 1,21,22
 179 209 179 209 213 188 c 0,23,24
 224 181 224 181 242 171 c 1,25,26
 257 175 257 175 277 194 c 0,27,28
 301 216 301 216 315 241 c 1,14,15
591 115 m 2,29,-1
 644 115 l 1,30,-1
 644 -0 l 1,31,-1
 573 -0 l 2,32,33
 560 -0 560 -0 538.5 8.5 c 128,-1,34
 517 17 517 17 500 29 c 1,35,36
 497 3 497 3 473.5 -16.5 c 128,-1,37
 450 -36 450 -36 423 -36 c 0,38,39
 385 -36 385 -36 309 -2 c 0,40,41
 241 28 241 28 221 44 c 1,42,43
 208 33 208 33 166 18 c 0,44,45
 114 -0 114 -0 70 -0 c 2,46,-1
 -7 -0 l 1,47,-1
 -7 115 l 1,48,-1
 43 115 l 2,49,50
 69 115 69 115 94 119 c 128,-1,51
 119 123 119 123 135 130 c 1,52,53
 121 150 121 150 115 163.5 c 128,-1,54
 109 177 109 177 109 201 c 0,55,56
 109 249 109 249 145 295 c 0,57,58
 169 327 169 327 211 360 c 1,59,-1
 174 390 l 1,60,-1
 239 493 l 1,61,62
 242 493 242 493 281 458 c 0,63,64
 328 413 328 413 365 374 c 0,65,66
 418 319 418 319 440 281 c 0,67,68
 484 203 484 203 502 180 c 0,69,70
 549 115 549 115 591 115 c 2,29,-1
EndSplineSet
EndChar

StartChar: wawfinal
Encoding: 65262 65262 174
Width: 637
GlyphClass: 2
Flags: W
AnchorPoint: "ArabicBelow" 276 -299 basechar 0
AnchorPoint: "ArabicAbove" 302 410 basechar 0
LayerCount: 2
Fore
SplineSet
643 0 m 1,0,-1
 430 0 l 1,1,2
 430 -106 430 -106 377 -184 c 0,3,4
 320 -269 320 -269 226 -269 c 0,5,6
 205 -269 205 -269 178 -253 c 128,-1,7
 151 -237 151 -237 133 -214 c 1,8,9
 226 -186 226 -186 302 -126 c 0,10,11
 381 -62 381 -62 389 0 c 1,12,-1
 275 0 l 2,13,14
 220 0 220 0 220 92 c 0,15,16
 220 147 220 147 241 207 c 0,17,18
 271 287 271 287 320 287 c 0,19,20
 359 287 359 287 390 232 c 0,21,22
 419 181 419 181 427 113 c 1,23,-1
 643 113 l 1,24,-1
 643 0 l 1,0,-1
371 113 m 1,25,26
 359 137 359 137 342 154 c 0,27,28
 324 174 324 174 308 174 c 0,29,30
 291 174 291 174 276 158 c 0,31,32
 265 144 265 144 255 122 c 1,33,34
 256 118 256 118 261 115.5 c 128,-1,35
 266 113 266 113 274 113 c 2,36,-1
 371 113 l 1,25,26
EndSplineSet
EndChar

StartChar: alefmaksurafinal
Encoding: 65264 65264 176
Width: 637
GlyphClass: 2
Flags: W
AnchorPoint: "ArabicBelow" 218 -335 basechar 0
AnchorPoint: "ArabicAbove" 252 239 basechar 0
LayerCount: 2
Fore
SplineSet
461 0 m 1,0,1
 508 -22 l 0,2,3
 538 -40 538 -40 538 -68 c 2,4,-1
 538 -109 l 2,5,6
 538 -162 538 -162 482 -203 c 0,7,8
 435 -236 435 -236 360 -255 c 0,9,10
 294 -272 294 -272 241 -272 c 0,11,12
 150 -272 150 -272 107 -230 c 0,13,14
 70 -195 70 -195 70 -131 c 0,15,16
 70 -77 70 -77 79 -39 c 0,17,18
 89 -3 89 -3 104 28 c 0,19,20
 108 36 108 36 136 86 c 1,21,-1
 149 86 l 1,22,23
 136 43 136 43 128 9.5 c 128,-1,24
 120 -24 120 -24 120 -43 c 0,25,26
 120 -111 120 -111 163 -138 c 0,27,28
 197 -159 197 -159 261 -159 c 256,29,30
 322 -159 322 -159 390 -143 c 0,31,32
 441 -130 441 -130 481 -110 c 1,33,34
 462 -101 462 -101 412.5 -83.5 c 128,-1,35
 363 -66 363 -66 344 -57 c 0,36,37
 313 -43 313 -43 313 -32 c 0,38,39
 313 -6 313 -6 330 28 c 0,40,41
 344 57 344 57 358 72 c 0,42,43
 373 90 373 90 415 101.5 c 128,-1,44
 457 113 457 113 517 113 c 2,45,-1
 646 113 l 5,46,-1
 646 0 l 5,47,-1
 461 0 l 1,0,1
EndSplineSet
EndChar

StartChar: yehfinal
Encoding: 65266 65266 178
Width: 637
GlyphClass: 2
Flags: W
AnchorPoint: "ArabicBelow" 261 -501 basechar 0
AnchorPoint: "ArabicAbove" 212 232 basechar 0
LayerCount: 2
Fore
SplineSet
261 -389 m 5,0,-1
 204 -445 l 5,1,-1
 143 -384 l 5,2,-1
 200 -327 l 5,3,-1
 261 -389 l 5,0,-1
391 -383 m 5,4,-1
 334 -440 l 5,5,-1
 272 -379 l 5,6,-1
 329 -322 l 5,7,-1
 391 -383 l 5,4,-1
EndSplineSet
Refer: 176 65264 N 1 0 0 1 0 0 2
EndChar

StartChar: yehinitial
Encoding: 65267 65267 179
Width: 637
GlyphClass: 2
Flags: W
AnchorPoint: "ArabicBelow" 317 -232 basechar 0
AnchorPoint: "ArabicAbove" 304 485 basechar 0
LayerCount: 2
Fore
SplineSet
313 -110 m 1,0,-1
 256 -167 l 1,1,-1
 195 -106 l 1,2,-1
 251 -49 l 1,3,-1
 313 -110 l 1,0,-1
443 -105 m 1,4,-1
 386 -163 l 1,5,-1
 324 -101 l 1,6,-1
 381 -44 l 1,7,-1
 443 -105 l 1,4,-1
432 97 m 2,8,-1
 432 0 l 1,9,-1
 -9 0 l 5,10,-1
 -9 113 l 5,11,-1
 370 113 l 1,12,13
 370 142 370 142 353 170 c 0,14,15
 346 180 346 180 324 210 c 1,16,-1
 362 320 l 1,17,18
 388 287 388 287 408 229 c 0,19,20
 432 161 432 161 432 97 c 2,8,-1
EndSplineSet
EndChar

StartChar: yehmedial
Encoding: 65268 65268 180
Width: 637
GlyphClass: 2
Flags: W
AnchorPoint: "ArabicBelow" 321 -246 basechar 0
AnchorPoint: "ArabicAbove" 301 444 basechar 0
LayerCount: 2
Fore
SplineSet
312 -112 m 1,0,-1
 255 -168 l 1,1,-1
 194 -107 l 1,2,-1
 251 -50 l 1,3,-1
 312 -112 l 1,0,-1
442 -106 m 1,4,-1
 384 -163 l 1,5,-1
 323 -102 l 1,6,-1
 380 -45 l 1,7,-1
 442 -106 l 1,4,-1
-9 -1 m 1,8,-1
 -9 112 l 1,9,-1
 305 113 l 1,10,11
 305 139 305 139 284 175 c 0,12,13
 277 187 277 187 263 209 c 1,14,-1
 305 315 l 1,15,16
 314 301 314 301 330 268 c 0,17,18
 350 225 350 225 356.5 197.5 c 128,-1,19
 363 170 363 170 377 150 c 0,20,21
 405 113 405 113 458 113 c 2,22,-1
 645 112 l 1,23,-1
 645 -1 l 1,24,-1
 438 0 l 2,25,26
 413 0 413 0 387 12 c 0,27,28
 362 24 362 24 348 40 c 1,29,-1
 348 0 l 1,30,-1
 -9 -1 l 1,8,-1
EndSplineSet
EndChar

StartChar: lamwithalefmaddaaboveisolatedd
Encoding: 65269 65269 181
Width: 637
GlyphClass: 3
Flags: W
AnchorPoint: "ArabicAboveLigature" 509 757 baselig 0
AnchorPoint: "ArabicAboveLigature" 187 841 baselig 1
AnchorPoint: "ArabicBelowLigature" 486 -65 baselig 0
AnchorPoint: "ArabicBelowLigature" 225 -61 baselig 1
LayerCount: 2
Fore
SplineSet
381 762 m 1,0,1
 379 759 379 759 361 695 c 0,2,3
 344 630 344 630 343 630 c 1,4,5
 343 639 343 639 341 661 c 0,6,7
 338 683 338 683 335 693 c 1,8,9
 298 663 298 663 246 652 c 0,10,11
 214 645 214 645 175 645 c 2,12,-1
 160 645 l 1,13,-1
 155 645 l 1,14,15
 152 641 152 641 144 621 c 0,16,17
 142 614 142 614 137 601 c 1,18,19
 135 602 135 602 132 602 c 0,20,21
 129 603 129 603 128 603 c 0,22,23
 125 603 125 603 123 601 c 1,24,-1
 123 735 l 1,25,26
 141 723 141 723 165 717 c 0,27,28
 189 711 189 711 216 711 c 0,29,30
 251 711 251 711 295 726 c 0,31,32
 337 744 337 744 381 762 c 1,0,1
EndSplineSet
Refer: 187 65275 N 1 0 0 1 8 0 2
LCarets2: 1 0 
EndChar

StartChar: lamwithalefmaddaabovefinal
Encoding: 65270 65270 182
Width: 637
GlyphClass: 3
Flags: W
AnchorPoint: "ArabicAboveLigature" 431 761 baselig 0
AnchorPoint: "ArabicAboveLigature" 98 799 baselig 1
AnchorPoint: "ArabicBelowLigature" 580 -140 baselig 0
AnchorPoint: "ArabicBelowLigature" 198 -135 baselig 1
LayerCount: 2
Fore
SplineSet
381 96 m 1,0,1
 350 139 350 139 299 192 c 0,2,3
 245 250 245 250 197 287 c 0,4,5
 161 316 161 316 108 355 c 0,6,7
 69 383 69 383 56 395 c 0,8,9
 40 411 40 411 40 426 c 0,10,11
 40 436 40 436 48 482 c 0,12,13
 51 498 51 498 57 528 c 1,14,-1
 211 444 l 1,15,-1
 211 420 l 1,16,-1
 163 420 l 1,17,-1
 251 345 l 2,18,19
 295 307 295 307 349 229 c 0,20,21
 399 156 399 156 407 122 c 1,22,23
 412 133 412 133 415 140 c 0,24,25
 423 163 423 163 423 183 c 0,26,27
 423 225 423 225 404 303 c 0,28,29
 387 375 387 375 369 431 c 0,30,31
 350 490 350 490 349 490 c 1,32,33
 354 503 354 503 379 551 c 0,34,35
 410 609 410 609 422 618 c 1,36,-1
 469 275 l 2,37,38
 479 207 479 207 514 158 c 0,39,40
 547 113 547 113 577 113 c 2,41,-1
 649 113 l 1,42,-1
 649 0 l 1,43,-1
 554 0 l 2,44,45
 517 0 517 0 489 26 c 0,46,47
 464 48 464 48 452 89 c 1,48,49
 444 68 444 68 440 58 c 0,50,51
 427 26 427 26 419 15 c 0,52,53
 392 -18 392 -18 345.5 -35 c 128,-1,54
 299 -52 299 -52 248 -52 c 0,55,56
 225 -52 225 -52 186.5 -48 c 128,-1,57
 148 -44 148 -44 132 -40 c 1,58,-1
 132 -25 l 1,59,60
 150 -25 150 -25 199 -6 c 0,61,62
 253 15 253 15 299 39 c 0,63,64
 354 69 354 69 381 96 c 1,0,1
274 735 m 1,65,66
 272 732 272 732 254.5 667.5 c 128,-1,67
 237 603 237 603 236 602 c 1,68,69
 236 612 236 612 234 634 c 128,-1,70
 232 656 232 656 228 666 c 1,71,72
 191 636 191 636 139 625 c 0,73,74
 108 617 108 617 68 617 c 2,75,-1
 53 617 l 1,76,-1
 48 617 l 1,77,78
 46 613 46 613 38 593 c 0,79,80
 35 587 35 587 30 574 c 1,81,82
 28 575 28 575 25 575.5 c 128,-1,83
 22 576 22 576 21 576 c 0,84,85
 18 576 18 576 16 574 c 1,86,-1
 16 708 l 1,87,88
 34 696 34 696 58 689.5 c 128,-1,89
 82 683 82 683 109 683 c 0,90,91
 144 683 144 683 188 699 c 0,92,93
 230 716 230 716 274 735 c 1,65,66
EndSplineSet
LCarets2: 1 0 
EndChar

StartChar: lamwithalefhamzaaboveisolatedd
Encoding: 65271 65271 183
Width: 637
GlyphClass: 3
Flags: W
AnchorPoint: "ArabicAboveLigature" 519 778 baselig 0
AnchorPoint: "ArabicAboveLigature" 252 820 baselig 1
AnchorPoint: "ArabicBelowLigature" 491 -112 baselig 0
AnchorPoint: "ArabicBelowLigature" 273 -112 baselig 1
LayerCount: 2
Fore
SplineSet
357 622 m 1,0,1
 356 622 356 622 329 608 c 0,2,3
 290 588 290 588 271 576 c 0,4,5
 236 554 236 554 222 539 c 1,6,-1
 222 556 l 2,7,8
 223 565 223 565 232 588 c 0,9,10
 235 595 235 595 242 609 c 1,11,12
 232 614 232 614 226 622 c 0,13,14
 216 635 216 635 216 655 c 0,15,16
 216 689 216 689 248 736 c 0,17,18
 282 786 282 786 315 786 c 0,19,20
 330 786 330 786 337 776 c 0,21,22
 344 766 344 766 344 750 c 0,23,24
 344 737 344 737 339 724 c 0,25,26
 335 712 335 712 329 708 c 1,27,28
 325 713 325 713 322 716 c 0,29,30
 313 722 313 722 302 722 c 0,31,32
 288 722 288 722 265 705 c 0,33,34
 242 688 242 688 242 675 c 0,35,36
 242 667 242 667 262 661 c 0,37,38
 282 655 282 655 298 655 c 0,39,40
 314 655 314 655 343 671 c 0,41,42
 361 681 361 681 379 692 c 1,43,-1
 357 622 l 1,0,1
EndSplineSet
Refer: 187 65275 N 1 0 0 1 0 0 2
LCarets2: 1 0 
EndChar

StartChar: lamwithalefhamzaabovefinal
Encoding: 65272 65272 184
Width: 637
GlyphClass: 3
Flags: W
AnchorPoint: "ArabicAboveLigature" 423 744 baselig 0
AnchorPoint: "ArabicAboveLigature" 119 852 baselig 1
AnchorPoint: "ArabicBelowLigature" 558 -102 baselig 0
AnchorPoint: "ArabicBelowLigature" 189 -131 baselig 1
LayerCount: 2
Fore
SplineSet
251 622 m 1,0,-1
 224 608 l 0,1,2
 185 588 185 588 165 576 c 0,3,4
 130 554 130 554 116 539 c 1,5,-1
 116 556 l 2,6,7
 117 565 117 565 126 588 c 0,8,9
 130 595 130 595 137 609 c 1,10,11
 126 614 126 614 120 622 c 0,12,13
 110 635 110 635 110 655 c 0,14,15
 110 689 110 689 142 736 c 0,16,17
 176 786 176 786 209 786 c 0,18,19
 225 786 225 786 232 776 c 0,20,21
 238 766 238 766 238 750 c 0,22,23
 238 737 238 737 234 724 c 0,24,25
 229 712 229 712 223 708 c 1,26,27
 219 713 219 713 216 716 c 0,28,29
 207 722 207 722 197 722 c 0,30,31
 182 722 182 722 159 705 c 0,32,33
 137 688 137 688 137 675 c 0,34,35
 137 667 137 667 156 661 c 0,36,37
 176 655 176 655 193 655 c 0,38,39
 208 655 208 655 237 671 c 0,40,41
 255 681 255 681 274 692 c 1,42,-1
 251 622 l 1,0,-1
EndSplineSet
Refer: 188 65276 N 1 0 0 1 0 0 2
LCarets2: 1 0 
EndChar

StartChar: lamwithalefhamzabelowisolated
Encoding: 65273 65273 185
Width: 637
GlyphClass: 3
Flags: W
AnchorPoint: "ArabicAboveLigature" 476 713 baselig 0
AnchorPoint: "ArabicAboveLigature" 135 716 baselig 1
AnchorPoint: "ArabicBelowLigature" 549 -80 baselig 0
AnchorPoint: "ArabicBelowLigature" 416 -301 baselig 1
LayerCount: 2
Fore
SplineSet
456 -219 m 1,0,1
 455 -219 455 -219 428 -233 c 0,2,3
 389 -254 389 -254 369 -266 c 0,4,5
 335 -287 335 -287 321 -302 c 1,6,-1
 321 -285 l 2,7,8
 322 -276 322 -276 331 -254 c 0,9,10
 334 -246 334 -246 341 -233 c 1,11,12
 331 -228 331 -228 325 -219 c 0,13,14
 315 -206 315 -206 315 -187 c 0,15,16
 315 -152 315 -152 347 -106 c 0,17,18
 381 -56 381 -56 414 -56 c 0,19,20
 429 -56 429 -56 436 -66 c 0,21,22
 443 -76 443 -76 443 -91 c 0,23,24
 443 -104 443 -104 438 -117 c 0,25,26
 434 -130 434 -130 428 -133 c 1,27,28
 424 -128 424 -128 421 -126 c 0,29,30
 412 -119 412 -119 401 -119 c 0,31,32
 387 -119 387 -119 364 -136 c 0,33,34
 341 -153 341 -153 341 -167 c 0,35,36
 341 -175 341 -175 361 -181 c 0,37,38
 381 -187 381 -187 397 -187 c 0,39,40
 413 -187 413 -187 442 -171 c 0,41,42
 460 -160 460 -160 478 -150 c 1,43,-1
 456 -219 l 1,0,1
EndSplineSet
Refer: 187 65275 N 1 0 0 1 0 0 2
LCarets2: 1 0 
EndChar

StartChar: lamwithalefhamzabelowfinal
Encoding: 65274 65274 186
Width: 637
GlyphClass: 3
Flags: W
AnchorPoint: "ArabicAboveLigature" 390 710 baselig 0
AnchorPoint: "ArabicAboveLigature" 82 614 baselig 1
AnchorPoint: "ArabicBelowLigature" 581 -48 baselig 0
AnchorPoint: "ArabicBelowLigature" 408 -303 baselig 1
LayerCount: 2
Fore
SplineSet
476 -200 m 1,0,1
 475 -200 475 -200 448 -214 c 0,2,3
 409 -235 409 -235 390 -247 c 0,4,5
 355 -269 355 -269 341 -283 c 1,6,-1
 341 -266 l 2,7,8
 341 -257 341 -257 351 -235 c 0,9,10
 354 -228 354 -228 361 -213 c 1,11,12
 350 -209 350 -209 345 -200 c 0,13,14
 335 -187 335 -187 335 -167 c 0,15,16
 335 -133 335 -133 366 -87 c 0,17,18
 400 -37 400 -37 434 -37 c 0,19,20
 449 -37 449 -37 456 -47 c 0,21,22
 463 -56 463 -56 463 -72 c 0,23,24
 463 -85 463 -85 458 -98 c 0,25,26
 453 -111 453 -111 448 -114 c 1,27,28
 444 -109 444 -109 440 -107 c 0,29,30
 432 -100 432 -100 421 -100 c 0,31,32
 407 -100 407 -100 384 -117 c 0,33,34
 361 -134 361 -134 361 -148 c 0,35,36
 361 -155 361 -155 381 -161 c 0,37,38
 400 -167 400 -167 417 -167 c 0,39,40
 432 -167 432 -167 462 -151 c 0,41,-1
 498 -131 l 1,42,-1
 476 -200 l 1,0,1
EndSplineSet
Refer: 188 65276 N 1 0 0 1 -0 0 2
LCarets2: 1 0 
EndChar

StartChar: lamwithalefisolated
Encoding: 65275 65275 187
Width: 637
GlyphClass: 3
Flags: W
AnchorPoint: "ArabicAboveLigature" 484 703 baselig 0
AnchorPoint: "ArabicAboveLigature" 135 653 baselig 1
AnchorPoint: "ArabicBelowLigature" 504 -107 baselig 0
AnchorPoint: "ArabicBelowLigature" 266 -110 baselig 1
LayerCount: 2
Fore
SplineSet
505 389 m 2,0,1
 505 332 505 332 493 275 c 0,2,3
 486 242 486 242 471 195 c 1,4,5
 483 170 483 170 492 136 c 128,-1,6
 501 102 501 102 501 72 c 2,7,-1
 501 0 l 1,8,-1
 268 0 l 1,9,-1
 268 113 l 1,10,11
 306 118 306 118 345 147 c 0,12,13
 370 167 370 167 397 197 c 1,14,15
 372 246 372 246 315 303 c 0,16,17
 263 356 263 356 214 386 c 0,18,19
 207 389 207 389 200 390.5 c 128,-1,20
 193 392 193 392 183 392 c 0,21,22
 180 392 180 392 176 391.5 c 128,-1,23
 172 391 172 391 166 391 c 256,24,25
 162 391 162 391 158 392.5 c 128,-1,26
 154 394 154 394 150 397 c 0,27,28
 142 406 142 406 137 435.5 c 128,-1,29
 132 465 132 465 132 498 c 0,30,31
 132 522 132 522 134 538.5 c 128,-1,32
 136 555 136 555 141 568 c 1,33,34
 175 557 175 557 239 495 c 0,35,36
 294 441 294 441 352 369 c 0,37,38
 408 299 408 299 426 261 c 1,39,40
 432 273 432 273 435 286 c 0,41,42
 439 306 439 306 439 337 c 0,43,44
 439 377 439 377 429 444 c 0,45,46
 425 467 425 467 418 505 c 1,47,48
 443 540 443 540 455 558 c 0,49,50
 495 610 495 610 505 613 c 1,51,-1
 505 389 l 2,0,1
443 113 m 1,52,53
 441 120 441 120 438.5 127 c 128,-1,54
 436 134 436 134 432 140 c 1,55,56
 425 129 425 129 407 113 c 1,57,-1
 443 113 l 1,52,53
EndSplineSet
LCarets2: 1 0 
EndChar

StartChar: lamwithaleffinal
Encoding: 65276 65276 188
Width: 637
GlyphClass: 3
Flags: W
AnchorPoint: "ArabicAboveLigature" 405 692 baselig 0
AnchorPoint: "ArabicAboveLigature" 46 614 baselig 1
AnchorPoint: "ArabicBelowLigature" 570 -116 baselig 0
AnchorPoint: "ArabicBelowLigature" 179 -115 baselig 1
LayerCount: 2
Fore
SplineSet
368 96 m 1,0,1
 338 139 338 139 288 192 c 0,2,3
 234 250 234 250 186 287 c 0,4,5
 149 316 149 316 96 355 c 0,6,7
 57 383 57 383 45 395 c 0,8,9
 26 413 26 413 28 426 c 0,10,11
 30 435 30 435 37 482 c 0,12,13
 39 498 39 498 45 528 c 1,14,-1
 199 444 l 1,15,-1
 199 420 l 1,16,-1
 151 420 l 1,17,-1
 239 345 l 2,18,19
 283 307 283 307 337 229 c 0,20,21
 388 156 388 156 396 122 c 1,22,23
 401 133 401 133 403 140 c 0,24,25
 411 163 411 163 411 183 c 0,26,27
 411 225 411 225 392 303 c 0,28,29
 378 362 378 362 356 431 c 0,30,31
 338 490 338 490 337 490 c 1,32,33
 342 503 342 503 367 551 c 0,34,35
 397 609 397 609 410 618 c 1,36,-1
 458 275 l 2,37,38
 467 207 467 207 502 158 c 0,39,40
 534 113 534 113 566 113 c 2,41,-1
 649 113 l 1,42,-1
 649 0 l 1,43,-1
 542 0 l 2,44,45
 505 0 505 0 478 26 c 0,46,47
 453 48 453 48 440 89 c 1,48,49
 433 68 433 68 429 58 c 0,50,51
 416 26 416 26 406 15 c 0,52,53
 380 -18 380 -18 333.5 -35 c 128,-1,54
 287 -52 287 -52 236 -52 c 0,55,56
 212 -52 212 -52 174.5 -48 c 128,-1,57
 137 -44 137 -44 120 -40 c 1,58,-1
 120 -25 l 1,59,60
 137 -25 137 -25 187 -6 c 0,61,62
 241 15 241 15 287 39 c 0,63,64
 342 69 342 69 368 96 c 1,0,1
EndSplineSet
LCarets2: 1 0 
EndChar

StartChar: shaddahfathatan
Encoding: 65536 -1 189
Width: 0
VWidth: 1398
GlyphClass: 4
Flags: W
AnchorPoint: "ArabicAboveLigature" 126 503.5 mark 0
AnchorPoint: "ArabicAbove" 126 503.5 mark 0
LayerCount: 2
Fore
SplineSet
234 699 m 0,0,1
 234 676 234 676 230 653.5 c 128,-1,2
 226 631 226 631 218 612.5 c 128,-1,3
 210 594 210 594 196.5 582.5 c 128,-1,4
 183 571 183 571 164 571 c 0,5,6
 136 571 136 571 116 585 c 1,7,-1
 101 563 l 2,8,9
 93 552 93 552 84.5 543 c 128,-1,10
 76 534 76 534 65 529 c 128,-1,11
 54 524 54 524 40 523 c 0,12,13
 17 523 17 523 0 544 c 128,-1,14
 -17 565 -17 565 -17 602 c 0,15,16
 -17 606 -17 606 -16 615 c 128,-1,17
 -15 624 -15 624 -13 635.5 c 128,-1,18
 -11 647 -11 647 -8 658 c 128,-1,19
 -5 669 -5 669 0 678 c 0,20,21
 2 681 2 681 5 680 c 128,-1,22
 8 679 8 679 11 679 c 0,23,24
 16 679 16 679 16 666.5 c 128,-1,25
 16 654 16 654 17.5 639.5 c 128,-1,26
 19 625 19 625 23.5 612 c 128,-1,27
 28 599 28 599 43 599 c 0,28,29
 54 599 54 599 62.5 607.5 c 128,-1,30
 71 616 71 616 78 628 c 128,-1,31
 85 640 85 640 90 654.5 c 128,-1,32
 95 669 95 669 98 682 c 128,-1,33
 101 695 101 695 102.5 704 c 128,-1,34
 104 713 104 713 105 714 c 1,35,36
 106 717 106 717 112 717 c 128,-1,37
 118 717 118 717 119 717 c 0,38,39
 123 717 123 717 125 706 c 128,-1,40
 127 695 127 695 130.5 683 c 128,-1,41
 134 671 134 671 141 660.5 c 128,-1,42
 148 650 148 650 161 650 c 0,43,44
 176 650 176 650 184 665 c 128,-1,45
 192 680 192 680 197 699 c 128,-1,46
 202 718 202 718 203 734.5 c 0,47,-1
 204 751 l 1,48,49
 206 756 206 756 212 759 c 128,-1,50
 218 762 218 762 221 762 c 128,-1,51
 224 762 224 762 226 754.5 c 128,-1,52
 228 747 228 747 230 737 c 128,-1,53
 232 727 232 727 233 716.5 c 128,-1,54
 234 706 234 706 234 699 c 0,0,1
208 975 m 0,55,56
 208 973 208 973 204 964 c 128,-1,57
 200 955 200 955 198 949 c 0,58,59
 194 941 194 941 189 935.5 c 128,-1,60
 184 930 184 930 178.5 926.5 c 128,-1,61
 173 923 173 923 167 920 c 128,-1,62
 161 917 161 917 156 914 c 2,63,-1
 26 847 l 2,64,65
 17 842 17 842 11.5 839.5 c 128,-1,66
 6 837 6 837 2.5 836.5 c 128,-1,67
 -1 836 -1 836 -3.5 835 c 128,-1,68
 -6 834 -6 834 -8 830 c 256,69,70
 -10 826 -10 826 -12 829 c 128,-1,71
 -14 832 -14 832 -14 834 c 1,72,73
 -13 836 -13 836 -11.5 844.5 c 128,-1,74
 -10 853 -10 853 -7 859 c 0,75,76
 -4 866 -4 866 -1 870.5 c 128,-1,77
 2 875 2 875 5.5 878 c 128,-1,78
 9 881 9 881 13.5 884 c 128,-1,79
 18 887 18 887 26 890 c 2,80,-1
 162 963 l 1,81,-1
 174 969 l 1,82,-1
 185 975 l 2,83,84
 190 979 190 979 194 981 c 128,-1,85
 198 983 198 983 200 983 c 0,86,87
 204 983 204 983 206 982 c 128,-1,88
 208 981 208 981 208 975 c 0,55,56
208 875 m 0,89,90
 208 873 208 873 204 864 c 128,-1,91
 200 855 200 855 198 849 c 0,92,93
 191 833 191 833 178 826 c 2,94,-1
 156 813 l 1,95,-1
 26 746 l 2,96,97
 17 742 17 742 11 739 c 2,98,-1
 2 736 l 2,99,100
 -2 735 -2 735 -4 733.5 c 128,-1,101
 -6 732 -6 732 -8 728.5 c 128,-1,102
 -10 725 -10 725 -12 728 c 128,-1,103
 -14 731 -14 731 -14 734 c 1,104,105
 -12 736 -12 736 -11 744.5 c 128,-1,106
 -10 753 -10 753 -7 759 c 128,-1,107
 -4 765 -4 765 -1 769.5 c 128,-1,108
 2 774 2 774 5.5 777 c 128,-1,109
 9 780 9 780 13.5 783 c 128,-1,110
 18 786 18 786 26 789 c 2,111,-1
 162 862 l 2,112,113
 172 867 172 867 184 874.5 c 128,-1,114
 196 882 196 882 200 882 c 128,-1,115
 204 882 204 882 206 881 c 128,-1,116
 208 880 208 880 208 875 c 0,89,90
EndSplineSet
LCarets2: 1 0 
EndChar

StartChar: shaddahdammatan
Encoding: 65537 -1 190
Width: 0
VWidth: 1398
GlyphClass: 4
Flags: W
AnchorPoint: "ArabicAboveLigature" 126.5 502 mark 0
AnchorPoint: "ArabicAbove" 126.5 502 mark 0
LayerCount: 2
Fore
SplineSet
234 696 m 4,0,1
 234 673 234 673 230 650.5 c 132,-1,2
 226 628 226 628 218 609.5 c 132,-1,3
 210 591 210 591 196.5 579.5 c 132,-1,4
 183 568 183 568 164 568 c 4,5,6
 136 568 136 568 116 582 c 5,7,-1
 101 560 l 6,8,9
 93 549 93 549 84.5 540 c 132,-1,10
 76 531 76 531 65 526 c 132,-1,11
 54 521 54 521 40 520 c 4,12,13
 17 520 17 520 0 541 c 132,-1,14
 -17 562 -17 562 -17 599 c 4,15,16
 -17 603 -17 603 -16 612 c 132,-1,17
 -15 621 -15 621 -13 632.5 c 132,-1,18
 -11 644 -11 644 -8 655 c 132,-1,19
 -5 666 -5 666 0 675 c 4,20,21
 2 678 2 678 5 677 c 132,-1,22
 8 676 8 676 11 676 c 4,23,24
 16 676 16 676 16 663.5 c 132,-1,25
 16 651 16 651 17.5 636.5 c 132,-1,26
 19 622 19 622 23.5 609 c 132,-1,27
 28 596 28 596 43 596 c 4,28,29
 54 596 54 596 62.5 604.5 c 132,-1,30
 71 613 71 613 78 625 c 132,-1,31
 85 637 85 637 90 651.5 c 132,-1,32
 95 666 95 666 98 679 c 132,-1,33
 101 692 101 692 102.5 701 c 132,-1,34
 104 710 104 710 105 711 c 5,35,36
 106 714 106 714 112 714 c 132,-1,37
 118 714 118 714 119 714 c 4,38,39
 123 714 123 714 125 703 c 132,-1,40
 127 692 127 692 130.5 680 c 132,-1,41
 134 668 134 668 141 657.5 c 132,-1,42
 148 647 148 647 161 647 c 4,43,44
 176 647 176 647 184 662 c 132,-1,45
 192 677 192 677 197 696 c 132,-1,46
 202 715 202 715 203 731.5 c 4,47,-1
 204 748 l 5,48,49
 206 753 206 753 212 756 c 132,-1,50
 218 759 218 759 221 759 c 132,-1,51
 224 759 224 759 226 751.5 c 132,-1,52
 228 744 228 744 230 734 c 132,-1,53
 232 724 232 724 233 713.5 c 132,-1,54
 234 703 234 703 234 696 c 4,0,1
224 823 m 4,55,56
 224 795 224 795 210 795 c 4,57,58
 206 795 206 795 199.5 798.5 c 132,-1,59
 193 802 193 802 186 808 c 6,60,-1
 173 818 l 6,61,62
 166 823 166 823 161 827 c 5,63,64
 116 783 116 783 76.5 757.5 c 132,-1,65
 37 732 37 732 12 732 c 4,66,67
 7 732 7 732 4.5 734.5 c 132,-1,68
 2 737 2 737 2 740 c 4,69,70
 2 742 2 742 6 749.5 c 132,-1,71
 10 757 10 757 14 767.5 c 132,-1,72
 18 778 18 778 22 790 c 132,-1,73
 26 802 26 802 26 813 c 4,74,75
 26 819 26 819 26 825.5 c 132,-1,76
 26 832 26 832 23 837.5 c 132,-1,77
 20 843 20 843 14.5 846.5 c 132,-1,78
 9 850 9 850 0 850 c 4,79,80
 -10 850 -10 850 -16 843 c 132,-1,81
 -22 836 -22 836 -25 827.5 c 132,-1,82
 -28 819 -28 819 -29 811.5 c 4,83,-1
 -30 804 l 4,84,85
 -37 804 -37 804 -38.5 808 c 132,-1,86
 -40 812 -40 812 -40 819 c 4,87,88
 -40 829 -40 829 -38 844.5 c 132,-1,89
 -36 860 -36 860 -31 875 c 132,-1,90
 -26 890 -26 890 -17 901 c 132,-1,91
 -8 912 -8 912 7 912 c 4,92,93
 28 912 28 912 40 901 c 132,-1,94
 52 890 52 890 56 866 c 4,95,96
 57 859 57 859 58 849.5 c 132,-1,97
 59 840 59 840 58.5 829 c 132,-1,98
 58 818 58 818 57.5 808 c 132,-1,99
 57 798 57 798 56 790 c 5,100,101
 77 797 77 797 97.5 813 c 132,-1,102
 118 829 118 829 133 846 c 5,103,104
 126 851 126 851 118 855.5 c 132,-1,105
 110 860 110 860 104 866.5 c 132,-1,106
 98 873 98 873 94 882.5 c 132,-1,107
 90 892 90 892 90 907 c 4,108,109
 90 924 90 924 95.5 940.5 c 132,-1,110
 101 957 101 957 112 971.5 c 132,-1,111
 123 986 123 986 138 995 c 132,-1,112
 153 1004 153 1004 170 1004 c 4,113,114
 182 1004 182 1004 190.5 998.5 c 132,-1,115
 199 993 199 993 205 985.5 c 132,-1,116
 211 978 211 978 213.5 968 c 132,-1,117
 216 958 216 958 216 948 c 4,118,119
 216 940 216 940 214 931 c 132,-1,120
 212 922 212 922 209 912.5 c 132,-1,121
 206 903 206 903 202 894.5 c 132,-1,122
 198 886 198 886 194 880 c 5,123,124
 209 866 209 866 216.5 854.5 c 132,-1,125
 224 843 224 843 224 823 c 4,55,56
165 901 m 5,126,127
 170 911 170 911 170 920.5 c 132,-1,128
 170 930 170 930 167 938 c 132,-1,129
 164 946 164 946 157 951.5 c 132,-1,130
 150 957 150 957 140 957 c 4,131,132
 134 957 134 957 131 952.5 c 132,-1,133
 128 948 128 948 128 943 c 4,134,135
 128 934 128 934 136 924.5 c 132,-1,136
 144 915 144 915 165 901 c 5,126,127
EndSplineSet
LCarets2: 1 0 
EndChar

StartChar: shaddahkasratan
Encoding: 65538 -1 191
Width: 0
VWidth: 1398
GlyphClass: 4
Flags: W
AnchorPoint: "ArabicAboveLigature" 140 480 mark 0
AnchorPoint: "ArabicAbove" 140 480 mark 0
LayerCount: 2
Fore
SplineSet
234 916 m 4,0,1
 234 894 234 894 230 871.5 c 132,-1,2
 226 849 226 849 218 830.5 c 132,-1,3
 210 812 210 812 196.5 801 c 132,-1,4
 183 790 183 790 164 790 c 4,5,6
 136 790 136 790 116 804 c 5,7,-1
 101 782 l 6,8,9
 94 771 94 771 85 762 c 132,-1,10
 76 753 76 753 65 747.5 c 132,-1,11
 54 742 54 742 40 742 c 4,12,13
 17 742 17 742 0 763 c 132,-1,14
 -17 784 -17 784 -17 820 c 4,15,16
 -17 824 -17 824 -16 833 c 132,-1,17
 -15 842 -15 842 -13 853.5 c 132,-1,18
 -11 865 -11 865 -8 876.5 c 132,-1,19
 -5 888 -5 888 0 896 c 5,20,21
 2 899 2 899 5 898 c 132,-1,22
 8 897 8 897 11 897 c 4,23,24
 16 897 16 897 16 884.5 c 132,-1,25
 16 872 16 872 17.5 857 c 132,-1,26
 19 842 19 842 23.5 830 c 132,-1,27
 28 818 28 818 43 818 c 4,28,29
 54 818 54 818 62.5 826 c 132,-1,30
 71 834 71 834 78 846 c 132,-1,31
 85 858 85 858 90 873 c 132,-1,32
 95 888 95 888 98 900.5 c 132,-1,33
 101 913 101 913 102.5 922 c 132,-1,34
 104 931 104 931 105 932 c 4,35,36
 106 936 106 936 112 935.5 c 132,-1,37
 118 935 118 935 119 935 c 4,38,39
 123 935 123 935 125 924.5 c 132,-1,40
 127 914 127 914 130.5 901 c 132,-1,41
 134 888 134 888 141 878 c 132,-1,42
 148 868 148 868 161 868 c 4,43,44
 176 868 176 868 184 883 c 132,-1,45
 192 898 192 898 197 917 c 132,-1,46
 202 936 202 936 203 952 c 132,-1,47
 204 968 204 968 204 970 c 5,48,49
 206 974 206 974 212 977 c 132,-1,50
 218 980 218 980 221 980 c 132,-1,51
 224 980 224 980 226 972.5 c 132,-1,52
 228 965 228 965 230 955 c 132,-1,53
 232 945 232 945 233 934.5 c 132,-1,54
 234 924 234 924 234 916 c 4,0,1
228 748 m 4,55,56
 228 745 228 745 224.5 736.5 c 132,-1,57
 221 728 221 728 218 720 c 4,58,59
 212 706 212 706 199.5 698.5 c 132,-1,60
 187 691 187 691 178 688 c 6,61,-1
 46 619 l 6,62,63
 30 610 30 610 23 606 c 132,-1,64
 16 602 16 602 11 602 c 4,65,66
 7 602 7 602 7 606 c 4,67,68
 7 609 7 609 8.5 617.5 c 132,-1,69
 10 626 10 626 14 632 c 6,70,-1
 20 642 l 6,71,72
 23 647 23 647 26.5 650 c 132,-1,73
 30 653 30 653 34.5 655.5 c 132,-1,74
 39 658 39 658 46 662 c 6,75,-1
 182 735 l 6,76,77
 193 741 193 741 205.5 748.5 c 132,-1,78
 218 756 218 756 221 756 c 4,79,80
 228 756 228 756 228 748 c 4,55,56
228 636 m 4,81,82
 228 633 228 633 224 624 c 6,83,-1
 218 610 l 6,84,85
 211 593 211 593 199 586 c 6,86,-1
 178 574 l 5,87,-1
 46 506 l 6,88,89
 30 498 30 498 23 493 c 132,-1,90
 16 488 16 488 11 488 c 4,91,92
 7 488 7 488 7 495 c 4,93,94
 7 497 7 497 8.5 505 c 132,-1,95
 10 513 10 513 14 518 c 4,96,97
 18 525 18 525 20.5 529.5 c 132,-1,98
 23 534 23 534 26.5 537 c 132,-1,99
 30 540 30 540 34.5 543 c 132,-1,100
 39 546 39 546 46 550 c 6,101,-1
 182 622 l 5,102,-1
 206 636 l 6,103,104
 218 643 218 643 221 643 c 4,105,106
 228 643 228 643 228 636 c 4,81,82
EndSplineSet
EndChar

StartChar: shaddahfathah
Encoding: 65539 -1 192
Width: 0
VWidth: 1398
GlyphClass: 4
Flags: W
AnchorPoint: "ArabicAboveLigature" 129.5 507 mark 0
AnchorPoint: "ArabicAbove" 129.5 507 mark 0
LayerCount: 2
Fore
SplineSet
234 698 m 4,0,1
 234 675 234 675 230 652.5 c 132,-1,2
 226 630 226 630 218 611.5 c 132,-1,3
 210 593 210 593 196.5 581.5 c 132,-1,4
 183 570 183 570 164 570 c 4,5,6
 136 570 136 570 116 584 c 5,7,-1
 101 562 l 6,8,9
 93 551 93 551 84.5 542 c 132,-1,10
 76 533 76 533 65 528 c 132,-1,11
 54 523 54 523 40 522 c 4,12,13
 17 522 17 522 0 543 c 132,-1,14
 -17 564 -17 564 -17 601 c 4,15,16
 -17 605 -17 605 -16 614 c 132,-1,17
 -15 623 -15 623 -13 634.5 c 132,-1,18
 -11 646 -11 646 -8 657 c 132,-1,19
 -5 668 -5 668 0 677 c 4,20,21
 2 680 2 680 5 679 c 132,-1,22
 8 678 8 678 11 678 c 4,23,24
 16 678 16 678 16 665.5 c 132,-1,25
 16 653 16 653 17.5 638.5 c 132,-1,26
 19 624 19 624 23.5 611 c 132,-1,27
 28 598 28 598 43 598 c 4,28,29
 54 598 54 598 62.5 606.5 c 132,-1,30
 71 615 71 615 78 627 c 132,-1,31
 85 639 85 639 90 653.5 c 132,-1,32
 95 668 95 668 98 681 c 132,-1,33
 101 694 101 694 102.5 703 c 132,-1,34
 104 712 104 712 105 713 c 5,35,36
 106 716 106 716 112 716 c 132,-1,37
 118 716 118 716 119 716 c 4,38,39
 123 716 123 716 125 705 c 132,-1,40
 127 694 127 694 130.5 682 c 132,-1,41
 134 670 134 670 141 659.5 c 132,-1,42
 148 649 148 649 161 649 c 4,43,44
 176 649 176 649 184 664 c 132,-1,45
 192 679 192 679 197 698 c 132,-1,46
 202 717 202 717 203 733.5 c 4,47,-1
 204 750 l 5,48,49
 206 755 206 755 212 758 c 132,-1,50
 218 761 218 761 221 761 c 132,-1,51
 224 761 224 761 226 753.5 c 132,-1,52
 228 746 228 746 230 736 c 132,-1,53
 232 726 232 726 233 715.5 c 132,-1,54
 234 705 234 705 234 698 c 4,0,1
214 874 m 4,55,56
 214 872 214 872 211 863 c 132,-1,57
 208 854 208 854 204 848 c 5,58,59
 198 832 198 832 186 825 c 6,60,-1
 164 812 l 5,61,-1
 32 745 l 5,62,-1
 8 732 l 6,63,64
 2 728 2 728 -2 728 c 4,65,66
 -7 728 -7 728 -7 733 c 4,67,68
 -7 735 -7 735 -5.5 743.5 c 132,-1,69
 -4 752 -4 752 0 758 c 132,-1,70
 4 764 4 764 6.5 768.5 c 132,-1,71
 9 773 9 773 12.5 776 c 132,-1,72
 16 779 16 779 20.5 782 c 132,-1,73
 25 785 25 785 34 788 c 6,74,-1
 168 861 l 6,75,76
 180 866 180 866 192 873.5 c 132,-1,77
 204 881 204 881 207 881 c 4,78,79
 211 881 211 881 212.5 880 c 132,-1,80
 214 879 214 879 214 874 c 4,55,56
EndSplineSet
LCarets2: 1 0 
EndChar

StartChar: shaddahdammah
Encoding: 65540 -1 193
Width: 0
VWidth: 1398
GlyphClass: 4
Flags: W
AnchorPoint: "ArabicAboveLigature" 122.5 510.5 mark 0
AnchorPoint: "ArabicAbove" 122.5 510.5 mark 0
LayerCount: 2
Fore
SplineSet
234 698 m 4,0,1
 234 675 234 675 230 652.5 c 132,-1,2
 226 630 226 630 218 611.5 c 132,-1,3
 210 593 210 593 196.5 581.5 c 132,-1,4
 183 570 183 570 164 570 c 4,5,6
 136 570 136 570 116 584 c 5,7,-1
 101 562 l 6,8,9
 93 551 93 551 84.5 542 c 132,-1,10
 76 533 76 533 65 528 c 132,-1,11
 54 523 54 523 40 522 c 4,12,13
 17 522 17 522 0 543 c 132,-1,14
 -17 564 -17 564 -17 601 c 4,15,16
 -17 605 -17 605 -16 614 c 132,-1,17
 -15 623 -15 623 -13 634.5 c 132,-1,18
 -11 646 -11 646 -8 657 c 132,-1,19
 -5 668 -5 668 0 677 c 4,20,21
 2 680 2 680 5 679 c 132,-1,22
 8 678 8 678 11 678 c 4,23,24
 16 678 16 678 16 665.5 c 132,-1,25
 16 653 16 653 17.5 638.5 c 132,-1,26
 19 624 19 624 23.5 611 c 132,-1,27
 28 598 28 598 43 598 c 4,28,29
 54 598 54 598 62.5 606.5 c 132,-1,30
 71 615 71 615 78 627 c 132,-1,31
 85 639 85 639 90 653.5 c 132,-1,32
 95 668 95 668 98 681 c 132,-1,33
 101 694 101 694 102.5 703 c 132,-1,34
 104 712 104 712 105 713 c 5,35,36
 106 716 106 716 112 716 c 132,-1,37
 118 716 118 716 119 716 c 4,38,39
 123 716 123 716 125 705 c 132,-1,40
 127 694 127 694 130.5 682 c 132,-1,41
 134 670 134 670 141 659.5 c 132,-1,42
 148 649 148 649 161 649 c 4,43,44
 176 649 176 649 184 664 c 132,-1,45
 192 679 192 679 197 698 c 132,-1,46
 202 717 202 717 203 733.5 c 4,47,-1
 204 750 l 5,48,49
 206 755 206 755 212 758 c 132,-1,50
 218 761 218 761 221 761 c 132,-1,51
 224 761 224 761 226 753.5 c 132,-1,52
 228 746 228 746 230 736 c 132,-1,53
 232 726 232 726 233 715.5 c 132,-1,54
 234 705 234 705 234 698 c 4,0,1
215 846 m 4,55,56
 215 843 215 843 213.5 835.5 c 132,-1,57
 212 828 212 828 210 818 c 132,-1,58
 208 808 208 808 206.5 798 c 132,-1,59
 205 788 205 788 203 788 c 4,60,61
 192 788 192 788 178.5 798.5 c 132,-1,62
 165 809 165 809 150 822 c 5,63,64
 114 774 114 774 84 751 c 132,-1,65
 54 728 54 728 30 728 c 4,66,67
 21 728 21 728 8.5 730.5 c 132,-1,68
 -4 733 -4 733 -14 738 c 5,69,70
 2 747 2 747 20.5 758.5 c 132,-1,71
 39 770 39 770 56.5 783 c 132,-1,72
 74 796 74 796 90.5 810.5 c 132,-1,73
 107 825 107 825 119 842 c 5,74,75
 101 855 101 855 92 868 c 132,-1,76
 83 881 83 881 82 899 c 4,77,78
 82 914 82 914 89 933 c 132,-1,79
 96 952 96 952 107 969.5 c 132,-1,80
 118 987 118 987 131 998.5 c 132,-1,81
 144 1010 144 1010 159 1010 c 4,82,83
 184 1010 184 1010 194 991.5 c 132,-1,84
 204 973 204 973 204 948 c 4,85,86
 204 928 204 928 198 908.5 c 132,-1,87
 192 889 192 889 184 872 c 5,88,89
 188 869 188 869 194 865 c 6,90,-1
 203 858 l 6,91,92
 208 855 208 855 211.5 851.5 c 132,-1,93
 215 848 215 848 215 846 c 4,55,56
161 917 m 4,94,95
 161 930 161 930 151.5 940 c 132,-1,96
 142 950 142 950 128 950 c 4,97,98
 125 950 125 950 122.5 947.5 c 132,-1,99
 120 945 120 945 120 941 c 4,100,101
 120 934 120 934 128.5 922 c 132,-1,102
 137 910 137 910 154 894 c 5,103,104
 156 900 156 900 158.5 905.5 c 132,-1,105
 161 911 161 911 161 917 c 4,94,95
EndSplineSet
LCarets2: 1 0 
EndChar

StartChar: shaddahkasrah
Encoding: 65541 -1 194
Width: 0
VWidth: 1398
GlyphClass: 4
Flags: W
AnchorPoint: "ArabicAboveLigature" 140 476.5 mark 0
AnchorPoint: "ArabicAbove" 140 476.5 mark 0
LayerCount: 2
Fore
SplineSet
234 804 m 4,0,1
 234 781 234 781 230 758 c 132,-1,2
 226 735 226 735 218 717 c 132,-1,3
 210 699 210 699 196.5 687.5 c 132,-1,4
 183 676 183 676 164 676 c 4,5,6
 135 676 135 676 116 692 c 5,7,-1
 101 669 l 6,8,9
 94 658 94 658 85 649 c 132,-1,10
 76 640 76 640 65 634 c 132,-1,11
 54 628 54 628 40 628 c 4,12,13
 17 628 17 628 0 649 c 132,-1,14
 -17 670 -17 670 -17 707 c 4,15,16
 -17 710 -17 710 -16 719.5 c 132,-1,17
 -15 729 -15 729 -13 740.5 c 132,-1,18
 -11 752 -11 752 -8 763.5 c 132,-1,19
 -5 775 -5 775 0 782 c 5,20,21
 2 786 2 786 4 786 c 6,22,-1
 11 786 l 6,23,24
 16 786 16 786 16 773.5 c 132,-1,25
 16 761 16 761 17.5 745.5 c 132,-1,26
 19 730 19 730 23.5 717 c 132,-1,27
 28 704 28 704 43 704 c 4,28,29
 54 704 54 704 63 712.5 c 132,-1,30
 72 721 72 721 79 733.5 c 132,-1,31
 86 746 86 746 90.5 761 c 132,-1,32
 95 776 95 776 98 788.5 c 132,-1,33
 101 801 101 801 102.5 809.5 c 132,-1,34
 104 818 104 818 105 819 c 6,35,36
 106 823 106 823 112 823 c 132,-1,37
 118 823 118 823 119 823 c 4,38,39
 123 823 123 823 125 812.5 c 132,-1,40
 127 802 127 802 130.5 789.5 c 132,-1,41
 134 777 134 777 141 766.5 c 132,-1,42
 148 756 148 756 161 756 c 4,43,44
 176 756 176 756 184 771 c 132,-1,45
 192 786 192 786 196.5 805 c 132,-1,46
 201 824 201 824 202.5 840 c 132,-1,47
 204 856 204 856 204 858 c 5,48,49
 205 862 205 862 211.5 865 c 132,-1,50
 218 868 218 868 221 868 c 260,51,52
 224 868 224 868 226 860.5 c 132,-1,53
 228 853 228 853 230 843 c 132,-1,54
 232 833 232 833 233 822.5 c 132,-1,55
 234 812 234 812 234 804 c 4,0,1
228 636 m 4,56,57
 228 633 228 633 224 624 c 6,58,-1
 218 610 l 6,59,60
 211 593 211 593 199 586 c 6,61,-1
 178 574 l 5,62,-1
 46 506 l 6,63,64
 30 498 30 498 23 493 c 132,-1,65
 16 488 16 488 11 488 c 4,66,67
 7 488 7 488 7 495 c 4,68,69
 7 497 7 497 8.5 505 c 132,-1,70
 10 513 10 513 14 518 c 4,71,72
 18 525 18 525 20.5 529.5 c 132,-1,73
 23 534 23 534 26.5 537 c 132,-1,74
 30 540 30 540 34.5 543 c 132,-1,75
 39 546 39 546 46 550 c 6,76,-1
 182 622 l 5,77,-1
 206 636 l 6,78,79
 218 643 218 643 221 643 c 4,80,81
 228 643 228 643 228 636 c 4,56,57
EndSplineSet
EndChar

StartChar: uni202A
Encoding: 8234 8234 195
Width: 0
VWidth: 1398
GlyphClass: 1
Flags: W
LayerCount: 2
Fore
SplineSet
45 -109 m 1,0,-1
 45 -62 l 1,1,-1
 -28 -62 l 1,2,-1
 -28 486 l 1,3,-1
 0 486 l 1,4,-1
 0 -34 l 1,5,-1
 45 -34 l 1,6,-1
 45 14 l 1,7,-1
 114 -48 l 1,8,-1
 45 -109 l 1,0,-1
EndSplineSet
EndChar

StartChar: uni202B
Encoding: 8235 8235 196
Width: 0
VWidth: 1398
GlyphClass: 1
Flags: W
LayerCount: 2
Fore
SplineSet
-45 -62 m 1,0,-1
 -45 -109 l 1,1,-1
 -114 -48 l 1,2,-1
 -45 14 l 1,3,-1
 -45 -34 l 1,4,-1
 0 -34 l 1,5,-1
 0 486 l 1,6,-1
 28 486 l 1,7,-1
 28 -62 l 1,8,-1
 -45 -62 l 1,0,-1
EndSplineSet
EndChar

StartChar: afii61573
Encoding: 8236 8236 197
Width: 0
VWidth: 1398
GlyphClass: 1
Flags: W
LayerCount: 2
Fore
SplineSet
14 486 m 1,0,-1
 14 -34 l 1,1,-1
 56 -34 l 1,2,-1
 56 -62 l 1,3,-1
 -56 -62 l 1,4,-1
 -56 -34 l 1,5,-1
 -14 -34 l 1,6,-1
 -14 486 l 1,7,-1
 -62 486 l 1,8,-1
 0 555 l 1,9,-1
 62 486 l 1,10,-1
 14 486 l 1,0,-1
EndSplineSet
EndChar

StartChar: afii61574
Encoding: 8237 8237 198
Width: 0
VWidth: 1398
GlyphClass: 1
Flags: W
LayerCount: 2
Fore
SplineSet
45 694 m 1,0,-1
 45 740 l 1,1,-1
 -99 740 l 1,2,-1
 -99 768 l 1,3,-1
 45 768 l 1,4,-1
 45 815 l 1,5,-1
 114 755 l 1,6,-1
 45 694 l 1,0,-1
22 636 m 0,7,8
 22 628 22 628 16 621 c 128,-1,9
 10 614 10 614 0 614 c 256,10,11
 -10 614 -10 614 -16 621 c 128,-1,12
 -22 628 -22 628 -22 636 c 0,13,14
 -22 646 -22 646 -16 652.5 c 128,-1,15
 -10 659 -10 659 0 659 c 256,16,17
 10 659 10 659 16 652.5 c 128,-1,18
 22 646 22 646 22 636 c 0,7,8
22 534 m 0,19,20
 22 524 22 524 16 518 c 128,-1,21
 10 512 10 512 0 512 c 256,22,23
 -10 512 -10 512 -16 518 c 128,-1,24
 -22 524 -22 524 -22 534 c 0,25,26
 -22 543 -22 543 -16 549 c 128,-1,27
 -10 555 -10 555 0 555 c 256,28,29
 10 555 10 555 16 549 c 128,-1,30
 22 543 22 543 22 534 c 0,19,20
22 432 m 0,31,32
 22 422 22 422 16 416 c 128,-1,33
 10 410 10 410 0 410 c 256,34,35
 -10 410 -10 410 -16 416 c 128,-1,36
 -22 422 -22 422 -22 432 c 0,37,38
 -22 440 -22 440 -16 447 c 128,-1,39
 -10 454 -10 454 0 454 c 256,40,41
 10 454 10 454 16 447 c 128,-1,42
 22 440 22 440 22 432 c 0,31,32
22 328 m 0,43,44
 22 320 22 320 16 314 c 128,-1,45
 10 308 10 308 0 308 c 256,46,47
 -10 308 -10 308 -16 314 c 128,-1,48
 -22 320 -22 320 -22 328 c 0,49,50
 -22 338 -22 338 -16 344.5 c 128,-1,51
 -10 351 -10 351 0 351 c 256,52,53
 10 351 10 351 16 344.5 c 128,-1,54
 22 338 22 338 22 328 c 0,43,44
22 226 m 0,55,56
 22 218 22 218 16 211 c 128,-1,57
 10 204 10 204 0 204 c 256,58,59
 -10 204 -10 204 -16 211 c 128,-1,60
 -22 218 -22 218 -22 226 c 0,61,62
 -22 236 -22 236 -16 242.5 c 128,-1,63
 -10 249 -10 249 0 249 c 256,64,65
 10 249 10 249 16 242.5 c 128,-1,66
 22 236 22 236 22 226 c 0,55,56
22 124 m 0,67,68
 22 114 22 114 16 108 c 128,-1,69
 10 102 10 102 0 102 c 256,70,71
 -10 102 -10 102 -16 108 c 128,-1,72
 -22 114 -22 114 -22 124 c 0,73,74
 -22 133 -22 133 -16 139.5 c 128,-1,75
 -10 146 -10 146 0 146 c 256,76,77
 10 146 10 146 16 139.5 c 128,-1,78
 22 133 22 133 22 124 c 0,67,68
22 22 m 0,79,80
 22 13 22 13 16 6.5 c 128,-1,81
 10 -0 10 -0 0 0 c 256,82,83
 -10 0 -10 0 -16 6.5 c 128,-1,84
 -22 13 -22 13 -22 22 c 0,85,86
 -22 30 -22 30 -16 36.5 c 128,-1,87
 -10 43 -10 43 0 43 c 256,88,89
 10 43 10 43 16 36.5 c 128,-1,90
 22 30 22 30 22 22 c 0,79,80
EndSplineSet
EndChar

StartChar: afii61575
Encoding: 8238 8238 199
Width: 0
VWidth: 1398
GlyphClass: 1
Flags: W
LayerCount: 2
Fore
SplineSet
-45 740 m 1,0,-1
 -45 694 l 1,1,-1
 -114 755 l 1,2,-1
 -45 815 l 1,3,-1
 -45 768 l 1,4,-1
 99 768 l 1,5,-1
 99 740 l 1,6,-1
 -45 740 l 1,0,-1
22 636 m 0,7,8
 22 628 22 628 16 621 c 128,-1,9
 10 614 10 614 0 614 c 256,10,11
 -10 614 -10 614 -16 621 c 128,-1,12
 -22 628 -22 628 -22 636 c 0,13,14
 -22 646 -22 646 -16 652.5 c 128,-1,15
 -10 659 -10 659 0 659 c 256,16,17
 10 659 10 659 16 652.5 c 128,-1,18
 22 646 22 646 22 636 c 0,7,8
22 534 m 0,19,20
 22 524 22 524 16 518 c 128,-1,21
 10 512 10 512 0 512 c 256,22,23
 -10 512 -10 512 -16 518 c 128,-1,24
 -22 524 -22 524 -22 534 c 0,25,26
 -22 543 -22 543 -16 549 c 128,-1,27
 -10 555 -10 555 0 555 c 256,28,29
 10 555 10 555 16 549 c 128,-1,30
 22 543 22 543 22 534 c 0,19,20
22 432 m 0,31,32
 22 422 22 422 16 416 c 128,-1,33
 10 410 10 410 0 410 c 256,34,35
 -10 410 -10 410 -16 416 c 128,-1,36
 -22 422 -22 422 -22 432 c 0,37,38
 -22 440 -22 440 -16 447 c 128,-1,39
 -10 454 -10 454 0 454 c 256,40,41
 10 454 10 454 16 447 c 128,-1,42
 22 440 22 440 22 432 c 0,31,32
22 328 m 0,43,44
 22 320 22 320 16 314 c 128,-1,45
 10 308 10 308 0 308 c 256,46,47
 -10 308 -10 308 -16 314 c 128,-1,48
 -22 320 -22 320 -22 328 c 0,49,50
 -22 338 -22 338 -16 344.5 c 128,-1,51
 -10 351 -10 351 0 351 c 256,52,53
 10 351 10 351 16 344.5 c 128,-1,54
 22 338 22 338 22 328 c 0,43,44
22 226 m 0,55,56
 22 218 22 218 16 211 c 128,-1,57
 10 204 10 204 0 204 c 256,58,59
 -10 204 -10 204 -16 211 c 128,-1,60
 -22 218 -22 218 -22 226 c 0,61,62
 -22 236 -22 236 -16 242.5 c 128,-1,63
 -10 249 -10 249 0 249 c 256,64,65
 10 249 10 249 16 242.5 c 128,-1,66
 22 236 22 236 22 226 c 0,55,56
22 124 m 0,67,68
 22 114 22 114 16 108 c 128,-1,69
 10 102 10 102 0 102 c 256,70,71
 -10 102 -10 102 -16 108 c 128,-1,72
 -22 114 -22 114 -22 124 c 0,73,74
 -22 133 -22 133 -16 139.5 c 128,-1,75
 -10 146 -10 146 0 146 c 256,76,77
 10 146 10 146 16 139.5 c 128,-1,78
 22 133 22 133 22 124 c 0,67,68
22 22 m 0,79,80
 22 13 22 13 16 6.5 c 128,-1,81
 10 -0 10 -0 0 0 c 256,82,83
 -10 0 -10 0 -16 6.5 c 128,-1,84
 -22 13 -22 13 -22 22 c 0,85,86
 -22 30 -22 30 -16 36.5 c 128,-1,87
 -10 43 -10 43 0 43 c 256,88,89
 10 43 10 43 16 36.5 c 128,-1,90
 22 30 22 30 22 22 c 0,79,80
EndSplineSet
EndChar

StartChar: afii61664
Encoding: 8204 8204 200
Width: 0
VWidth: 1398
GlyphClass: 1
Flags: W
LayerCount: 2
Fore
SplineSet
190 680 m 1,0,1
 156 703 156 703 123 714 c 128,-1,2
 90 725 90 725 53 728 c 1,3,-1
 154 628 l 1,4,-1
 133 606 l 1,5,-1
 7 730 l 1,6,-1
 -8 730 l 1,7,-1
 -132 607 l 1,8,-1
 -154 630 l 1,9,-1
 -54 728 l 1,10,11
 -91 725 -91 725 -123.5 714.5 c 128,-1,12
 -156 704 -156 704 -190 680 c 1,13,-1
 -202 696 l 1,14,15
 -164 730 -164 730 -126 751 c 128,-1,16
 -88 772 -88 772 -40 779 c 1,17,-1
 -152 891 l 1,18,-1
 -130 912 l 1,19,-1
 0 782 l 1,20,-1
 132 914 l 1,21,-1
 152 892 l 1,22,-1
 39 779 l 1,23,24
 86 772 86 772 124.5 751 c 128,-1,25
 163 730 163 730 202 696 c 1,26,-1
 190 680 l 1,0,1
22 636 m 0,27,28
 22 628 22 628 16 621 c 128,-1,29
 10 614 10 614 0 614 c 256,30,31
 -10 614 -10 614 -16 621 c 128,-1,32
 -22 628 -22 628 -22 636 c 0,33,34
 -22 646 -22 646 -16 652.5 c 128,-1,35
 -10 659 -10 659 0 659 c 256,36,37
 10 659 10 659 16 652.5 c 128,-1,38
 22 646 22 646 22 636 c 0,27,28
22 534 m 0,39,40
 22 524 22 524 16 518 c 128,-1,41
 10 512 10 512 0 512 c 256,42,43
 -10 512 -10 512 -16 518 c 128,-1,44
 -22 524 -22 524 -22 534 c 0,45,46
 -22 543 -22 543 -16 549 c 128,-1,47
 -10 555 -10 555 0 555 c 256,48,49
 10 555 10 555 16 549 c 128,-1,50
 22 543 22 543 22 534 c 0,39,40
22 432 m 0,51,52
 22 422 22 422 16 416 c 128,-1,53
 10 410 10 410 0 410 c 256,54,55
 -10 410 -10 410 -16 416 c 128,-1,56
 -22 422 -22 422 -22 432 c 0,57,58
 -22 440 -22 440 -16 447 c 128,-1,59
 -10 454 -10 454 0 454 c 256,60,61
 10 454 10 454 16 447 c 128,-1,62
 22 440 22 440 22 432 c 0,51,52
22 328 m 0,63,64
 22 320 22 320 16 314 c 128,-1,65
 10 308 10 308 0 308 c 256,66,67
 -10 308 -10 308 -16 314 c 128,-1,68
 -22 320 -22 320 -22 328 c 0,69,70
 -22 338 -22 338 -16 344.5 c 128,-1,71
 -10 351 -10 351 0 351 c 256,72,73
 10 351 10 351 16 344.5 c 128,-1,74
 22 338 22 338 22 328 c 0,63,64
22 226 m 0,75,76
 22 218 22 218 16 211 c 128,-1,77
 10 204 10 204 0 204 c 256,78,79
 -10 204 -10 204 -16 211 c 128,-1,80
 -22 218 -22 218 -22 226 c 0,81,82
 -22 236 -22 236 -16 242.5 c 128,-1,83
 -10 249 -10 249 0 249 c 256,84,85
 10 249 10 249 16 242.5 c 128,-1,86
 22 236 22 236 22 226 c 0,75,76
22 124 m 0,87,88
 22 114 22 114 16 108 c 128,-1,89
 10 102 10 102 0 102 c 256,90,91
 -10 102 -10 102 -16 108 c 128,-1,92
 -22 114 -22 114 -22 124 c 0,93,94
 -22 133 -22 133 -16 139.5 c 128,-1,95
 -10 146 -10 146 0 146 c 256,96,97
 10 146 10 146 16 139.5 c 128,-1,98
 22 133 22 133 22 124 c 0,87,88
22 22 m 0,99,100
 22 13 22 13 16 6.5 c 128,-1,101
 10 -0 10 -0 0 0 c 256,102,103
 -10 0 -10 0 -16 6.5 c 128,-1,104
 -22 13 -22 13 -22 22 c 0,105,106
 -22 30 -22 30 -16 36.5 c 128,-1,107
 -10 43 -10 43 0 43 c 256,108,109
 10 43 10 43 16 36.5 c 128,-1,110
 22 30 22 30 22 22 c 0,99,100
EndSplineSet
EndChar

StartChar: afii301
Encoding: 8205 8205 201
Width: 0
VWidth: 1398
GlyphClass: 1
Flags: W
LayerCount: 2
Fore
SplineSet
0 782 m 256,0,1
 36 782 36 782 65.5 774.5 c 128,-1,2
 95 767 95 767 119.5 754.5 c 128,-1,3
 144 742 144 742 164 727 c 128,-1,4
 184 712 184 712 202 696 c 1,5,6
 202 695 202 695 200 692 c 128,-1,7
 196 686 l 1,8,-1
 190 680 l 1,9,10
 170 693 170 693 150 703 c 128,-1,11
 130 713 130 713 107 719 c 128,-1,12
 84 725 84 725 58.5 727.5 c 128,-1,13
 33 730 33 730 0 730 c 128,-1,14
 -33 730 -33 730 -58.5 727.5 c 128,-1,15
 -84 725 -84 725 -107 719.5 c 128,-1,16
 -130 714 -130 714 -150 704.5 c 128,-1,17
 -170 695 -170 695 -190 680 c 1,18,19
 -193 684 -193 684 -196 687 c 0,20,21
 -198 689 -198 689 -200 692 c 128,-1,22
 -202 695 -202 695 -202 696 c 1,23,24
 -184 712 -184 712 -164 727 c 128,-1,25
 -144 742 -144 742 -119.5 754.5 c 128,-1,26
 -95 767 -95 767 -65.5 774.5 c 128,-1,27
 -36 782 -36 782 0 782 c 256,0,1
22 636 m 0,28,29
 22 628 22 628 16 621 c 128,-1,30
 10 614 10 614 0 614 c 256,31,32
 -10 614 -10 614 -16 621 c 128,-1,33
 -22 628 -22 628 -22 636 c 0,34,35
 -22 646 -22 646 -16 652.5 c 128,-1,36
 -10 659 -10 659 0 659 c 256,37,38
 10 659 10 659 16 652.5 c 128,-1,39
 22 646 22 646 22 636 c 0,28,29
22 534 m 0,40,41
 22 524 22 524 16 518 c 128,-1,42
 10 512 10 512 0 512 c 256,43,44
 -10 512 -10 512 -16 518 c 128,-1,45
 -22 524 -22 524 -22 534 c 0,46,47
 -22 543 -22 543 -16 549 c 128,-1,48
 -10 555 -10 555 0 555 c 256,49,50
 10 555 10 555 16 549 c 128,-1,51
 22 543 22 543 22 534 c 0,40,41
22 432 m 0,52,53
 22 422 22 422 16 416 c 128,-1,54
 10 410 10 410 0 410 c 256,55,56
 -10 410 -10 410 -16 416 c 128,-1,57
 -22 422 -22 422 -22 432 c 0,58,59
 -22 440 -22 440 -16 447 c 128,-1,60
 -10 454 -10 454 0 454 c 256,61,62
 10 454 10 454 16 447 c 128,-1,63
 22 440 22 440 22 432 c 0,52,53
22 328 m 0,64,65
 22 320 22 320 16 314 c 128,-1,66
 10 308 10 308 0 308 c 256,67,68
 -10 308 -10 308 -16 314 c 128,-1,69
 -22 320 -22 320 -22 328 c 0,70,71
 -22 338 -22 338 -16 344.5 c 128,-1,72
 -10 351 -10 351 0 351 c 256,73,74
 10 351 10 351 16 344.5 c 128,-1,75
 22 338 22 338 22 328 c 0,64,65
22 226 m 0,76,77
 22 218 22 218 16 211 c 128,-1,78
 10 204 10 204 0 204 c 256,79,80
 -10 204 -10 204 -16 211 c 128,-1,81
 -22 218 -22 218 -22 226 c 0,82,83
 -22 236 -22 236 -16 242.5 c 128,-1,84
 -10 249 -10 249 0 249 c 256,85,86
 10 249 10 249 16 242.5 c 128,-1,87
 22 236 22 236 22 226 c 0,76,77
22 124 m 0,88,89
 22 114 22 114 16 108 c 128,-1,90
 10 102 10 102 0 102 c 256,91,92
 -10 102 -10 102 -16 108 c 128,-1,93
 -22 114 -22 114 -22 124 c 0,94,95
 -22 133 -22 133 -16 139.5 c 128,-1,96
 -10 146 -10 146 0 146 c 256,97,98
 10 146 10 146 16 139.5 c 128,-1,99
 22 133 22 133 22 124 c 0,88,89
22 22 m 0,100,101
 22 13 22 13 16 6.5 c 128,-1,102
 10 -0 10 -0 0 0 c 256,103,104
 -10 0 -10 0 -16 6.5 c 128,-1,105
 -22 13 -22 13 -22 22 c 0,106,107
 -22 30 -22 30 -16 36.5 c 128,-1,108
 -10 43 -10 43 0 43 c 256,109,110
 10 43 10 43 16 36.5 c 128,-1,111
 22 30 22 30 22 22 c 0,100,101
EndSplineSet
EndChar

StartChar: afii299
Encoding: 8206 8206 202
Width: 0
VWidth: 1398
GlyphClass: 1
Flags: W
LayerCount: 2
Fore
SplineSet
-48 649 m 1,0,-1
 -48 786 l 1,1,-1
 68 718 l 1,2,-1
 -48 649 l 1,0,-1
EndSplineSet
EndChar

StartChar: afii300
Encoding: 8207 8207 203
Width: 0
VWidth: 1398
GlyphClass: 1
Flags: W
LayerCount: 2
Fore
SplineSet
-68 718 m 1,0,-1
 48 786 l 1,1,-1
 48 649 l 1,2,-1
 -68 718 l 1,0,-1
EndSplineSet
EndChar

StartChar: uni066E
Encoding: 1646 1646 204
Width: 637
Flags: W
LayerCount: 2
Fore
SplineSet
155 0 m 2,0,1
 94 0 94 0 59 29 c 0,2,3
 19 63 19 63 19 130 c 0,4,5
 19 171 19 171 41 225 c 0,6,7
 65 283 65 283 100 309 c 1,8,-1
 122 309 l 1,9,10
 105 282 105 282 97 266 c 0,11,12
 72 217 72 217 72 187 c 0,13,14
 72 154 72 154 92 136 c 0,15,16
 118 113 118 113 176 113 c 2,17,-1
 556 113 l 1,18,19
 556 140 556 140 539 170 c 0,20,21
 532 180 532 180 510 210 c 1,22,-1
 548 320 l 1,23,24
 574 287 574 287 594 229 c 0,25,26
 618 161 618 161 618 97 c 2,27,-1
 618 0 l 1,28,-1
 155 0 l 2,0,1
EndSplineSet
EndChar

StartChar: afii57511
Encoding: 1657 1657 205
Width: 637
GlyphClass: 1
Flags: W
LayerCount: 2
Fore
SplineSet
429.652 319.237 m 4,0,1
 429.652 287.716 429.652 287.716 424.864 272.155 c 4,2,3
 417.683 249.412 417.683 249.412 398.93 249.412 c 6,4,-1
 260.077 249.412 l 6,5,6
 245.713 249.412 245.713 249.412 235.738 264.574 c 4,7,8
 228.955 274.948 228.955 274.948 224.566 292.105 c 4,9,-1
 221.774 307.268 l 5,10,11
 227.359 302.878 227.359 302.878 230.551 300.884 c 4,12,13
 242.123 294.499 242.123 294.499 250.901 294.499 c 6,14,-1
 268.855 294.499 l 6,15,16
 276.836 294.499 276.836 294.499 284.018 299.686 c 4,17,18
 289.204 303.676 289.204 303.676 294.79 311.258 c 5,19,20
 291.599 345.571 291.599 345.571 284.416 386.669 c 4,21,22
 276.438 433.352 276.438 433.352 269.653 446.119 c 5,23,-1
 291.599 500.782 l 5,24,25
 299.18 486.02 299.18 486.02 305.563 448.114 c 4,26,27
 310.352 418.588 310.352 418.588 313.544 378.688 c 4,28,29
 316.337 345.571 316.337 345.571 316.337 329.611 c 5,30,31
 321.125 335.995 321.125 335.995 326.312 342.778 c 4,32,33
 338.681 357.94 338.681 357.94 349.853 367.117 c 4,34,35
 366.212 380.285 366.212 380.285 378.979 380.285 c 4,36,37
 396.536 380.285 396.536 380.285 412.097 363.526 c 4,38,39
 429.652 344.374 429.652 344.374 429.652 319.237 c 4,0,1
412.496 304.474 m 5,40,41
 407.309 316.444 407.309 316.444 393.742 325.622 c 4,42,43
 381.772 334 381.772 334 371 334 c 4,44,45
 361.424 334 361.424 334 349.055 327.218 c 4,46,47
 330.701 317.242 330.701 317.242 308.356 294.499 c 5,48,-1
 392.546 294.499 l 6,49,50
 398.93 294.499 398.93 294.499 404.116 297.093 c 4,51,52
 409.304 299.686 409.304 299.686 412.496 304.474 c 5,40,41
EndSplineSet
Refer: 204 1646 N 1 0 0 1 0 0 2
EndChar

StartChar: tehring
Encoding: 1660 1660 206
Width: 637
GlyphClass: 1
Flags: W
LayerCount: 2
Fore
SplineSet
384 -46 m 0,0,1
 384 -68 384 -68 376 -88 c 128,-1,2
 368 -108 368 -108 354 -123 c 128,-1,3
 340 -138 340 -138 321 -147 c 128,-1,4
 302 -156 302 -156 279 -156 c 0,5,6
 247 -156 247 -156 229.5 -132.5 c 128,-1,7
 212 -109 212 -109 212 -58 c 0,8,9
 212 -37 212 -37 219 -18 c 128,-1,10
 226 1 226 1 239 16 c 128,-1,11
 252 31 252 31 270 39.5 c 128,-1,12
 288 48 288 48 310 48 c 0,13,14
 325 48 325 48 338.5 39 c 128,-1,15
 352 30 352 30 362 16 c 128,-1,16
 372 2 372 2 378 -14.5 c 128,-1,17
 384 -31 384 -31 384 -46 c 0,0,1
345 -66 m 0,18,19
 345 -58 345 -58 338 -48 c 128,-1,20
 331 -38 331 -38 321 -29 c 128,-1,21
 311 -20 311 -20 299 -14.5 c 128,-1,22
 287 -9 287 -9 277 -9 c 0,23,24
 259 -9 259 -9 248 -22.5 c 128,-1,25
 237 -36 237 -36 237 -52 c 0,26,27
 237 -60 237 -60 242 -67 c 128,-1,28
 247 -74 247 -74 255 -79 c 128,-1,29
 263 -84 263 -84 274 -86.5 c 128,-1,30
 285 -89 285 -89 295 -89 c 0,31,32
 302 -89 302 -89 310.5 -87 c 128,-1,33
 319 -85 319 -85 327 -81.5 c 128,-1,34
 335 -78 335 -78 340 -74 c 128,-1,35
 345 -70 345 -70 345 -66 c 0,18,19
347 307 m 1,19,-1
 290 250 l 1,20,-1
 229 312 l 1,21,-1
 286 369 l 1,22,-1
 347 307 l 1,19,-1
477 312 m 1,23,-1
 420 255 l 1,24,-1
 358 316 l 1,25,-1
 415 374 l 1,26,-1
 477 312 l 1,23,-1
EndSplineSet
Refer: 204 1646 N 1 0 0 1 0 0 2
EndChar

StartChar: peh
Encoding: 1662 1662 207
Width: 637
GlyphClass: 1
Flags: W
LayerCount: 2
Fore
SplineSet
324 -138 m 5,0,-1
 380.692 -80.6943 l 5,1,-1
 442.025 -142.366 l 5,2,-1
 386.327 -198.666 l 5,3,-1
 324 -138 l 5,0,-1
194.029 -143.699 m 5,4,-1
 250.722 -86.3936 l 5,5,-1
 313.049 -147.06 l 5,6,-1
 256.361 -205.365 l 5,7,-1
 194.029 -143.699 l 5,4,-1
266.474 -226.311 m 5,8,-1
 322.167 -169.011 l 5,9,-1
 384.499 -230.677 l 5,10,-1
 328.807 -287.977 l 5,11,-1
 266.474 -226.311 l 5,8,-1
EndSplineSet
Refer: 204 1646 N 1 0 0 1 0 0 2
EndChar

StartChar: hahhamza
Encoding: 1665 1665 208
Width: 637
GlyphClass: 1
Flags: W
LayerCount: 2
Fore
SplineSet
415 414 m 5,0,-1
 387 399 l 4,1,2
 349 378 349 378 328 366 c 4,3,4
 294 345 294 345 279 331 c 5,5,-1
 279 348 l 6,6,7
 281 357 281 357 290 378 c 4,8,9
 293 386 293 386 300 400 c 5,10,11
 290 405 290 405 283 414 c 4,12,13
 274 427 274 427 274 446 c 4,14,15
 274 481 274 481 306 526 c 4,16,17
 340 576 340 576 373 576 c 4,18,19
 388 576 388 576 395 567 c 4,20,21
 402 557 402 557 402 542 c 4,22,23
 402 529 402 529 397 515 c 4,24,25
 393 502 393 502 386 500 c 5,26,27
 382 505 382 505 380 506 c 4,28,29
 370 514 370 514 361 514 c 4,30,31
 345 514 345 514 323 497 c 4,32,33
 300 480 300 480 300 465 c 4,34,35
 300 458 300 458 320 452 c 132,-1,36
 340 446 340 446 357 446 c 4,37,38
 372 446 372 446 401 462 c 4,39,-1
 437 482 l 5,40,-1
 415 414 l 5,0,-1
EndSplineSet
Refer: 17 1581 S 1 0 0 1 0 0 2
EndChar

StartChar: hah3dots
Encoding: 1669 1669 209
Width: 637
GlyphClass: 1
Flags: W
LayerCount: 2
Fore
SplineSet
364 366 m 1,0,-1
 307 309 l 1,1,-1
 246 371 l 1,2,-1
 302 427 l 1,3,-1
 364 366 l 1,0,-1
494 371 m 1,4,-1
 437 314 l 1,5,-1
 375 375 l 1,6,-1
 432 433 l 1,7,-1
 494 371 l 1,4,-1
422 454 m 1,8,-1
 366 397 l 1,9,-1
 304 459 l 1,10,-1
 360 516 l 1,11,-1
 422 454 l 1,8,-1
EndSplineSet
Refer: 17 1581 N 1 0 0 1 0 0 2
EndChar

StartChar: tcheh
Encoding: 1670 1670 210
Width: 637
GlyphClass: 1
Flags: W
LayerCount: 2
Fore
SplineSet
369.308 -57.3057 m 1,0,-1
 426 0 l 1,1,-1
 487.333 -61.6719 l 1,2,-1
 431.635 -117.972 l 1,3,-1
 369.308 -57.3057 l 1,0,-1
239.337 -63.0049 m 1,4,-1
 296.029 -5.69922 l 1,5,-1
 358.356 -66.3652 l 1,6,-1
 301.669 -124.671 l 1,7,-1
 239.337 -63.0049 l 1,4,-1
311.781 -145.616 m 1,8,-1
 367.475 -88.3164 l 1,9,-1
 429.807 -149.982 l 1,10,-1
 374.114 -207.282 l 1,11,-1
 311.781 -145.616 l 1,8,-1
EndSplineSet
Refer: 17 1581 N 1 0 0 1 0 0 2
EndChar

StartChar: afii57512
Encoding: 1672 1672 211
Width: 637
GlyphClass: 1
Flags: W
LayerCount: 2
Fore
SplineSet
404.673 511.952 m 0,0,1
 404.673 480.431 404.673 480.431 399.885 464.87 c 0,2,3
 392.703 442.127 392.703 442.127 373.95 442.127 c 2,4,-1
 235.098 442.127 l 2,5,6
 220.733 442.127 220.733 442.127 210.759 457.289 c 0,7,8
 203.976 467.663 203.976 467.663 199.587 484.82 c 0,9,10
 196.795 499.982 l 1,11,12
 202.38 495.593 202.38 495.593 205.571 493.599 c 0,13,14
 217.144 487.214 217.144 487.214 225.922 487.214 c 2,15,-1
 243.876 487.214 l 2,16,17
 251.856 487.214 251.856 487.214 259.038 492.4 c 0,18,19
 264.225 496.391 264.225 496.391 269.811 503.973 c 1,20,21
 266.619 538.286 266.619 538.286 259.437 579.384 c 0,22,23
 251.458 626.066 251.458 626.066 244.674 638.834 c 1,24,-1
 266.619 693.497 l 1,25,26
 274.2 678.734 274.2 678.734 280.584 640.829 c 0,27,28
 285.372 611.303 285.372 611.303 288.564 571.403 c 0,29,30
 291.357 538.286 291.357 538.286 291.357 522.326 c 1,31,32
 296.146 528.71 296.146 528.71 301.333 535.493 c 0,33,34
 313.701 550.655 313.701 550.655 324.873 559.832 c 0,35,36
 341.232 573 341.232 573 354 573 c 0,37,38
 371.557 573 371.557 573 387.117 556.241 c 0,39,40
 404.673 537.089 404.673 537.089 404.673 511.952 c 0,0,1
387.517 497.188 m 1,41,42
 382.329 509.159 382.329 509.159 368.763 518.337 c 0,43,44
 356.793 526.715 356.793 526.715 346.021 526.715 c 0,45,46
 336.444 526.715 336.444 526.715 324.075 519.933 c 0,47,48
 305.722 509.957 305.722 509.957 283.377 487.214 c 1,49,-1
 367.566 487.214 l 2,50,51
 373.95 487.214 373.95 487.214 379.137 489.808 c 128,-1,52
 384.324 492.4 384.324 492.4 387.517 497.188 c 1,41,42
EndSplineSet
Refer: 19 1583 N 1 0 0 1 0 0 2
EndChar

StartChar: dalring
Encoding: 1673 1673 212
Width: 637
GlyphClass: 1
Flags: W
LayerCount: 2
Fore
SplineSet
414.5 -49.5 m 4,0,1
 414.5 -71.5 414.5 -71.5 406.5 -91.5 c 132,-1,2
 398.5 -111.5 398.5 -111.5 384.5 -126.5 c 132,-1,3
 370.5 -141.5 370.5 -141.5 351.5 -150.5 c 132,-1,4
 332.5 -159.5 332.5 -159.5 309.5 -159.5 c 4,5,6
 277.5 -159.5 277.5 -159.5 260 -136 c 132,-1,7
 242.5 -112.5 242.5 -112.5 242.5 -61.5 c 4,8,9
 242.5 -40.5 242.5 -40.5 249.5 -21.5 c 132,-1,10
 256.5 -2.5 256.5 -2.5 269.5 12.5 c 132,-1,11
 282.5 27.5 282.5 27.5 300.5 36 c 132,-1,12
 318.5 44.5 318.5 44.5 340.5 44.5 c 4,13,14
 355.5 44.5 355.5 44.5 369 35.5 c 132,-1,15
 382.5 26.5 382.5 26.5 392.5 12.5 c 132,-1,16
 402.5 -1.5 402.5 -1.5 408.5 -18 c 132,-1,17
 414.5 -34.5 414.5 -34.5 414.5 -49.5 c 4,0,1
375.5 -69.5 m 4,18,19
 375.5 -61.5 375.5 -61.5 368.5 -51.5 c 132,-1,20
 361.5 -41.5 361.5 -41.5 351.5 -32.5 c 132,-1,21
 341.5 -23.5 341.5 -23.5 329.5 -18 c 132,-1,22
 317.5 -12.5 317.5 -12.5 307.5 -12.5 c 4,23,24
 289.5 -12.5 289.5 -12.5 278.5 -26 c 132,-1,25
 267.5 -39.5 267.5 -39.5 267.5 -55.5 c 4,26,27
 267.5 -63.5 267.5 -63.5 272.5 -70.5 c 132,-1,28
 277.5 -77.5 277.5 -77.5 285.5 -82.5 c 132,-1,29
 293.5 -87.5 293.5 -87.5 304.5 -90 c 132,-1,30
 315.5 -92.5 315.5 -92.5 325.5 -92.5 c 4,31,32
 332.5 -92.5 332.5 -92.5 341 -90.5 c 132,-1,33
 349.5 -88.5 349.5 -88.5 357.5 -85 c 132,-1,34
 365.5 -81.5 365.5 -81.5 370.5 -77.5 c 132,-1,35
 375.5 -73.5 375.5 -73.5 375.5 -69.5 c 4,18,19
EndSplineSet
Refer: 19 1583 S 1 0 0 1 0 0 2
EndChar

StartChar: keheh
Encoding: 1705 1705 213
Width: 637
GlyphClass: 1
Flags: W
LayerCount: 2
Fore
SplineSet
115 0 m 6,0,1
 74 0 74 0 48 22 c 4,2,3
 15 49 15 49 15 112 c 4,4,5
 15 163 15 163 30 210 c 132,-1,6
 45 257 45 257 73 295 c 5,7,-1
 97 295 l 5,8,9
 86 274 86 274 81 259 c 4,10,11
 65 211 65 211 65 184 c 4,12,13
 65 154 65 154 84 134 c 4,14,15
 103.95 113 103.95 113 148 113 c 6,16,-1
 490.734 113 l 1,17,18
 476.297 142 476.297 142 443.812 172.5 c 128,-1,19
 411.328 203 411.328 203 371.625 224 c 0,20,21
 349.969 236 349.969 236 331.32 240.5 c 128,-1,22
 312.672 245 312.672 245 295.828 245 c 0,23,24
 275.375 245 275.375 245 263.344 240 c 0,25,26
 252.516 236 252.516 236 240.484 233 c 1,27,28
 227.25 237 227.25 237 209.805 277.5 c 128,-1,29
 192.359 318 192.359 318 192.359 337 c 1,30,31
 220.031 387 220.031 387 286.203 462 c 0,32,33
 358.391 544 358.391 544 441.406 609 c 0,34,35
 541.905 687.689 541.905 687.689 620.672 719 c 1,36,-1
 620.672 596 l 1,37,38
 560.372 576.509 560.372 576.509 488.328 531 c 0,39,40
 428.172 493 428.172 493 376.438 445 c 0,41,42
 334.328 407 334.328 407 297.031 361 c 1,43,44
 332.105 350.797 332.105 350.797 339.141 348 c 0,45,46
 366.812 337 366.812 337 386.062 325 c 0,47,48
 478.632 267.294 478.632 267.294 516 208 c 0,49,50
 550.891 151 550.891 151 550.891 84 c 0,51,52
 550.891 55.417 550.891 55.417 542.469 35 c 0,53,54
 528.031 0 528.031 0 502.766 0 c 2,55,-1
 115 0 l 6,0,1
EndSplineSet
EndChar

StartChar: kafring
Encoding: 1707 1707 214
Width: 637
GlyphClass: 1
Flags: W
LayerCount: 2
Fore
SplineSet
580.5 480 m 0,0,1
 580.5 458 580.5 458 572.5 438 c 128,-1,2
 564.5 418 564.5 418 550.5 403 c 128,-1,3
 536.5 388 536.5 388 517.5 379 c 128,-1,4
 498.5 370 498.5 370 475.5 370 c 0,5,6
 443.5 370 443.5 370 426 393.5 c 128,-1,7
 408.5 417 408.5 417 408.5 468 c 0,8,9
 408.5 489 408.5 489 415.5 508 c 128,-1,10
 422.5 527 422.5 527 435.5 542 c 128,-1,11
 448.5 557 448.5 557 466.5 565.5 c 128,-1,12
 484.5 574 484.5 574 506.5 574 c 0,13,14
 521.5 574 521.5 574 535 565 c 128,-1,15
 548.5 556 548.5 556 558.5 542 c 128,-1,16
 568.5 528 568.5 528 574.5 511.5 c 128,-1,17
 580.5 495 580.5 495 580.5 480 c 0,0,1
541.5 460 m 0,18,19
 541.5 468 541.5 468 534.5 478 c 128,-1,20
 527.5 488 527.5 488 517.5 497 c 128,-1,21
 507.5 506 507.5 506 495.5 511.5 c 128,-1,22
 483.5 517 483.5 517 473.5 517 c 0,23,24
 455.5 517 455.5 517 444.5 503.5 c 128,-1,25
 433.5 490 433.5 490 433.5 474 c 0,26,27
 433.5 466 433.5 466 438.5 459 c 128,-1,28
 443.5 452 443.5 452 451.5 447 c 128,-1,29
 459.5 442 459.5 442 470.5 439.5 c 128,-1,30
 481.5 437 481.5 437 491.5 437 c 0,31,32
 498.5 437 498.5 437 507 439 c 128,-1,33
 515.5 441 515.5 441 523.5 444.5 c 128,-1,34
 531.5 448 531.5 448 536.5 452 c 128,-1,35
 541.5 456 541.5 456 541.5 460 c 0,18,19
EndSplineSet
Refer: 213 1705 S 1 0 0 1 0 0 2
EndChar

StartChar: gaf
Encoding: 1711 1711 215
Width: 637
GlyphClass: 1
Flags: W
LayerCount: 2
Fore
SplineSet
590.871 804.258 m 1,0,1
 588.516 776.678 588.516 776.678 583 741 c 1,2,3
 468.584 679.926 468.584 679.926 365.027 587.837 c 128,-1,4
 261.471 495.748 261.471 495.748 196.825 391.533 c 1,5,-1
 179.759 438.58 l 1,6,7
 246.418 552.331 246.418 552.331 360.613 651.473 c 128,-1,8
 474.807 750.616 474.807 750.616 590.871 804.258 c 1,0,1
EndSplineSet
Refer: 213 1705 N 1 0 0 1 0 0 2
EndChar

StartChar: afii57505
Encoding: 1700 1700 216
Width: 637
GlyphClass: 1
Flags: W
LayerCount: 2
Fore
SplineSet
473 435 m 5,0,-1
 416 378 l 5,1,-1
 355 440 l 5,2,-1
 411 496 l 5,3,-1
 473 435 l 5,0,-1
603 440 m 5,4,-1
 546 383 l 5,5,-1
 484 444 l 5,6,-1
 541 502 l 5,7,-1
 603 440 l 5,4,-1
531 523 m 5,8,-1
 475 466 l 5,9,-1
 413 528 l 5,10,-1
 469 585 l 5,11,-1
 531 523 l 5,8,-1
571 174 m 1,12,13
 558 208 558 208 536 231 c 128,-1,14
 514 254 514 254 496 254 c 0,15,16
 489 254 489 254 479 246 c 128,-1,17
 469 238 469 238 461 225 c 1,18,19
 475 217 475 217 525 194 c 0,20,21
 557 180 557 180 571 174 c 1,12,13
138 0 m 2,22,23
 75 0 75 0 44 28 c 0,24,25
 9 59 9 59 9 126 c 0,26,27
 9 162 9 162 36 222.5 c 128,-1,28
 63 283 63 283 89 306 c 1,29,-1
 112 306 l 1,30,31
 97 280 97 280 90 265 c 0,32,33
 68 216 68 216 68 187 c 0,34,35
 68 153 68 153 85 136 c 0,36,37
 109 113 109 113 167 113 c 2,38,-1
 504 113 l 1,39,40
 485 121 485 121 465 129 c 0,41,42
 422 150 422 150 422 170 c 0,43,44
 422 186 422 186 429 230 c 0,45,46
 439 288 439 288 455 323 c 0,47,48
 477 370 477 370 507 370 c 0,49,50
 549 370 549 370 587 298 c 0,51,52
 628 221 628 221 628 122 c 2,53,-1
 628 40 l 2,54,55
 628 19 628 19 616.5 9.5 c 128,-1,56
 605 0 605 0 578 0 c 2,57,-1
 138 0 l 2,22,23
EndSplineSet
EndChar

StartChar: afii57513
Encoding: 1681 1681 217
Width: 637
GlyphClass: 1
Flags: W
LayerCount: 2
Fore
SplineSet
479.652 440.237 m 0,0,1
 479.652 408.716 479.652 408.716 474.864 393.155 c 0,2,3
 467.683 370.412 467.683 370.412 448.93 370.412 c 2,4,-1
 310.077 370.412 l 2,5,6
 295.713 370.412 295.713 370.412 285.738 385.574 c 0,7,8
 278.955 395.948 278.955 395.948 274.566 413.105 c 0,9,10
 271.774 428.268 l 1,11,12
 277.359 423.878 277.359 423.878 280.551 421.884 c 0,13,14
 292.123 415.499 292.123 415.499 300.901 415.499 c 2,15,-1
 318.855 415.499 l 2,16,17
 326.836 415.499 326.836 415.499 334.018 420.686 c 0,18,19
 339.204 424.676 339.204 424.676 344.79 432.258 c 1,20,21
 341.599 466.571 341.599 466.571 334.416 507.669 c 0,22,23
 326.438 554.352 326.438 554.352 319.653 567.119 c 1,24,-1
 341.599 621.782 l 1,25,26
 349.18 607.02 349.18 607.02 355.563 569.114 c 0,27,28
 360.352 539.588 360.352 539.588 363.544 499.688 c 0,29,30
 366.337 466.571 366.337 466.571 366.337 450.611 c 1,31,32
 371.125 456.995 371.125 456.995 376.312 463.778 c 0,33,34
 388.681 478.94 388.681 478.94 399.853 488.117 c 0,35,36
 416.212 501.285 416.212 501.285 428.979 501.285 c 0,37,38
 446.536 501.285 446.536 501.285 462.097 484.526 c 0,39,40
 479.652 465.374 479.652 465.374 479.652 440.237 c 0,0,1
462.496 425.474 m 1,41,42
 457.309 437.444 457.309 437.444 443.742 446.622 c 0,43,44
 431.772 455 431.772 455 421 455 c 0,45,46
 411.424 455 411.424 455 399.055 448.218 c 0,47,48
 380.701 438.242 380.701 438.242 358.356 415.499 c 1,49,-1
 442.546 415.499 l 2,50,51
 448.93 415.499 448.93 415.499 454.116 418.093 c 128,-1,52
 459.304 420.686 459.304 420.686 462.496 425.474 c 1,41,42
EndSplineSet
Refer: 21 1585 N 1 0 0 1 0 0 2
EndChar

StartChar: rehring
Encoding: 1683 1683 218
Width: 637
GlyphClass: 1
Flags: W
LayerCount: 2
Fore
SplineSet
486 -220 m 0,0,1
 486 -242 486 -242 478 -262 c 128,-1,2
 470 -282 470 -282 456 -297 c 128,-1,3
 442 -312 442 -312 423 -321 c 128,-1,4
 404 -330 404 -330 381 -330 c 0,5,6
 349 -330 349 -330 331.5 -306.5 c 128,-1,7
 314 -283 314 -283 314 -232 c 0,8,9
 314 -211 314 -211 321 -192 c 128,-1,10
 328 -173 328 -173 341 -158 c 128,-1,11
 354 -143 354 -143 372 -134.5 c 128,-1,12
 390 -126 390 -126 412 -126 c 0,13,14
 427 -126 427 -126 440.5 -135 c 128,-1,15
 454 -144 454 -144 464 -158 c 128,-1,16
 474 -172 474 -172 480 -188.5 c 128,-1,17
 486 -205 486 -205 486 -220 c 0,0,1
447 -240 m 0,18,19
 447 -232 447 -232 440 -222 c 128,-1,20
 433 -212 433 -212 423 -203 c 128,-1,21
 413 -194 413 -194 401 -188.5 c 128,-1,22
 389 -183 389 -183 379 -183 c 0,23,24
 361 -183 361 -183 350 -196.5 c 128,-1,25
 339 -210 339 -210 339 -226 c 0,26,27
 339 -234 339 -234 344 -241 c 128,-1,28
 349 -248 349 -248 357 -253 c 128,-1,29
 365 -258 365 -258 376 -260.5 c 128,-1,30
 387 -263 387 -263 397 -263 c 0,31,32
 404 -263 404 -263 412.5 -261 c 128,-1,33
 421 -259 421 -259 429 -255.5 c 128,-1,34
 437 -252 437 -252 442 -248 c 128,-1,35
 447 -244 447 -244 447 -240 c 0,18,19
EndSplineSet
Refer: 21 1585 S 1 0 0 1 0 0 2
EndChar

StartChar: rehdotabvblw
Encoding: 1686 1686 219
Width: 637
GlyphClass: 1
Flags: W
LayerCount: 2
Fore
SplineSet
560 -233 m 5,0,-1
 503 -289 l 5,1,-1
 441 -228 l 5,2,-1
 498 -171 l 5,3,-1
 560 -233 l 5,0,-1
315.5 44.5 m 5,4,-1
 258.5 -11.5 l 5,5,-1
 196.5 49.5 l 5,6,-1
 253.5 106.5 l 5,7,-1
 315.5 44.5 l 5,4,-1
EndSplineSet
Refer: 21 1585 S 1 0 0 1 0 0 2
EndChar

StartChar: jeh
Encoding: 1688 1688 220
Width: 637
GlyphClass: 1
Flags: W
LayerCount: 2
Fore
SplineSet
383 371.5 m 5,0,-1
 326 314.5 l 5,1,-1
 265 376.5 l 5,2,-1
 322 433.5 l 5,3,-1
 383 371.5 l 5,0,-1
536 373.5 m 5,4,-1
 479 316.5 l 5,5,-1
 417 377.5 l 5,6,-1
 474 435.5 l 5,7,-1
 536 373.5 l 5,4,-1
454 468.5 m 5,8,-1
 398 411.5 l 5,9,-1
 336 473.5 l 5,10,-1
 393 530.5 l 5,11,-1
 454 468.5 l 5,8,-1
EndSplineSet
Refer: 21 1585 S 1 0 0 1 0 0 2
EndChar

StartChar: seendotabvblw
Encoding: 1690 1690 221
Width: 637
GlyphClass: 1
Flags: W
LayerCount: 2
Fore
SplineSet
530 -104 m 5,0,-1
 473 -160 l 5,1,-1
 411 -99 l 5,2,-1
 468 -42 l 5,3,-1
 530 -104 l 5,0,-1
486.5 356.5 m 5,4,-1
 429.5 300.5 l 5,5,-1
 367.5 361.5 l 5,6,-1
 424.5 418.5 l 5,7,-1
 486.5 356.5 l 5,4,-1
EndSplineSet
Refer: 23 1587 S 1 0 0 1 0 0 2
EndChar

StartChar: afii57514
Encoding: 1722 1722 222
Width: 637
GlyphClass: 1
Flags: W
LayerCount: 2
Fore
SplineSet
517 69 m 1,4,5
 505 101 505 101 484.5 137 c 128,-1,6
 464 173 464 173 451 187 c 1,7,-1
 485 299 l 1,8,9
 486 299 486 299 502 267 c 0,10,11
 522 228 522 228 534 191 c 0,12,13
 551 137 551 137 551 94 c 2,14,-1
 551 50 l 2,15,16
 551 1 551 1 495 -40 c 0,17,18
 447 -74 447 -74 373 -95 c 0,19,20
 310 -113 310 -113 259 -113 c 0,21,22
 169 -113 169 -113 125 -69 c 0,23,24
 86 -31 86 -31 86 33 c 0,25,26
 86 103 86 103 110 174 c 0,27,28
 128 226 128 226 144 246 c 1,29,-1
 158 246 l 1,30,31
 150 233 150 233 141.5 188 c 128,-1,32
 133 143 133 143 133 116 c 0,33,34
 133 50 133 50 178 22 c 0,35,36
 214 0 214 0 280 0 c 0,37,38
 355 0 355 0 425 23 c 0,39,40
 484 42 484 42 517 69 c 1,4,5
EndSplineSet
EndChar

